<?xml version="1.0" encoding="UTF-8"?>
<!DOCTYPE svg PUBLIC "-//W3C//DTD SVG 1.1//EN" "http://www.w3.org/Graphics/SVG/1.1/DTD/svg11.dtd">
<!-- Creator: CorelDRAW -->
<svg xmlns="http://www.w3.org/2000/svg" xml:space="preserve" width="128px" height="118px" version="1.1" style="shape-rendering:geometricPrecision; text-rendering:geometricPrecision; image-rendering:optimizeQuality; fill-rule:evenodd; clip-rule:evenodd"
viewBox="0 0 8.346 7.67"
 xmlns:xlink="http://www.w3.org/1999/xlink"
 xmlns:xodm="http://www.corel.com/coreldraw/odm/2003">
 <defs>
  <style type="text/css">
   <![CDATA[
    .fil0 {fill:black;fill-rule:nonzero}
   ]]>
  </style>
 </defs>
 <g id="Layer_x0020_1">
  <metadata id="CorelCorpID_0Corel-Layer"/>
  <path class="fil0" d="M6.668 3.94c-0.013,0.051 -0.066,0.082 -0.117,0.068 -0.052,-0.014 -0.082,-0.066 -0.068,-0.118l0.454 -1.682 0.005 -0.017 0.002 -0.008c0.039,-0.148 0.092,-0.263 0.158,-0.337 0.082,-0.093 0.181,-0.129 0.297,-0.101l0.004 0.001c0.01,0.003 0.019,0.007 0.028,0.012l0.034 -0.132c0.064,-0.226 0.215,-0.352 0.373,-0.388 0.065,-0.015 0.132,-0.015 0.194,0 0.063,0.015 0.122,0.045 0.172,0.089 0.111,0.098 0.174,0.264 0.125,0.486l-0.405 2.668c-0.033,0.214 -0.084,0.415 -0.167,0.602 -0.085,0.189 -0.201,0.361 -0.362,0.513l-0.98 0.93c-0.037,0.035 -0.068,0.076 -0.085,0.119 -0.013,0.031 -0.017,0.065 -0.009,0.098 0.027,0.113 0.06,0.234 0.082,0.347 0.011,0.057 0,0.12 -0.027,0.171l0 0c-0.029,0.057 -0.079,0.102 -0.144,0.117 -0.466,0.105 -0.955,0.19 -1.426,0.284 -0.102,0.02 -0.177,0.003 -0.235,-0.042 -0.055,-0.043 -0.086,-0.106 -0.104,-0.182 -0.061,-0.254 -0.086,-0.699 -0.101,-0.97 -0.005,-0.094 -0.009,-0.165 -0.013,-0.199 -0.03,-0.258 0.009,-0.495 0.097,-0.704 0.097,-0.231 0.253,-0.426 0.442,-0.577 0.134,-0.108 0.29,-0.176 0.445,-0.243 0.111,-0.048 0.221,-0.096 0.316,-0.156l0.557 -0.382c0.127,-0.088 0.261,-0.096 0.372,-0.057 0.06,0.022 0.112,0.056 0.154,0.099 0.043,0.044 0.075,0.097 0.092,0.154 0.028,0.096 0.016,0.203 -0.057,0.296l-0.342 0.514 -0.005 0.007c-0.024,0.035 -0.05,0.066 -0.08,0.093 -0.032,0.029 -0.068,0.054 -0.109,0.076l-0.74 0.392c-0.047,0.024 -0.105,0.006 -0.13,-0.041 -0.025,-0.047 -0.007,-0.105 0.04,-0.129l0.741 -0.392c0.026,-0.014 0.048,-0.03 0.068,-0.048 0.019,-0.017 0.036,-0.037 0.051,-0.059l0.004 -0.006 0.343 -0.514 0 0 0.005 -0.007c0.033,-0.041 0.039,-0.086 0.026,-0.127 -0.008,-0.027 -0.023,-0.053 -0.045,-0.075 -0.021,-0.022 -0.049,-0.04 -0.079,-0.051 -0.058,-0.021 -0.129,-0.016 -0.199,0.033l-0.559 0.382 0 0 -0.002 0.002c-0.109,0.07 -0.227,0.121 -0.345,0.172 -0.143,0.062 -0.287,0.125 -0.402,0.216 -0.165,0.133 -0.301,0.303 -0.385,0.502 -0.076,0.179 -0.109,0.384 -0.083,0.609 0.004,0.035 0.009,0.111 0.014,0.21 0.015,0.263 0.039,0.696 0.096,0.936 0.008,0.036 0.019,0.063 0.035,0.075 0.013,0.01 0.038,0.012 0.08,0.004 0.47,-0.093 0.953,-0.179 1.42,-0.283 0.006,-0.002 0.013,-0.009 0.017,-0.018 0.008,-0.014 0.011,-0.03 0.008,-0.045 -0.025,-0.113 -0.054,-0.227 -0.08,-0.34 -0.018,-0.075 -0.009,-0.146 0.017,-0.213 0.028,-0.07 0.076,-0.134 0.132,-0.187l0.98 -0.93c0.142,-0.134 0.244,-0.286 0.318,-0.452 0.075,-0.168 0.122,-0.353 0.153,-0.552l0.405 -2.668 0.001 0 0.001 -0.007c0.033,-0.148 -0.001,-0.251 -0.064,-0.308 -0.025,-0.022 -0.056,-0.037 -0.089,-0.045 -0.034,-0.008 -0.071,-0.008 -0.107,0 -0.096,0.022 -0.189,0.104 -0.231,0.253l-0.613 2.357c-0.013,0.051 -0.065,0.082 -0.117,0.069 -0.051,-0.014 -0.082,-0.066 -0.068,-0.117l0.533 -2.052c-0.01,0.001 -0.019,0 -0.029,-0.002l-0.003 -0.001c-0.04,-0.01 -0.076,0.005 -0.108,0.041 -0.046,0.052 -0.085,0.139 -0.116,0.259 -0.118,0.548 -0.312,1.158 -0.461,1.708zm-1.769 -1.041l0.281 0.975c0.006,0.023 0.026,0.036 0.049,0.035l0.429 -0.004c0.023,0 0.042,-0.014 0.048,-0.036l0.019 -0.751c0.001,-0.035 0.018,-0.087 0.067,-0.114 0.286,-0.155 0.637,-0.481 0.402,-0.965 -0.026,-0.059 -0.06,-0.114 -0.1,-0.165 -0.033,-0.042 -0.041,-0.095 -0.022,-0.146 0.004,-0.01 0.007,-0.02 0.011,-0.03 0.015,-0.05 0.024,-0.103 0.024,-0.158 0,-0.136 -0.052,-0.26 -0.137,-0.353 -0.076,-0.085 -0.179,-0.144 -0.296,-0.165 -0.009,-0.199 -0.093,-0.378 -0.225,-0.51 -0.14,-0.14 -0.333,-0.227 -0.547,-0.227 -0.05,0 -0.1,0.005 -0.148,0.015 -0.037,0.007 -0.072,0.016 -0.106,0.028 -0.068,-0.095 -0.157,-0.175 -0.26,-0.232 -0.11,-0.061 -0.237,-0.096 -0.373,-0.096 -0.152,0 -0.294,0.044 -0.413,0.12 -0.111,0.07 -0.202,0.168 -0.265,0.284 -0.028,-0.011 -0.057,-0.02 -0.087,-0.027 -0.045,-0.009 -0.09,-0.015 -0.137,-0.015 -0.143,0 -0.274,0.048 -0.38,0.129 -0.1,0.077 -0.177,0.184 -0.216,0.307 -0.161,0.044 -0.302,0.139 -0.403,0.266 -0.104,0.132 -0.167,0.299 -0.167,0.48 0,0.213 0.087,0.406 0.227,0.546 0.14,0.14 0.333,0.226 0.546,0.226 0.057,0 0.112,-0.006 0.165,-0.017 0.03,-0.007 0.06,-0.015 0.088,-0.025 0.007,0.135 0.064,0.257 0.154,0.347 0.095,0.095 0.227,0.154 0.372,0.154l1.241 0.003c0.035,0 0.126,0 0.159,0.121zm-0.63 -1.216c0.008,-0.012 0.016,-0.026 0.021,-0.04 0.01,-0.023 0.014,-0.048 0.014,-0.073 0,-0.052 -0.02,-0.102 -0.058,-0.139 -0.037,-0.038 -0.086,-0.058 -0.139,-0.058 -0.014,0 -0.028,0.001 -0.042,0.004 -0.008,0.004 -0.016,0.006 -0.024,0.007 -0.009,0.003 -0.017,0.006 -0.025,0.01 -0.027,0.014 -0.051,0.034 -0.068,0.059 -0.01,0.014 -0.022,0.027 -0.035,0.037 -0.001,0.001 -0.003,0.002 -0.004,0.003 -0.012,0.01 -0.026,0.017 -0.04,0.024 -0.017,0.007 -0.035,0.012 -0.053,0.016 -0.018,0.003 -0.037,0.005 -0.055,0.005 -0.065,0 -0.127,-0.022 -0.177,-0.063 -0.05,-0.04 -0.084,-0.097 -0.097,-0.16 -0.008,-0.039 0.017,-0.077 0.057,-0.085 0.039,-0.008 0.077,0.017 0.085,0.056 0.006,0.03 0.022,0.058 0.047,0.077 0.024,0.02 0.054,0.03 0.085,0.03 0.009,0 0.018,0 0.026,-0.002 0.009,-0.002 0.018,-0.005 0.026,-0.008 0.003,-0.001 0.005,-0.002 0.008,-0.004 0.003,-0.003 0.006,-0.006 0.009,-0.009 0.031,-0.045 0.072,-0.08 0.121,-0.105 0.012,-0.006 0.024,-0.011 0.037,-0.016 0.01,-0.019 0.019,-0.038 0.025,-0.058 0.009,-0.029 0.014,-0.059 0.015,-0.089 0,-0.02 -0.002,-0.041 -0.005,-0.062 -0.004,-0.02 -0.01,-0.04 -0.018,-0.059 -0.015,-0.037 0.003,-0.079 0.04,-0.094 0.037,-0.015 0.079,0.003 0.094,0.04 0.012,0.028 0.02,0.057 0.026,0.087 0.005,0.03 0.008,0.06 0.007,0.091 0,0.042 -0.007,0.085 -0.02,0.126 0.074,0.01 0.143,0.044 0.197,0.097 0.064,0.065 0.1,0.151 0.1,0.242 0,0.043 -0.008,0.086 -0.024,0.127 -0.016,0.039 -0.038,0.074 -0.067,0.105 -0.013,0.017 -0.034,0.026 -0.055,0.026l-0.748 0c-0.091,0 -0.177,0.035 -0.241,0.098 -0.065,0.064 -0.102,0.149 -0.104,0.239 -0.001,0.04 -0.034,0.072 -0.074,0.071 -0.04,-0.001 -0.071,-0.034 -0.071,-0.074 0.003,-0.128 0.056,-0.249 0.147,-0.339 0.092,-0.09 0.214,-0.14 0.343,-0.14l0.714 0zm0.937 1.248l0 0c0.045,-0.011 0.091,0.017 0.102,0.062l0.158 0.649c0.011,0.045 -0.017,0.091 -0.062,0.102l0 0c-0.045,0.011 -0.091,-0.017 -0.102,-0.062l-0.158 -0.649c-0.011,-0.045 0.017,-0.091 0.062,-0.102zm-1.472 -0.935c0.04,0 0.073,0.032 0.073,0.072 0,0.04 -0.033,0.073 -0.073,0.073 -0.035,0 -0.069,0.014 -0.094,0.039 -0.025,0.025 -0.039,0.059 -0.039,0.094 0,0.036 0.014,0.069 0.039,0.095 0.025,0.025 0.059,0.039 0.094,0.039l1.054 0c0.04,0 0.072,0.032 0.072,0.072 0,0.04 -0.032,0.072 -0.072,0.072l-1.054 0c-0.074,0 -0.144,-0.029 -0.196,-0.081 -0.053,-0.052 -0.082,-0.123 -0.082,-0.197 0,-0.074 0.029,-0.144 0.082,-0.197 0.052,-0.052 0.122,-0.081 0.196,-0.081zm1.454 -0.868c0.035,-0.026 0.073,-0.048 0.113,-0.063 0.056,-0.023 0.116,-0.034 0.177,-0.034 0.004,0 0.008,0 0.012,0 0.04,0.001 0.072,0.034 0.071,0.074 -0.001,0.04 -0.034,0.072 -0.074,0.071 -0.003,0 -0.006,0 -0.009,0 -0.043,0 -0.085,0.008 -0.124,0.023 -0.02,0.008 -0.038,0.017 -0.056,0.028 0.054,0.071 0.083,0.156 0.083,0.246 0,0.07 -0.019,0.14 -0.054,0.201 -0.035,0.062 -0.086,0.113 -0.147,0.148 -0.034,0.02 -0.079,0.008 -0.099,-0.026 -0.02,-0.035 -0.008,-0.079 0.026,-0.099 0.04,-0.023 0.072,-0.055 0.095,-0.095 0.023,-0.039 0.034,-0.084 0.034,-0.129 0,-0.07 -0.027,-0.135 -0.076,-0.184 -0.049,-0.049 -0.114,-0.076 -0.183,-0.076 -0.047,0 -0.092,0.012 -0.132,0.036 -0.041,0.023 -0.073,0.057 -0.096,0.098 -0.019,0.035 -0.063,0.048 -0.098,0.029 -0.035,-0.02 -0.048,-0.064 -0.029,-0.099 0.035,-0.063 0.087,-0.116 0.149,-0.153 0.062,-0.036 0.133,-0.056 0.206,-0.056 0.075,0 0.148,0.021 0.211,0.06zm-2.005 -0.13c-0.039,-0.027 -0.081,-0.049 -0.125,-0.066 -0.068,-0.026 -0.14,-0.039 -0.212,-0.039 -0.013,0 -0.026,0 -0.04,0.001 -0.013,0.001 -0.026,0.002 -0.039,0.004 -0.04,0.006 -0.076,-0.022 -0.081,-0.062 -0.006,-0.039 0.022,-0.076 0.062,-0.081 0.016,-0.002 0.032,-0.004 0.049,-0.005 0.016,-0.001 0.033,-0.002 0.049,-0.002 0.09,0 0.179,0.017 0.263,0.049 0.068,0.026 0.131,0.061 0.188,0.105 0.077,-0.047 0.164,-0.071 0.255,-0.071 0.033,0 0.066,0.003 0.098,0.01 0.032,0.006 0.063,0.016 0.093,0.029 0.037,0.015 0.054,0.058 0.039,0.095 -0.016,0.036 -0.058,0.053 -0.095,0.038 -0.021,-0.009 -0.043,-0.016 -0.066,-0.021 -0.023,-0.004 -0.046,-0.007 -0.069,-0.007 -0.092,0 -0.179,0.037 -0.244,0.101 -0.065,0.065 -0.101,0.152 -0.101,0.244 0,0.024 0.003,0.048 0.008,0.072 0.005,0.023 0.012,0.046 0.022,0.068 0.016,0.037 -0.001,0.08 -0.037,0.096 -0.037,0.016 -0.08,-0.001 -0.096,-0.037 -0.013,-0.032 -0.024,-0.064 -0.031,-0.097 -0.007,-0.034 -0.011,-0.068 -0.011,-0.102 0,-0.119 0.043,-0.232 0.121,-0.322zm2.359 0.691c-0.038,-0.014 -0.057,-0.055 -0.044,-0.093 0.014,-0.037 0.055,-0.056 0.093,-0.043 0.069,0.025 0.134,0.061 0.192,0.106 0.058,0.045 0.109,0.099 0.15,0.159 0.023,0.033 0.014,0.078 -0.019,0.101 -0.033,0.022 -0.078,0.014 -0.1,-0.019 -0.033,-0.048 -0.074,-0.091 -0.12,-0.127 -0.046,-0.036 -0.097,-0.064 -0.152,-0.084zm0.161 0.489c-0.026,-0.029 -0.023,-0.075 0.007,-0.102 0.03,-0.026 0.076,-0.023 0.102,0.007 0.032,0.037 0.057,0.079 0.074,0.124 0.017,0.046 0.026,0.094 0.026,0.143 0,0.107 -0.042,0.21 -0.118,0.286 -0.076,0.076 -0.179,0.118 -0.286,0.118 -0.049,0 -0.098,-0.009 -0.143,-0.026 -0.046,-0.017 -0.089,-0.043 -0.125,-0.075 -0.03,-0.026 -0.033,-0.072 -0.006,-0.102 0.026,-0.03 0.072,-0.033 0.102,-0.006 0.023,0.02 0.05,0.037 0.08,0.048 0.029,0.011 0.06,0.016 0.092,0.016 0.069,0 0.134,-0.027 0.183,-0.076 0.049,-0.048 0.076,-0.114 0.076,-0.183 0,-0.032 -0.005,-0.063 -0.016,-0.092 -0.011,-0.029 -0.027,-0.056 -0.048,-0.08zm-0.501 -0.156c0.02,-0.035 0.065,-0.047 0.099,-0.027 0.035,0.02 0.047,0.064 0.027,0.098 -0.035,0.062 -0.086,0.114 -0.148,0.15 -0.062,0.035 -0.132,0.054 -0.203,0.054 -0.108,0 -0.21,-0.042 -0.286,-0.118 -0.076,-0.076 -0.119,-0.179 -0.119,-0.286 0,-0.051 0.01,-0.101 0.028,-0.148 0.018,-0.047 0.045,-0.09 0.08,-0.127 0.027,-0.029 0.072,-0.031 0.102,-0.004 0.029,0.027 0.031,0.073 0.004,0.102 -0.022,0.024 -0.039,0.052 -0.051,0.082 -0.012,0.03 -0.018,0.062 -0.018,0.095 0,0.069 0.027,0.134 0.076,0.183 0.049,0.049 0.115,0.076 0.184,0.076 0.046,0 0.091,-0.012 0.13,-0.035 0.04,-0.023 0.073,-0.056 0.095,-0.095zm-0.799 -1.236c0.001,-0.007 0.001,-0.014 0.001,-0.02 0,-0.093 -0.037,-0.18 -0.102,-0.246 -0.065,-0.065 -0.153,-0.101 -0.245,-0.101 -0.04,0 -0.08,0.007 -0.118,0.02 -0.037,0.014 -0.072,0.034 -0.103,0.059 -0.031,0.026 -0.077,0.022 -0.102,-0.009 -0.026,-0.031 -0.021,-0.077 0.009,-0.102 0.044,-0.036 0.094,-0.065 0.147,-0.084 0.054,-0.019 0.11,-0.029 0.167,-0.029 0.131,0 0.255,0.051 0.348,0.144 0.062,0.063 0.107,0.141 0.128,0.226 0.071,-0.048 0.154,-0.074 0.24,-0.074 0.054,0 0.106,0.01 0.156,0.029 0.05,0.02 0.095,0.048 0.134,0.085 0.029,0.027 0.031,0.073 0.004,0.102 -0.027,0.029 -0.073,0.031 -0.102,0.003 -0.026,-0.023 -0.056,-0.042 -0.089,-0.055 -0.032,-0.013 -0.067,-0.02 -0.103,-0.02 -0.066,0 -0.13,0.024 -0.181,0.067 -0.046,0.039 -0.085,0.107 -0.095,0.167 -0.007,0.039 -0.044,0.066 -0.084,0.059 -0.039,-0.006 -0.066,-0.043 -0.059,-0.083 0.008,-0.049 0.025,-0.095 0.049,-0.138zm-1.64 1.021c0.04,0.002 0.071,0.036 0.069,0.076 -0.002,0.04 -0.036,0.071 -0.076,0.069 -0.032,-0.002 -0.063,-0.007 -0.094,-0.015 -0.03,-0.009 -0.06,-0.02 -0.088,-0.034 -0.107,-0.055 -0.188,-0.15 -0.225,-0.265 -0.037,-0.114 -0.028,-0.238 0.027,-0.345 0.014,-0.028 0.031,-0.053 0.05,-0.077 0.019,-0.024 0.04,-0.046 0.063,-0.065 0.031,-0.026 0.077,-0.022 0.102,0.009 0.026,0.03 0.022,0.076 -0.009,0.102 -0.016,0.013 -0.03,0.028 -0.043,0.044 -0.013,0.016 -0.024,0.034 -0.034,0.052 -0.037,0.073 -0.044,0.158 -0.018,0.236 0.025,0.078 0.08,0.142 0.153,0.18 0.019,0.009 0.039,0.017 0.06,0.023 0.021,0.005 0.042,0.009 0.063,0.01zm-0.9 2.083c0.014,0.052 -0.016,0.104 -0.068,0.118 -0.051,0.014 -0.104,-0.017 -0.117,-0.068 -0.149,-0.55 -0.343,-1.16 -0.461,-1.708 -0.032,-0.12 -0.07,-0.207 -0.117,-0.259 -0.031,-0.036 -0.067,-0.051 -0.107,-0.041l-0.003 0.001c-0.01,0.002 -0.019,0.003 -0.029,0.002l0.533 2.052c0.014,0.051 -0.017,0.103 -0.068,0.117 -0.052,0.013 -0.104,-0.018 -0.117,-0.069l-0.613 -2.357c-0.043,-0.149 -0.136,-0.231 -0.231,-0.253 -0.036,-0.008 -0.073,-0.008 -0.107,0 -0.033,0.008 -0.064,0.023 -0.089,0.045 -0.063,0.057 -0.097,0.16 -0.064,0.308l0.001 0.007 0.001 0 0.405 2.668c0.03,0.199 0.077,0.384 0.153,0.552 0.074,0.166 0.176,0.318 0.318,0.452l0.98 0.93c0.056,0.053 0.104,0.117 0.132,0.187 0.026,0.067 0.035,0.138 0.017,0.213 -0.026,0.113 -0.055,0.227 -0.08,0.34 -0.003,0.015 0,0.031 0.007,0.045 0.005,0.009 0.012,0.016 0.018,0.018 0.467,0.104 0.949,0.19 1.419,0.283 0.043,0.008 0.068,0.006 0.081,-0.004 0.016,-0.012 0.026,-0.039 0.035,-0.075 0.057,-0.24 0.081,-0.673 0.096,-0.936 0.005,-0.099 0.009,-0.175 0.014,-0.21 0.026,-0.225 -0.007,-0.43 -0.083,-0.609 -0.084,-0.199 -0.22,-0.369 -0.385,-0.502 -0.115,-0.091 -0.259,-0.154 -0.402,-0.216 -0.118,-0.051 -0.236,-0.102 -0.345,-0.172l-0.002 -0.002 0 0 -0.559 -0.382c-0.07,-0.049 -0.141,-0.054 -0.199,-0.033 -0.03,0.011 -0.058,0.029 -0.08,0.051 -0.021,0.022 -0.036,0.048 -0.045,0.075 -0.012,0.041 -0.006,0.086 0.027,0.127l0.005 0.007 0 0 0.343 0.514 0.004 0.006c0.015,0.022 0.032,0.042 0.051,0.059 0.02,0.018 0.042,0.034 0.068,0.048l0.741 0.392c0.047,0.024 0.065,0.082 0.04,0.129 -0.025,0.047 -0.083,0.065 -0.13,0.041l-0.74 -0.392c-0.041,-0.022 -0.077,-0.047 -0.109,-0.076 -0.03,-0.027 -0.056,-0.058 -0.08,-0.093l-0.005 -0.007 -0.342 -0.514c-0.073,-0.093 -0.086,-0.2 -0.057,-0.296 0.017,-0.057 0.049,-0.11 0.092,-0.154 0.042,-0.043 0.094,-0.077 0.153,-0.099 0.112,-0.039 0.246,-0.031 0.373,0.057l0.557 0.382c0.094,0.06 0.205,0.108 0.316,0.156 0.155,0.067 0.31,0.135 0.445,0.243 0.189,0.151 0.345,0.346 0.442,0.577 0.088,0.209 0.127,0.446 0.097,0.704 -0.004,0.034 -0.008,0.105 -0.014,0.199 -0.015,0.271 -0.039,0.716 -0.1,0.97 -0.018,0.076 -0.049,0.139 -0.104,0.182 -0.058,0.045 -0.133,0.062 -0.235,0.042 -0.458,-0.091 -0.981,-0.171 -1.426,-0.284 -0.065,-0.015 -0.115,-0.06 -0.145,-0.117l0 0c-0.026,-0.051 -0.037,-0.114 -0.026,-0.17 0.021,-0.114 0.055,-0.235 0.082,-0.348 0.008,-0.033 0.004,-0.067 -0.009,-0.098 -0.017,-0.043 -0.048,-0.084 -0.086,-0.119l-0.979 -0.93c-0.161,-0.152 -0.277,-0.324 -0.362,-0.513 -0.083,-0.187 -0.135,-0.388 -0.167,-0.602l-0.406 -2.668c-0.048,-0.222 0.015,-0.388 0.126,-0.486 0.05,-0.044 0.109,-0.074 0.172,-0.089 0.062,-0.015 0.129,-0.015 0.194,0 0.158,0.036 0.309,0.162 0.373,0.388l0.034 0.132c0.009,-0.005 0.018,-0.009 0.028,-0.012l0.004 -0.001c0.116,-0.028 0.215,0.008 0.297,0.101 0.066,0.074 0.119,0.189 0.158,0.337l0.002 0.008 0.005 0.017 0.454 1.682z"/>
 </g>
</svg>
