<?xml version="1.0" encoding="utf-8"?>
<!-- Generator: Adobe Illustrator 24.0.0, SVG Export Plug-In . SVG Version: 6.00 Build 0)  -->
<svg version="1.1" id="Layer_1" xmlns="http://www.w3.org/2000/svg" xmlns:xlink="http://www.w3.org/1999/xlink" x="0px" y="0px"
	 viewBox="0 0 580 404" style="enable-background:new 0 0 580 404;" xml:space="preserve">
<g>
	<g>
		<g>
			<g>
				<g>
					<g>
						<g>
							<path d="M171.92,305.82c-2.2,0-4.21-0.9-6.02-2.7c-1.81-1.8-3.26-4.31-4.34-7.53c-1.08-3.22-1.62-6.98-1.62-11.28
								c0-4.32,0.54-8.09,1.62-11.32c1.08-3.22,2.52-5.73,4.34-7.53c1.81-1.8,3.82-2.7,6.02-2.7c2.22,0,4.23,0.9,6.04,2.7
								c1.8,1.8,3.25,4.31,4.34,7.53c1.09,3.22,1.63,6.99,1.63,11.32c0,4.3-0.54,8.06-1.63,11.28c-1.09,3.22-2.54,5.73-4.34,7.53
								C176.16,304.92,174.14,305.82,171.92,305.82z M171.92,303.14c1.83,0,3.34-1.71,4.54-5.14c1.2-3.43,1.8-7.99,1.8-13.69
								c0-5.72-0.6-10.29-1.8-13.7c-1.2-3.42-2.71-5.12-4.54-5.12c-1.8,0-3.31,1.71-4.52,5.12c-1.21,3.42-1.81,7.98-1.81,13.7
								c0,5.69,0.6,10.26,1.81,13.69C168.61,301.43,170.12,303.14,171.92,303.14z"/>
						</g>
					</g>
				</g>
			</g>
		</g>
		<g>
			<g>
				<g>
					<g>
						<g>
							<path d="M212.74,305.47h-7.99c1.61-1.03,2.41-2.1,2.41-3.18c0-0.83-0.3-1.89-0.89-3.18l-12.9-27.18v28.54
								c0,1.16,0.21,2.14,0.64,2.93c0.43,0.79,1.09,1.48,2,2.08h-7.66c1.74-1.16,2.61-2.76,2.61-4.78v-32.53
								c0-1.19-0.21-2.18-0.63-2.97c-0.42-0.79-1.08-1.48-1.98-2.08h7.06l12.08,25.7v-20.69c0-1.19-0.23-2.18-0.68-2.97
								c-0.45-0.79-1.14-1.47-2.06-2.04h7.99c-1.83,1.16-2.74,2.82-2.74,4.97v31.95c0,1.32,0.19,2.39,0.58,3.2
								C210.97,304.05,211.69,304.8,212.74,305.47z"/>
						</g>
					</g>
				</g>
			</g>
		</g>
		<g>
			<g>
				<g>
					<g>
						<g>
							<path d="M249.17,305.47h-10.66c1.76-1.01,2.64-2.48,2.64-4.43v-16.89c-4.55-11.93-7.09-18.38-7.62-19.33
								c-0.37-0.62-0.95-1.19-1.72-1.71h9.74c-1.12,0.72-1.68,1.36-1.68,1.9c0,0.39,0.15,0.97,0.46,1.75l5.02,12.89l2.84-6.87
								c2.02-4.79,3.04-7.36,3.04-7.73c0-0.6-0.54-1.24-1.62-1.94h6.3c-0.77,0.52-1.36,1.12-1.77,1.81
								c-0.41,0.69-0.79,1.46-1.14,2.31l-6.44,15.57v18.21C246.57,302.97,247.44,304.46,249.17,305.47z"/>
						</g>
					</g>
				</g>
			</g>
		</g>
		<g>
			<g>
				<g>
					<g>
						<g>
							<path d="M267.72,305.82c-2.2,0-4.21-0.9-6.02-2.7c-1.81-1.8-3.26-4.31-4.34-7.53c-1.08-3.22-1.62-6.98-1.62-11.28
								c0-4.32,0.54-8.09,1.62-11.32c1.08-3.22,2.52-5.73,4.34-7.53c1.81-1.8,3.82-2.7,6.02-2.7c2.22,0,4.23,0.9,6.04,2.7
								c1.8,1.8,3.25,4.31,4.34,7.53c1.09,3.22,1.63,6.99,1.63,11.32c0,4.3-0.54,8.06-1.63,11.28c-1.09,3.22-2.54,5.73-4.34,7.53
								C271.96,304.92,269.94,305.82,267.72,305.82z M267.72,303.14c1.83,0,3.34-1.71,4.54-5.14c1.2-3.43,1.8-7.99,1.8-13.69
								c0-5.72-0.6-10.29-1.8-13.7c-1.2-3.42-2.71-5.12-4.54-5.12c-1.8,0-3.31,1.71-4.52,5.12c-1.21,3.42-1.81,7.98-1.81,13.7
								c0,5.69,0.6,10.26,1.81,13.69C264.41,301.43,265.92,303.14,267.72,303.14z"/>
						</g>
					</g>
				</g>
			</g>
		</g>
		<g>
			<g>
				<g>
					<g>
						<g>
							<path d="M295.61,305.82c-1.74,0-3.3-0.49-4.69-1.48c-1.39-0.98-2.48-2.46-3.28-4.43c-0.8-1.97-1.2-4.43-1.2-7.38v-23.84
								c0-1.32-0.18-2.41-0.53-3.26c-0.35-0.85-1.06-1.63-2.11-2.33h10.66c-1.1,0.72-1.81,1.52-2.13,2.39
								c-0.32,0.87-0.48,1.99-0.48,3.36v23.72c0,3.31,0.43,5.77,1.29,7.36c0.86,1.59,2.03,2.39,3.53,2.39
								c1.47,0,2.74-0.83,3.81-2.48c1.07-1.66,1.6-4.08,1.6-7.26v-24.23c0-2.48-0.88-4.23-2.64-5.24h7.69
								c-1.01,0.67-1.71,1.42-2.08,2.25c-0.37,0.83-0.56,1.88-0.56,3.14v24.11c0,2.93-0.38,5.36-1.14,7.32
								c-0.76,1.95-1.8,3.42-3.13,4.41C298.88,305.33,297.34,305.82,295.61,305.82z"/>
						</g>
					</g>
				</g>
			</g>
		</g>
		<g>
			<g>
				<g>
					<g>
						<g>
							<path d="M331.38,306.02c-1.39,0-2.43-0.51-3.12-1.53c-0.69-1.02-1.2-2.32-1.53-3.9c-0.33-1.58-0.58-3.22-0.76-4.93
								c-0.26-2.38-0.67-4.45-1.2-6.21c-0.54-1.76-1.56-2.68-3.05-2.76l-1.25-0.04v13.55c0,2.51,0.88,4.27,2.64,5.28h-10.66
								c1.76-1.01,2.64-2.73,2.64-5.16v-32.88c0-1.84-0.88-3.27-2.64-4.31h8.94c2.22,0,4.16,0.46,5.82,1.38
								c1.66,0.92,2.96,2.28,3.91,4.08c0.95,1.8,1.42,4.01,1.42,6.62c0,5.23-1.91,8.79-5.74,10.68c1.56,0.85,2.62,2.19,3.18,4
								c0.56,1.81,0.96,3.76,1.19,5.84c0.23,2.08,0.62,3.95,1.17,5.59c0.55,1.64,1.61,2.69,3.17,3.13
								C334.45,305.48,333.07,306.02,331.38,306.02z M320.46,284.66c1.76-0.03,3.12-0.45,4.09-1.26c0.97-0.82,1.64-1.93,2.01-3.36
								c0.37-1.42,0.56-3.04,0.56-4.85c0-1.79-0.19-3.42-0.58-4.89c-0.39-1.48-1.06-2.65-2.03-3.53c-0.97-0.88-2.32-1.33-4.06-1.36
								V284.66z"/>
						</g>
					</g>
				</g>
			</g>
		</g>
		<g>
			<g>
				<g>
					<g>
						<g>
							<path d="M344.51,305.82c-1.94,0-3.81-0.37-5.61-1.13l-0.63-4.81c0.88,1.16,1.91,2.01,3.09,2.52
								c1.18,0.52,2.28,0.78,3.32,0.78c1.43,0,2.61-0.61,3.55-1.84c0.93-1.23,1.4-2.92,1.4-5.07c0-1.55-0.26-2.94-0.78-4.17
								c-0.52-1.23-1.18-2.38-1.98-3.46c-0.8-1.07-1.67-2.13-2.59-3.16c-0.99-1.11-1.94-2.28-2.85-3.49
								c-0.91-1.22-1.67-2.58-2.26-4.08c-0.59-1.5-0.89-3.22-0.89-5.16c0-4.17,1.51-7.08,4.52-8.74c1.47-0.83,3.09-1.24,4.85-1.24
								c1.83,0,3.72,0.45,5.68,1.36l0.63,4.78c-1.65-2.23-3.51-3.34-5.58-3.34c-1.74,0-3.09,0.66-4.06,1.98
								c-0.84,1.14-1.25,2.68-1.25,4.62c0,1.19,0.24,2.29,0.71,3.3c0.47,1.01,1.09,1.99,1.85,2.93c0.76,0.95,1.58,1.9,2.46,2.85
								c1.08,1.16,2.13,2.41,3.15,3.73s1.87,2.79,2.54,4.41c0.67,1.62,1.01,3.46,1.01,5.53c0,3.86-1.08,6.73-3.23,8.62
								C349.78,305.06,347.44,305.82,344.51,305.82z"/>
						</g>
					</g>
				</g>
			</g>
		</g>
		<g>
			<g>
				<g>
					<g>
						<g>
							<path d="M376.19,305.47h-18.25c1.76-1.16,2.64-2.78,2.64-4.85v-32.61c0-2.1-0.88-3.73-2.64-4.89h18.25v5.75
								c-1.1-2.3-2.5-3.46-4.19-3.46H366v15.22h3.6c1.5,0,2.78-1.14,3.86-3.42v8.85c-1.08-2.28-2.32-3.42-3.73-3.42H366v20.54h6.14
								c1.61,0,2.96-1.15,4.06-3.46V305.47z"/>
						</g>
					</g>
				</g>
			</g>
		</g>
		<g>
			<g>
				<g>
					<g>
						<g>
							<path d="M383.49,268.82c0-1.37-0.17-2.48-0.5-3.34c-0.33-0.85-1.03-1.64-2.11-2.37h10.66c-1.14,0.75-1.87,1.57-2.18,2.47
								c-0.31,0.89-0.46,2.04-0.46,3.44v34.16h5.78c1.03,0,1.89-0.29,2.57-0.87c0.68-0.58,1.3-1.44,1.85-2.58v5.75h-18.22
								c1.74-1.16,2.61-2.76,2.61-4.78V268.82z"/>
						</g>
					</g>
				</g>
			</g>
		</g>
		<g>
			<g>
				<g>
					<g>
						<g>
							<path d="M412.03,305.47h-10.66c1.01-0.67,1.7-1.42,2.08-2.25c0.37-0.83,0.56-1.88,0.56-3.14v-32.07
								c0-2.1-0.88-3.73-2.64-4.89h18.22v5.75c-1.08-2.3-2.48-3.46-4.19-3.46h-6.01v15.22h4.16c1.5,0,2.78-1.14,3.86-3.42v8.85
								c-1.08-2.28-2.32-3.42-3.73-3.42h-4.29v17.39c0,1.29,0.19,2.36,0.56,3.18C410.33,304.05,411.02,304.8,412.03,305.47z"/>
						</g>
					</g>
				</g>
			</g>
		</g>
	</g>
	<g>
		<g>
			<g>
				<g>
					<g>
						<g>
							<path d="M162.5,192.06c-0.67,0-1.25-0.24-1.72-0.72c-0.48-0.48-0.72-1.05-0.72-1.72V142.8c0-0.67,0.24-1.24,0.72-1.72
								c0.48-0.43,1.05-0.65,1.72-0.65h14.43c4.79,0,8.86,1.56,12.21,4.67c3.4,3.11,5.1,6.89,5.1,11.35v19.53
								c0,4.4-1.7,8.19-5.1,11.35c-3.35,3.11-7.42,4.67-12.21,4.67L162.5,192.06z M164.87,187.25l12.06-0.07
								c3.45,0,6.39-1.1,8.83-3.3c2.39-2.2,3.59-4.83,3.59-7.9v-19.53c0-3.11-1.2-5.74-3.59-7.9c-2.44-2.2-5.39-3.3-8.83-3.3h-12.06
								V187.25z"/>
						</g>
					</g>
				</g>
			</g>
		</g>
		<g>
			<g>
				<g>
					<g>
						<g>
							<path d="M216.71,192.06c-4.79,0-8.88-1.58-12.28-4.74c-3.4-3.11-5.1-6.89-5.1-11.35V156.3c0-4.45,1.7-8.23,5.1-11.35
								c3.4-3.16,7.49-4.74,12.28-4.74c4.79,0,8.86,1.58,12.21,4.74c3.4,3.11,5.1,6.89,5.1,11.35v19.68c0,4.45-1.7,8.23-5.1,11.35
								C225.57,190.48,221.5,192.06,216.71,192.06z M204.22,175.98c0,3.11,1.22,5.74,3.66,7.9c2.44,2.2,5.39,3.3,8.83,3.3
								c3.45,0,6.39-1.1,8.83-3.3c2.44-2.15,3.66-4.79,3.66-7.9V156.3c0-3.11-1.22-5.77-3.66-7.97c-2.44-2.15-5.39-3.23-8.83-3.23
								c-3.45,0-6.39,1.08-8.83,3.23c-2.44,2.2-3.66,4.86-3.66,7.97V175.98z"/>
						</g>
					</g>
				</g>
			</g>
		</g>
		<g>
			<g>
				<g>
					<g>
						<g>
							<path d="M244.5,189.62c0,0.67-0.22,1.25-0.65,1.72c-0.48,0.48-1.05,0.72-1.72,0.72c-0.67,0-1.25-0.24-1.72-0.72
								c-0.48-0.48-0.72-1.05-0.72-1.72v-46.89c0-1.2,0.57-1.96,1.72-2.3c1.2-0.33,2.11,0,2.73,1.01l25.2,39.85v-38.56
								c0-0.67,0.24-1.24,0.72-1.72c0.48-0.43,1.05-0.65,1.72-0.65c0.67,0,1.24,0.22,1.72,0.65c0.48,0.48,0.72,1.05,0.72,1.72v46.89
								c0,1.25-0.6,2.04-1.8,2.37l-0.65,0.07c-0.91,0-1.6-0.38-2.08-1.15l-25.2-39.78V189.62z"/>
						</g>
					</g>
				</g>
			</g>
		</g>
		<g>
			<g>
				<g>
					<g>
						<g>
							<path d="M284.57,139.21c0.86,0.34,1.48,0.91,1.87,1.72c0.38,0.81,0.43,1.65,0.14,2.51c-0.1,0.34-0.26,0.62-0.5,0.86
								l-4.6,6.18c-0.86,1.1-1.84,1.22-2.94,0.36c-0.81-0.57-1.05-1.36-0.72-2.37l2.59-7.18c0.29-0.86,0.84-1.51,1.65-1.94
								C282.87,138.97,283.71,138.92,284.57,139.21z"/>
						</g>
					</g>
				</g>
			</g>
		</g>
		<g>
			<g>
				<g>
					<g>
						<g>
							<path d="M292.04,145.24c-0.67,0-1.25-0.24-1.72-0.72c-0.48-0.48-0.72-1.05-0.72-1.72c0-0.67,0.24-1.24,0.72-1.72
								c0.48-0.43,1.05-0.65,1.72-0.65h12.21v-2.37c0-0.67,0.24-1.24,0.72-1.72c0.43-0.48,0.98-0.72,1.65-0.72
								c0.67,0,1.24,0.24,1.72,0.72c0.48,0.48,0.72,1.05,0.72,1.72v2.37h12.21c0.67,0,1.24,0.22,1.72,0.65
								c0.48,0.48,0.72,1.05,0.72,1.72c0,0.67-0.24,1.25-0.72,1.72c-0.48,0.48-1.05,0.72-1.72,0.72h-12.21v44.38
								c0,0.67-0.24,1.25-0.72,1.72c-0.48,0.48-1.05,0.72-1.72,0.72c-0.67,0-1.22-0.24-1.65-0.72c-0.48-0.48-0.72-1.05-0.72-1.72
								v-44.38H292.04z"/>
						</g>
					</g>
				</g>
			</g>
		</g>
		<g>
			<g>
				<g>
					<g>
						<g>
							<path d="M346.18,164.34c-0.67,0-1.25-0.24-1.72-0.72c-0.48-0.48-0.72-1.05-0.72-1.72c0-0.67,0.24-1.22,0.72-1.65
								c0.48-0.48,1.05-0.72,1.72-0.72h2.37v-16.59c0-0.67,0.24-1.24,0.72-1.72c0.43-0.43,0.98-0.65,1.65-0.65h8.55
								c3.49,0,6.49,1.15,8.98,3.45c2.49,2.35,3.73,5.15,3.73,8.4c0,2.87-0.96,5.41-2.87,7.61c3.92,0.81,7.16,2.68,9.69,5.6
								c2.59,2.97,3.88,6.34,3.88,10.12c0,4.45-1.72,8.26-5.17,11.42c-3.4,3.16-7.49,4.74-12.28,4.74l-14.43,0.14h-0.07
								c-1.58,0-2.37-0.79-2.37-2.37v-25.35H346.18z M353.36,159.53h6.39c2.15-0.1,3.97-0.81,5.46-2.15
								c1.44-1.39,2.15-3.04,2.15-4.95c0-1.91-0.77-3.57-2.3-4.95c-1.58-1.39-3.45-2.08-5.6-2.08h-6.1V159.53z M378.06,175.76
								c0-3.11-1.25-5.77-3.73-7.97c-2.44-2.25-5.41-3.37-8.9-3.37l-5.6-0.07h-0.07h-6.39v22.91l12.06-0.14c3.45,0,6.41-1.1,8.9-3.3
								C376.82,181.6,378.06,178.92,378.06,175.76z"/>
						</g>
					</g>
				</g>
			</g>
		</g>
		<g>
			<g>
				<g>
					<g>
						<g>
							<path d="M387.47,164.2c-0.67,0-1.25-0.22-1.72-0.65c-0.48-0.48-0.72-1.05-0.72-1.72c0-0.67,0.24-1.24,0.72-1.72
								c0.48-0.48,1.05-0.72,1.72-0.72h2.37v-16.66c0-0.67,0.22-1.24,0.65-1.72c0.48-0.43,1.05-0.65,1.72-0.65h25.35
								c0.67,0,1.24,0.22,1.72,0.65c0.48,0.48,0.72,1.05,0.72,1.72c0,0.67-0.24,1.25-0.72,1.72c-0.48,0.48-1.05,0.72-1.72,0.72
								h-22.91v14.22h12.06c0.67,0,1.24,0.24,1.72,0.72c0.48,0.48,0.72,1.05,0.72,1.72c0,0.67-0.24,1.25-0.72,1.72
								c-0.48,0.43-1.05,0.65-1.72,0.65h-12.06v23.05l22.91-0.07c0.67,0,1.24,0.24,1.72,0.72c0.48,0.43,0.72,0.98,0.72,1.65
								c0,0.67-0.24,1.25-0.72,1.72c-0.48,0.48-1.03,0.72-1.65,0.72l-25.42,0.07c-0.67,0-1.22-0.24-1.65-0.72
								c-0.48-0.48-0.72-1.05-0.72-1.72V164.2H387.47z"/>
						</g>
					</g>
				</g>
			</g>
		</g>
	</g>
	<g>
		<g>
			<g>
				<g>
					<g>
						<g>
							<path d="M210.49,255.18c-1,0-1.95-0.19-2.85-0.57c-2.66-1.14-3.99-3.25-3.99-6.34c0-0.66,0.07-1.35,0.21-2.07
								c0.55-2.52,3.51-5.44,8.9-8.76c-2.8-2.92-4.7-4.96-5.7-6.13c-2.4-2.75-3.6-5.25-3.6-7.48c0-2.23,0.46-4.06,1.37-5.48
								c0.91-1.42,1.99-2.46,3.22-3.1c1-0.5,1.96-0.75,2.88-0.75c1.16,0,2.11,0.39,2.85,1.18c0.57,0.59,0.85,1.39,0.85,2.39
								c0,2.9-1.4,5.18-4.2,6.84c-0.81,0.48-1.72,0.85-2.74,1.14c0.52,1.38,1.35,2.73,2.49,4.06c0.66,0.81,2.4,2.68,5.2,5.63
								c2.52-1.52,4.85-3.1,7-4.75c2.15-1.65,3.7-3.41,4.65-5.29c0.09-0.19,0.26-0.28,0.5-0.28c0.31,0,0.46,0.15,0.46,0.46
								l-0.04,0.14c-1,2.07-2.58,3.94-4.75,5.63c-2.17,1.69-4.54,3.31-7.1,4.88c1.26,1.33,2.31,2.68,3.17,4.06
								c0.85,1.38,1.28,2.8,1.28,4.27c0,2.35-0.58,4.33-1.75,5.95C216.69,253.72,213.91,255.18,210.49,255.18z M209.1,253.62
								c2.18,0,4.06-0.95,5.63-2.85c1.35-1.66,2.03-3.63,2.03-5.91c0-1.9-1.1-4.12-3.31-6.66c-2.78,1.73-5.02,3.5-6.73,5.31
								c-1.4,1.5-2.1,3.13-2.1,4.91c0,1.33,0.49,2.58,1.46,3.74C206.86,253.13,207.87,253.62,209.1,253.62z M207.43,225.06
								c0.95-0.24,1.79-0.58,2.53-1.03c2.37-1.42,3.56-3.28,3.56-5.56c0-1.57-0.46-2.35-1.39-2.35c-0.57,0-1.16,0.24-1.78,0.71
								c-2.02,1.64-3.03,3.98-3.03,7.02C207.32,224.25,207.36,224.65,207.43,225.06z"/>
						</g>
					</g>
				</g>
			</g>
		</g>
		<g>
			<g>
				<g>
					<g>
						<g>
							<path d="M233,241.76c-1.78,0-3.23-0.55-4.34-1.64c-1.92-1.85-2.88-4.57-2.88-8.16c0-3.23,0.83-6.05,2.49-8.48
								c0.95-1.35,2.16-2.31,3.63-2.88c0.69-0.28,1.44-0.43,2.24-0.43c0.88,0,1.82,0.17,2.81,0.5c0.24,0.07,0.36,0.23,0.36,0.46
								c0,0.33-0.2,0.5-0.61,0.5c-0.33-0.07-0.63-0.11-0.89-0.11c-0.93,0-1.85,0.45-2.78,1.34c-0.93,0.89-1.63,1.85-2.1,2.87
								c-0.9,1.99-1.35,4.08-1.35,6.27c0,1.95,0.36,3.7,1.07,5.27c0.9,1.95,2.16,2.92,3.77,2.92c1,0,1.9-0.4,2.71-1.21
								c0.47-0.5,0.89-1.06,1.25-1.67c-0.93-0.21-1.66-0.69-2.21-1.42c-0.95-1.26-1.42-2.99-1.42-5.2c0-2.23,0.4-4,1.21-5.31
								c0.47-0.74,1.04-1.1,1.71-1.1c0.69,0,1.28,0.38,1.78,1.14c0.88,1.31,1.32,3.13,1.32,5.48c0,1.92-0.27,3.7-0.82,5.34
								c2.18-0.81,4.69-4.31,7.51-10.51c0.09-0.21,0.24-0.32,0.43-0.32c0.31,0,0.46,0.15,0.46,0.46l-0.04,0.14
								c-1.23,2.9-2.57,5.44-4.01,7.64c-1.44,2.2-3.04,3.42-4.83,3.69C238.15,240.29,235.99,241.76,233,241.76z M238.8,236.35
								c0.64-1.57,0.96-3.28,0.96-5.13c0-1.33-0.18-2.62-0.53-3.88c-0.4-1.38-0.88-2.07-1.42-2.07c-0.4,0-0.71,0.57-0.93,1.71
								c-0.19,1-0.28,2.12-0.28,3.38c0,1.59,0.18,2.99,0.55,4.18C237.52,235.75,238.07,236.35,238.8,236.35z"/>
						</g>
					</g>
				</g>
			</g>
		</g>
		<g>
			<g>
				<g>
					<g>
						<g>
							<path d="M283,251.09c-0.69,0-1.3-0.33-1.83-0.98c-0.53-0.65-0.8-1.8-0.8-3.44c0-1.78,0.38-4.69,1.14-8.72
								c0.83-4.56,1.25-7.88,1.25-9.97c0-3.11-0.67-4.67-1.99-4.67c-0.76,0-1.53,0.49-2.31,1.46c-1.69,2.11-3.13,5.12-4.34,9.01
								c-0.74,2.35-1.22,4.44-1.46,6.27c-0.05,0.36-0.55,0.53-1.5,0.53c-1.5,0-2.46-0.72-2.88-2.17
								c-2.02-6.55-3.03-12.61-3.03-18.16c0-4.18,0.66-8.11,1.99-11.79c0.74-2.04,1.67-3.62,2.81-4.74c1.45-1.42,3-2.14,4.67-2.14
								c1.76,0,3.12,0.82,4.1,2.46c0.59,1.02,0.89,2.31,0.89,3.88c0,2.02-0.62,4.29-1.85,6.8c-1.85,3.8-4.7,7.11-8.55,9.94
								c0.4,4.23,1.31,8.59,2.71,13.11c0.74-3.73,2.07-7.39,4.01-10.99c1.93-3.6,3.98-5.4,6.14-5.4c2.97,0,4.45,2.18,4.45,6.55
								c0,2.21-0.43,5.6-1.28,10.18c-0.74,3.85-1.1,6.52-1.1,8.01c0,1.35,0.24,2.03,0.71,2.03c1.73,0,5.59-7.48,11.57-22.44
								c0.09-0.19,0.24-0.28,0.43-0.28c0.38,0,0.57,0.14,0.57,0.43l-0.04,0.11c-1.61,4.34-3.82,9.46-6.62,15.35
								c-2.09,4.39-4.11,7.41-6.05,9.05C284.21,250.85,283.62,251.09,283,251.09z M269.18,223.49c3.51-2.78,6.09-5.85,7.73-9.22
								c1.19-2.4,1.78-4.53,1.78-6.41c0-1.35-0.28-2.46-0.85-3.31c-0.45-0.71-1.04-1.07-1.78-1.07c-2.07,0-3.75,1.79-5.04,5.36
								c-1.29,3.57-1.94,7.4-1.94,11.48c0,1,0.04,2.01,0.11,3.03V223.49z"/>
						</g>
					</g>
				</g>
			</g>
		</g>
		<g>
			<g>
				<g>
					<g>
						<g>
							<path d="M309.53,245.64c-2.47,0-3.7-2.44-3.7-7.34c0-1.26,0.06-2.43,0.18-3.53c-1.88,2.02-3.76,3.03-5.66,3.03
								c-1.33,0-2.46-0.45-3.38-1.35c-1.35-1.28-2.03-3.04-2.03-5.27c0-2.68,0.89-4.99,2.67-6.91c1.09-1.16,2.5-1.95,4.24-2.35
								c0.57-0.12,1.16-0.18,1.78-0.18c1.31,0,2.75,0.26,4.34,0.78l0.39-1.92c0.07-0.33,0.4-0.5,1-0.5c0.78,0,1.41,0.2,1.89,0.61
								c0.38,0.31,0.57,0.72,0.57,1.25l-0.04,0.32c-1.4,6.62-2.1,11.89-2.1,15.81c0,3.35,0.5,5.02,1.5,5.02
								c0.9,0,1.88-0.75,2.92-2.24c2.21-3.18,4.89-8.24,8.05-15.17c0.09-0.17,0.23-0.25,0.39-0.25c0.38,0,0.57,0.15,0.57,0.46
								c0,0.07-0.02,0.14-0.07,0.21c-2.3,5.08-4.58,9.51-6.84,13.28C313.67,243.56,311.45,245.64,309.53,245.64z M301.73,235.71
								c2.73-0.21,4.43-2.5,5.09-6.87c0.31-2.02,0.62-3.79,0.93-5.31c-0.88-0.31-1.72-0.46-2.53-0.46c-2.02,0-3.69,1.03-5.02,3.1
								c-0.95,1.52-1.42,3.17-1.42,4.95c0,1.02,0.2,1.97,0.61,2.85c0.55,1.16,1.27,1.75,2.17,1.75H301.73z"/>
						</g>
					</g>
				</g>
			</g>
		</g>
		<g>
			<g>
				<g>
					<g>
						<g>
							<path d="M329.12,248.88c-1.78,0-2.67-1.5-2.67-4.49c0-0.43,0.02-0.88,0.07-1.35c0.36-3.37,1.04-6.87,2.07-10.51
								c0.52-1.9,0.78-3.5,0.78-4.81c0-2.83-1.12-4.57-3.35-5.23c-0.52-0.14-1.04-0.32-1.57-0.53c-0.81,2.99-1.42,4.49-1.85,4.49
								c-0.33,0-0.5-0.15-0.5-0.46l0.04-0.18c0.38-0.9,0.83-2.31,1.35-4.24c-1.47-0.59-2.79-1.45-3.95-2.56
								c-0.66-0.62-1-1.28-1-1.99c0-0.81,0.31-1.54,0.93-2.21c0.74-0.78,1.56-1.18,2.46-1.18c0.55,0,1.01,0.1,1.39,0.28
								c1.19,0.59,1.78,1.88,1.78,3.85c0,1-0.13,2.07-0.39,3.21l1.96,0.68c2.42,0.83,4.12,1.79,5.09,2.88
								c0.88,0.97,1.32,2.34,1.32,4.1c0,1.14-0.23,2.54-0.68,4.2c-1.35,4.87-2.03,8.77-2.03,11.72c0,0.97,0.26,1.46,0.78,1.46
								c1.54,0,5.15-6.16,10.83-18.48l0.85-1.82c0.07-0.19,0.23-0.28,0.46-0.28c0.31,0,0.46,0.15,0.46,0.46
								c0,0.17-0.28,0.85-0.85,2.07c-2.83,6.13-5.18,10.8-7.05,14.03C333.14,246.58,330.9,248.88,329.12,248.88z M323.74,220.57
								c0.21-1,0.32-1.93,0.32-2.81c0-0.74-0.11-1.38-0.34-1.92c-0.23-0.55-0.52-0.82-0.87-0.82c-0.26,0-0.51,0.11-0.75,0.32
								c-0.52,0.45-0.78,1.15-0.78,2.1C321.32,218.69,322.12,219.74,323.74,220.57z"/>
						</g>
					</g>
				</g>
			</g>
		</g>
		<g>
			<g>
				<g>
					<g>
						<g>
							<path d="M362.06,249.91c-1.4,0-2.55-1.02-3.45-3.06c-1.54-3.54-2.31-8.71-2.31-15.53c-0.62,1.76-1.37,3.25-2.24,4.49
								c-1.92,2.73-4.12,4.1-6.59,4.1c-1.54,0-2.8-0.43-3.77-1.28c-1.73-1.47-2.6-3.61-2.6-6.41c0-1.73,0.32-3.37,0.96-4.91
								c1.71-4.25,4.96-6.37,9.76-6.37c1.59,0,3.25,0.34,4.99,1.03c0.55-4.39,1.35-8.14,2.42-11.25c2.07-6.01,4.88-9.01,8.44-9.01
								c0.88,0,1.69,0.2,2.42,0.61c1.52,0.85,2.28,2.41,2.28,4.67c0,2.21-0.87,4.81-2.6,7.8c-2.18,3.75-5.31,7.03-9.37,9.83
								c-0.17,2.35-0.25,4.58-0.25,6.7c0,5.06,0.52,9.41,1.57,13.07c0.45,1.59,1.12,2.39,1.99,2.39c0.9,0,1.79-0.65,2.67-1.96
								c0.71-1.09,1.44-2.34,2.17-3.74c2.61-5.01,4.96-10.11,7.05-15.31c0.09-0.21,0.26-0.32,0.5-0.32c0.36,0,0.53,0.17,0.53,0.5
								l-0.04,0.21c-2.14,5.22-4.54,10.35-7.19,15.38C366.42,247.11,363.98,249.91,362.06,249.91z M348.95,237.95
								c1.78,0,3.47-1.66,5.06-4.99c1.35-2.8,2.16-5.39,2.42-7.76l0.25-2.21c-1.5-0.57-2.86-0.85-4.1-0.85
								c-0.64,0-1.5,0.15-2.58,0.46c-1.08,0.31-2.25,1.57-3.51,3.77c-1.04,1.85-1.57,3.76-1.57,5.73c0,1.26,0.21,2.42,0.64,3.49
								C346.23,237.17,347.36,237.95,348.95,237.95z M360.49,223.28c3.61-2.64,6.4-5.64,8.37-9.01c1.66-2.83,2.49-5.26,2.49-7.3
								c0-0.95-0.18-1.76-0.55-2.42c-0.37-0.66-0.87-1.01-1.51-1.03c-0.64,0-1.28,0.19-1.92,0.57c-0.64,0.38-1.15,0.81-1.53,1.28
								C363.08,209.02,361.3,214.99,360.49,223.28z"/>
						</g>
					</g>
				</g>
			</g>
		</g>
	</g>
	<g>
		<g>
			<g>
				<g>
					<g>
						<g>
							<g>
								<g>
									<path d="M187.64,223.74c0.14,0.46,0.11,0.97,0.29,1.44c0.07,0.19,0.19,0.4,0.39,0.4c0.2,0.01,0.33-0.19,0.42-0.36
										c0.49-0.97,0.75-2.06,0.74-3.15c0-0.2-0.02-0.41-0.15-0.56c-0.13-0.15-0.35-0.2-0.55-0.23c-1.15-0.16-2.34,0.01-3.4,0.46
										c-0.08,0.04-0.17,0.08-0.22,0.15c-0.08,0.11-0.05,0.27,0.03,0.39c0.13,0.17,0.37,0.3,0.57,0.36
										c0.14,0.04,0.54,0.12,0.61,0.27c0.1,0.2-0.33,0.47-0.45,0.59c-0.23,0.23-0.47,0.45-0.71,0.67
										c-0.42,0.38-0.84,0.74-1.28,1.1c-0.18,0.15-0.36,0.29-0.53,0.44c-0.06,0.06-0.61,0.46-0.59,0.51
										c-0.08-0.24-0.12-0.4-0.18-0.55c-0.55-1.42-1.23-1.87-2.75-1.86c-1.36,0.01-2.5,0.53-3.53,1.39
										c-0.78,0.65-1.44,1.42-2.01,2.25c-0.26,0.38-0.52,0.77-0.75,1.18c-0.21,0.37-0.38,0.76-0.61,1.13
										c-0.05,0.09-0.16,0.21-0.26,0.11c-0.1-0.1-0.12-0.33-0.17-0.46c-0.07-0.19-0.14-0.38-0.22-0.57
										c-0.14-0.36-0.28-0.72-0.42-1.07c-0.29-0.69-0.62-1.37-1.08-1.97c-0.57-0.75-1.31-1.14-2.27-1.07
										c-0.25,0.02-0.5,0.03-0.75,0.07c-1.09,0.17-1.63,0.66-1.81,1.76c-0.1,0.61-0.12,1.25-0.11,1.87
										c0.02,2.06,0.37,4.06,0.97,6.03c0.48,1.6,1.16,3.12,1.93,4.61c0.16,0.32,0.12,0.54-0.15,0.76c-0.84,0.69-1.7,1.35-2.5,2.08
										c-0.92,0.83-1.81,1.69-2.71,2.54c-0.11,0.1-0.24,0.17-0.38,0.19l-2.12,0.39c-0.33,0.06-0.34,0.53-0.01,0.6l1.37,0.29
										c0.21,0.04,0.39,0.17,0.5,0.35l0.62,1.02c0.15,0.25,0.55,0.15,0.55-0.15v-1.54c0-0.23,0.1-0.45,0.28-0.6
										c0.39-0.33,0.78-0.66,1.15-1.02c1.08-1.04,2.24-2,3.4-2.95c0.74-0.6,0.78-0.65,1.33,0.13c0.28,0.41,0.59,0.81,0.91,1.19
										c0.78,0.93,1.65,1.75,2.64,2.47c0.74,0.54,1.55,0.51,2.32,0.31c0.63-0.16,0.85-0.83,1.07-1.39
										c0.37-0.93,0.75-1.85,1.15-2.77c1.75-3.92,3.41-7.88,4.36-12.09c0.1-0.43,0.32-0.75,0.63-1.05
										c1.15-1.09,2.29-2.19,3.44-3.28c0.07-0.07,0.14-0.15,0.23-0.2C187.13,224.16,187.37,223.87,187.64,223.74z M180.21,228.1
										c-0.03,0.69-0.33,1.25-0.83,1.75c-1.51,1.5-2.98,3.03-4.33,4.68c-0.24,0.29-0.45,0.6-0.66,0.91
										c-0.09,0.13,0.05,0.31,0.23,0.34c0.37,0.07,0.65-0.1,0.89-0.35c1.03-1.02,2.05-2.04,3.07-3.07
										c0.45-0.45,0.74-0.04,0.64,0.46c-0.14,0.72-0.46,1.37-0.68,2.06c-0.24,0.75-0.47,1.49-0.72,2.24
										c-0.39,1.2-0.83,2.38-1.28,3.56c-0.37,0.98-0.7,1.98-1.07,2.96c-0.04,0.11-0.08,0.22-0.17,0.3
										c-0.39,0.4-0.89-0.42-1.12-0.64c-2.61-2.52-4.31-5.59-5.43-9.01c-0.45-1.38-0.79-2.81-0.95-4.25
										c-0.09-0.8-0.15-1.61-0.11-2.42c0.01-0.26,0.06-1.99,0.69-1.51c0.36,0.28,0.52,0.76,0.69,1.17c0.42,1,0.79,2.02,1.18,3.03
										c0.35,0.89,0.71,1.78,1.05,2.68c0.19,0.5,0.55,0.71,1.06,0.68c0.29-0.02,0.58-0.06,0.87-0.1c0.42-0.07,0.65-0.32,0.75-0.73
										c0.15-0.61,0.31-1.21,0.49-1.81c0.51-1.65,1.26-3.17,2.37-4.51c0.56-0.68,1.19-1.28,1.93-1.77
										c0.41-0.28,0.66-0.22,0.93,0.21c0.3,0.46,0.48,0.98,0.52,1.52C180.25,227.02,180.24,227.56,180.21,228.1z"/>
								</g>
							</g>
						</g>
					</g>
				</g>
			</g>
		</g>
		<g>
			<g>
				<g>
					<g>
						<g>
							<g>
								<g>
									<path d="M393.2,224.36c0.09,0.05,0.16,0.13,0.23,0.2c1.15,1.09,2.29,2.19,3.44,3.28c0.31,0.3,0.54,0.62,0.63,1.05
										c0.96,4.21,2.61,8.16,4.36,12.09c0.41,0.91,0.78,1.84,1.15,2.77c0.22,0.56,0.44,1.23,1.07,1.39
										c0.77,0.2,1.57,0.23,2.32-0.31c0.98-0.72,1.86-1.55,2.64-2.47c0.32-0.38,0.63-0.78,0.91-1.19
										c0.54-0.79,0.59-0.73,1.33-0.13c1.17,0.95,2.32,1.9,3.4,2.95c0.37,0.35,0.76,0.69,1.15,1.02c0.17,0.15,0.28,0.37,0.28,0.6
										v1.54c0,0.3,0.39,0.41,0.55,0.15l0.62-1.02c0.11-0.18,0.29-0.31,0.5-0.35l1.37-0.29c0.33-0.07,0.32-0.54-0.01-0.6
										l-2.12-0.39c-0.14-0.03-0.28-0.09-0.38-0.19c-0.9-0.85-1.79-1.71-2.71-2.54c-0.8-0.73-1.66-1.39-2.5-2.08
										c-0.27-0.22-0.31-0.44-0.15-0.76c0.77-1.48,1.44-3,1.93-4.61c0.59-1.97,0.95-3.97,0.97-6.03c0-0.62-0.01-1.26-0.11-1.87
										c-0.18-1.1-0.72-1.59-1.81-1.76c-0.25-0.04-0.5-0.05-0.75-0.07c-0.96-0.08-1.69,0.32-2.27,1.07
										c-0.46,0.6-0.79,1.27-1.08,1.97c-0.15,0.36-0.29,0.71-0.42,1.07c-0.07,0.19-0.15,0.38-0.22,0.57
										c-0.05,0.13-0.07,0.36-0.17,0.46c-0.1,0.1-0.21-0.02-0.26-0.11c-0.22-0.36-0.4-0.75-0.61-1.13
										c-0.22-0.41-0.48-0.8-0.74-1.18c-0.57-0.83-1.23-1.6-2.01-2.25c-1.03-0.85-2.17-1.38-3.53-1.39
										c-1.52-0.01-2.2,0.44-2.75,1.86c-0.06,0.15-0.1,0.31-0.18,0.55c0.02-0.05-0.53-0.46-0.59-0.51
										c-0.18-0.15-0.35-0.29-0.53-0.44c-0.44-0.35-0.86-0.72-1.28-1.1c-0.24-0.22-0.48-0.44-0.71-0.67
										c-0.12-0.12-0.55-0.39-0.45-0.59c0.07-0.15,0.47-0.23,0.61-0.27c0.2-0.06,0.45-0.19,0.57-0.36
										c0.08-0.11,0.11-0.27,0.03-0.39c-0.05-0.07-0.14-0.11-0.22-0.15c-1.06-0.46-2.25-0.62-3.4-0.46
										c-0.2,0.03-0.42,0.07-0.55,0.23c-0.13,0.15-0.14,0.36-0.15,0.56c-0.01,1.09,0.24,2.18,0.74,3.15
										c0.09,0.18,0.23,0.37,0.42,0.36c0.2-0.01,0.32-0.22,0.39-0.4c0.18-0.47,0.15-0.98,0.29-1.44
										C392.73,223.87,392.97,224.16,393.2,224.36z M399.88,226.48c0.04-0.55,0.21-1.06,0.52-1.52c0.27-0.42,0.52-0.48,0.93-0.21
										c0.73,0.49,1.36,1.1,1.93,1.77c1.11,1.33,1.86,2.86,2.37,4.51c0.18,0.6,0.34,1.2,0.49,1.81c0.1,0.41,0.33,0.66,0.75,0.73
										c0.29,0.05,0.58,0.09,0.87,0.1c0.52,0.03,0.87-0.18,1.06-0.68c0.34-0.89,0.7-1.78,1.05-2.68c0.39-1.01,0.76-2.03,1.18-3.03
										c0.17-0.4,0.33-0.89,0.69-1.17c0.63-0.48,0.68,1.25,0.69,1.51c0.04,0.81-0.02,1.62-0.11,2.42
										c-0.16,1.45-0.49,2.87-0.95,4.25c-1.12,3.42-2.82,6.49-5.43,9.01c-0.23,0.22-0.73,1.04-1.12,0.64
										c-0.08-0.08-0.12-0.2-0.17-0.3c-0.37-0.98-0.69-1.98-1.07-2.96c-0.45-1.18-0.89-2.36-1.28-3.56
										c-0.24-0.74-0.48-1.49-0.72-2.24c-0.22-0.69-0.54-1.35-0.68-2.06c-0.1-0.5,0.19-0.91,0.64-0.46
										c1.02,1.03,2.04,2.06,3.07,3.07c0.25,0.24,0.52,0.41,0.89,0.35c0.17-0.03,0.32-0.21,0.23-0.34
										c-0.21-0.31-0.42-0.62-0.66-0.91c-1.35-1.65-2.82-3.18-4.33-4.68c-0.5-0.5-0.8-1.06-0.83-1.75
										C399.86,227.56,399.85,227.02,399.88,226.48z"/>
								</g>
							</g>
						</g>
					</g>
				</g>
			</g>
		</g>
	</g>
</g>
</svg>
