<?xml version="1.0" encoding="utf-8"?>
<!-- Generator: Adobe Illustrator 21.0.0, SVG Export Plug-In . SVG Version: 6.00 Build 0)  -->
<svg version="1.1" id="Layer_1" xmlns="http://www.w3.org/2000/svg" xmlns:xlink="http://www.w3.org/1999/xlink" x="0px" y="0px"
	 viewBox="0 0 512 512" style="enable-background:new 0 0 512 512;" xml:space="preserve">
<path d="M376.134,0.5c-41.906,0-75.988,34.103-75.988,76.02c0,12.079,2.745,23.619,8.172,34.293
	c0.824,1.626,1.024,3.505,0.549,5.269l-8.626,32.192l30.007-8.056c0.633-0.169,1.277-0.253,1.921-0.253
	c1.373,0,2.724,0.38,3.907,1.119c11.962,7.475,25.815,11.424,40.058,11.424c41.917,0,76.02-34.093,76.02-75.988
	C452.154,34.603,418.05,0.5,376.134,0.5z M382.511,123.029c0,4.075-3.315,7.391-7.401,7.391c-4.075,0-7.391-3.315-7.391-7.391v-0.18
	c0-4.086,3.315-7.391,7.391-7.391c4.086,0,7.401,3.305,7.401,7.391V123.029z M392.647,80.447c-3.748,3.379-7.328,6.599-9.946,9.788
	L382.5,101.31c-0.063,4.033-3.368,7.254-7.38,7.254h-0.137c-4.086-0.063-7.338-3.431-7.264-7.517l0.243-13.494
	c0.021-1.489,0.496-2.935,1.362-4.149c3.611-5.089,8.594-9.587,13.419-13.937c10.242-9.239,16.302-15.373,14.254-22.679
	c-1.193-4.255-5.649-7.665-11.646-8.911c-8.636-1.784-21.602,0.929-32.118,13.905c-2.576,3.167-7.232,3.653-10.4,1.088
	c-3.167-2.576-3.664-7.232-1.088-10.4c14.697-18.129,33.713-21.74,46.604-19.068c11.435,2.365,20.198,9.798,22.88,19.396
	C415.917,59.447,403.015,71.093,392.647,80.447z M405.127,335.409c-11.857,28.571-15.215,58.958-10.252,92.871
	c3.664,25.065,12.036,52.38,25.541,83.22H230.176c-4.466-21.043-11.054-42.814-28.771-62.104c-2.471-2.682-6.525-3.167-9.566-1.14
	c-17.052,11.424-70.17,30.915-86.853,17.791c-9.217-7.253-5.068-25.287,0.042-39.14c0.76-2.059,0.56-4.35-0.538-6.25
	c-1.088-1.901-2.978-3.21-5.142-3.59c-10.696-1.858-12.776-4.646-13.156-5.459c-0.57-1.214-0.76-4.625,4.456-13.726
	c1.911-3.336,0.94-7.602-2.238-9.777c-6.789-4.635-10.231-8.309-10.527-11.223c-0.349-3.474,3.315-9.186,10.875-16.967
	c1.647-1.7,2.386-4.086,1.975-6.419c-0.401-2.333-1.901-4.329-4.033-5.374c-15.943-7.792-24.601-15.405-26.459-23.271
	c-2.724-11.53,9.091-27.008,22.763-44.926c6.272-8.204,13.377-17.506,19.955-27.568c1.542-2.354,1.615-5.364,0.19-7.792
	c-18.445-31.453-21.803-65.768-9.449-96.608c15.267-38.105,52.147-59.095,80.401-69.991c34.505-13.325,76.115-19.058,111.263-15.352
	c0.348,0.042,0.686,0.085,1.035,0.127c-0.687,4.487-1.045,9.091-1.045,13.779c0,0.211,0.01,0.422,0.01,0.644
	c-0.824-0.063-1.658-0.106-2.492-0.106c-8.573,0-16.587,3.474-22.384,9.418c-8.869-6.124-19.375-9.418-30.323-9.418
	c-15.626,0-30.44,6.863-40.555,18.583c-2.417-0.422-4.867-0.634-7.306-0.634c-21.412,0-39.108,15.521-42.297,36.162
	c-11.012,4.962-18.34,16.017-18.34,28.455c0,3.125,0.443,6.156,1.33,9.059c-8.067,10.706-12.459,23.735-12.459,37.186
	c0,34.061,27.726,61.777,61.808,61.777c6.472,0,12.765-0.982,18.783-2.904c9.639,15.373,26.67,24.992,45.115,24.992
	c11.308,0,22.299-3.611,31.369-10.231c3.051,0.792,6.166,1.309,9.333,1.541c4.688,25.266,20.335,31.253,34.262,36.584
	c13.261,5.068,25.794,9.861,33.312,31.316c1.035,2.967,3.833,4.952,6.979,4.952h25.287c1.974,0,3.865-0.792,5.247-2.186
	c1.394-1.404,2.165-3.305,2.144-5.279c-0.211-23.386-5.892-43.014-17.316-59.718c14.275-8.784,23.851-23.46,26.005-40.312
	c9.523-9.671,14.929-22.785,14.929-36.437c0-8.953-2.281-17.664-6.631-25.382c0.866-2.914,1.299-5.913,1.299-8.974
	c0-4.023-0.76-7.94-2.228-11.593c5.934-1.637,11.624-3.864,17.009-6.609C437.118,206.957,432.99,268.279,405.127,335.409z
	 M268.355,100.529c-1.088,2.038-3.062,3.442-5.332,3.812c-2.281,0.37-4.593-0.338-6.271-1.922
	c-7.211-6.821-16.651-10.579-26.586-10.579c-12.533,0-24.358,6.103-31.622,16.344c-1.827,2.576-5.1,3.706-8.13,2.808
	c-2.671-0.792-5.395-1.193-8.109-1.193c-11.857,0-21.972,7.264-26.079,17.685c6.778,0.021,13.43,2.017,18.255,5.796
	c3.21,2.513,3.78,7.159,1.256,10.379c-1.457,1.858-3.632,2.83-5.817,2.83c-1.594,0-3.21-0.517-4.561-1.573
	c-3.579-2.808-10.653-3.474-15.763-1.478c-0.275,0.106-0.539,0.19-0.813,0.264c-0.011,0-0.021,0.01-0.042,0.01
	c-7.232,1.858-12.279,8.404-12.279,15.911c0,2.534,0.549,4.941,1.615,7.159c0.01,0.021,0.021,0.053,0.032,0.074
	c0.021,0.032,0.042,0.074,0.063,0.116c2.45,5.438,6.018,9.365,10.896,12.026c3.579,1.953,4.909,6.44,2.956,10.02
	c-1.341,2.471-3.885,3.864-6.504,3.864c-1.193,0-2.407-0.296-3.527-0.908c-4.181-2.27-7.792-5.216-10.833-8.742
	c-3.801,6.895-5.839,14.676-5.839,22.637c0,25.91,21.095,46.984,47.026,46.984c4.382,0,8.637-0.591,12.733-1.742
	c-0.823-2.882-1.404-5.818-1.721-8.806c-13.43-4.551-21.275-14.697-22.795-29.669c-0.423-4.065,2.534-7.697,6.599-8.109
	c4.044-0.422,7.697,2.545,8.109,6.609c0.76,7.475,3.484,12.385,8.753,15.383c0.992-5.163,2.734-10.178,5.195-14.813
	c1.911-3.6,6.388-4.973,9.988-3.062c3.611,1.911,4.983,6.388,3.072,9.999c-2.945,5.543-4.434,11.561-4.434,17.917
	c0,0,0,0.011,0,0.021c0,5.533,1.151,10.875,3.431,15.869v0.01c6.229,13.652,19.955,22.479,34.969,22.479
	c9.175,0,18.054-3.273,24.991-9.228c1.995-1.711,4.74-2.238,7.222-1.383c4.012,1.383,8.246,2.08,12.585,2.08
	c0.655,0,1.277,0,1.774-0.032h0.01c0.137-0.01,0.285-0.01,0.422-0.01c0.116,0,0.232-0.011,0.359-0.011h0.042
	c7.422,0.285,13.567-0.211,18.794-1.499c3.959-0.971,7.971,1.457,8.943,5.416c0.971,3.97-1.457,7.972-5.416,8.943
	c-4.223,1.045-8.827,1.668-13.916,1.9c3.548,14.697,12.205,18.012,24.442,22.7c13.451,5.142,29.996,11.477,40.069,35.296h12.543
	c-1.394-19.966-7.687-36.458-19.143-50.257c-1.499-1.816-2.059-4.234-1.478-6.525c0.57-2.281,2.196-4.16,4.382-5.047
	c8.911-3.621,16.154-10.294,20.652-18.509c-5.596,2.017-11.54,3.094-17.601,3.094c-9.798,0-19.153-2.682-27.335-7.781
	c-3.4,1.362-7.116,2.122-11.002,2.122c-16.386,0-29.722-13.335-29.722-29.722c0-4.086,3.315-7.391,7.401-7.391
	c4.075,0,7.391,3.305,7.391,7.391c0,8.235,6.694,14.94,14.929,14.94c8.214,0,14.908-6.705,14.908-14.94
	c0-4.244-1.742-8.183-4.888-11.076c-2.999-2.766-3.199-7.444-0.433-10.453c2.756-2.999,7.433-3.199,10.442-0.433
	c6.135,5.649,9.661,13.652,9.661,21.961c0,6.609-2.175,12.723-5.839,17.675c4.53,1.922,9.428,2.914,14.486,2.914
	c9.218,0,18.055-3.41,24.907-9.598v-0.01c7.739-7.011,12.174-17.041,12.174-27.504c0-7.327-2.122-14.412-6.156-20.483
	c-1.394-2.091-1.615-4.762-0.602-7.064c0.95-2.175,1.436-4.466,1.436-6.81c0-3.136-0.898-6.156-2.544-8.763
	c-2.967,0.285-5.966,0.443-9.006,0.443c-15.911,0-31.421-4.128-45.084-11.984l-39.351,10.569c-2.545,0.676-5.269-0.053-7.137-1.911
	c-1.869-1.869-2.597-4.593-1.922-7.148l11.234-41.895c-3.41-7.254-5.796-14.824-7.158-22.626c-1.246-0.296-2.534-0.454-3.844-0.454
	C276.78,91.84,271.216,95.166,268.355,100.529z M205.66,173.793c-0.718,3.505-3.801,5.923-7.243,5.923
	c-0.486,0-0.982-0.053-1.478-0.158c-4.001-0.813-6.588-4.72-5.765-8.721c4.192-20.536,17.295-32.477,37.894-34.547
	c4.065-0.401,7.687,2.555,8.098,6.62c0.401,4.065-2.555,7.686-6.62,8.088C216.26,152.434,208.584,159.466,205.66,173.793z
	 M285.712,180.878c0-4.086,3.315-7.391,7.391-7.391c4.086,0,7.401,3.305,7.401,7.391c0,16.967-10.875,31.432-26.015,36.827
	c-7.476,14.908-19.808,22.901-36.711,23.746h-0.37c-3.917,0-7.19-3.072-7.38-7.021c-0.2-4.076,2.935-7.549,7.011-7.75
	c7.644-0.38,13.62-2.724,18.266-7.222c-11.54-1.837-21.856-8.784-27.8-19.079c-2.038-3.537-0.824-8.056,2.703-10.104
	c3.547-2.038,8.066-0.824,10.104,2.714c4.34,7.517,12.427,12.195,21.095,12.195C274.816,205.183,285.712,194.276,285.712,180.878z"
	/>
</svg>
