<?xml version="1.0" encoding="utf-8"?>
<!-- Generator: Adobe Illustrator 18.0.0, SVG Export Plug-In . SVG Version: 6.00 Build 0)  -->
<!DOCTYPE svg PUBLIC "-//W3C//DTD SVG 1.1//EN" "http://www.w3.org/Graphics/SVG/1.1/DTD/svg11.dtd">
<svg version="1.1" id="Layer_1" xmlns="http://www.w3.org/2000/svg" xmlns:xlink="http://www.w3.org/1999/xlink" x="0px" y="0px"
	 viewBox="0 0 1080 1296" enable-background="new 0 0 1080 1296" xml:space="preserve">
<g>
	<path d="M330.1,902.2c14.2,0,29.3,2.1,44.7,6.3v67.8c-5-6.2-11.2-11.2-18.4-15.1c-0.6-0.3-1.2-0.6-1.9-0.8
		c-2.2-1.1-4.3-1.7-6.3-2.1c-1.4-0.2-2.8-0.4-4.2-0.4c-11.9,0-22.1,8.5-24.1,20.3c-1.1,6.4,0.4,12.9,4.1,18.3s9.4,8.9,15.8,10
		c1.4,0.2,2.8,0.4,4.2,0.4c6.5,0,12.5-2.6,16.9-6.9c2.5,5.3,4,11.2,4.5,17.4c1.1,15.2-5.1,29.9-16.9,40.2
		c-8.5,7.5-19,12.7-30.5,15.4V958.1l-29.8,40.3c-8.6,12.4-19.2,18.6-29.8,18.6c-4.4,0-8.6-1.1-12.8-3.2c-1.1-5-1.6-10.2-1.4-15.4
		c0.5-11,3.9-21.9,9.9-31.3c6.3-10,14.7-18.2,25.1-24.4l36-21.7l-41.1,8.9c-0.6,0.1-1.3,0.3-1.9,0.4l15.7-21.2
		c0.5-0.2,0.9-0.3,1.4-0.5C302,904.3,315.7,902.2,330.1,902.2z M352.9,851.8c-13.9,0-27.1,6.2-33.7,15l-8.9,12.1
		c6.2-0.7,12.6-1.1,19.1-1.1c14.5,0,29.9,1.9,45.3,5.5v-14.4C374.8,858.5,366.2,851.8,352.9,851.8z M355,1083.3
		c-11.2,7.4-23.8,12.3-37.1,14.6v24.3c0,13.4,11.2,22.2,28.4,22.2c17.2,0,28.4-8.8,28.4-22.2V1065
		C369.4,1072,362.7,1078.2,355,1083.3z M232.7,915.2l-35.1-48.5c-6.6-8.8-19.8-15-33.1-15c-13.9,0-22.5,6.7-22.5,17v253.3
		c0,13.4,11.2,22.2,28.4,22.2c17.2,0,28.4-8.8,28.4-22.2v-93.4c-5.5-16.7-6.4-34.8-2-52.7c0.6-2.4,1.3-4.8,2-7.2v-10.8l2.6,3.5
		C208.2,944.2,218.9,928.4,232.7,915.2z M247.2,935.2c-11.2,11.4-19.8,25.2-24.7,40.1c-1.2,3.6-2.1,7.3-2.8,10.9l1.1,1.5
		c2.1-12.3,7.4-23.9,15.3-33.6c4.3-5.4,9.3-10.1,14.7-13.9L247.2,935.2z M450.1,851.8c-17.2,0-28.4,8.8-28.4,22.2v25.7
		c20.4,9.5,39.2,21.4,56.9,34.4v-60C478.5,860.6,467.3,851.8,450.1,851.8z M421.7,1122.2c0,13.4,11.2,22.2,28.4,22.2
		s28.4-8.8,28.4-22.2V1101c-3.6-0.1-7.2-0.4-10.7-1.1l-6.9-1.2l1.2-6.9c2.3-13.2,8.1-25,16.4-34.6v-92.5
		c-17.7-14-36.6-27.2-56.9-37.8V1122.2z M631.3,1085l17.3,33.6c2.6-6,6.7-11.2,12-15.3l3.6-2.8c-9-3.5-18.1-7.7-27.2-12.4
		C635.1,1087.1,633.2,1086,631.3,1085z M680.8,851.8c-17.2,0-28.4,8.8-28.4,22.2v132.6l-70.7-137.8c-5.3-10.3-17.8-17-32.4-17
		s-23.8,7.2-23.8,18.6v101.8c5.8,5.1,11.6,10.2,17.3,15.2c12.9,11.4,26,23,39.6,34.1v-31.8l27,52.6c7.8,5.5,15.7,10.8,23.9,15.7
		c26.4,15.8,51.8,26,76,30.4v-6.3c-9.8-2.2-19.4-5.6-28.9-10l-42.1-19.7l46,6.4c8.4,1.2,16.8,2.3,25,3V874
		C709.2,860.6,698,851.8,680.8,851.8z M525.4,1033c2.3-0.2,4.6-0.3,6.9-0.3c4.1,0,8.3,0.4,12.3,1.1l6.9,1.2l-1.2,6.9
		c-3,17.1-11.9,31.9-24.3,42.4c-0.2,0.2-0.4,0.4-0.6,0.5v37.4c0,13.4,11.2,22.2,28.4,22.2s28.4-8.8,28.4-22.2V1108
		c-8.2,14.8-22.5,26.1-40.3,30l-6.8,1.5l-1.5-6.8c-3.4-15.8-0.5-32.1,8.3-45.7c8.8-13.6,22.3-23,38.2-26.5l2.1-0.5v-7.5
		c-19.8-15.1-38.5-31.6-56.9-47.7V1033z M670.3,1104.5c8.8,11.4,10.4,26.2,5.4,38.8c3.1,0.7,6.4,1.1,9.7,1.1c1.1,0,2.2,0,3.3-0.1
		c-0.6-0.9-1.2-1.9-1.7-3c-2.9-6.7-1.3-14.3,4.1-19.9c1-1.1,2.3-2,3.7-2.6c2.7-1.2,5.5-1.8,8.2-1.8c2.2,0,4.3,0.4,6.2,1.1v-4.9
		c-13.3-2.1-27-5.8-40.7-10.9L670.3,1104.5z M814.3,1062.8v-16.6c-0.7,1.2-1.5,2.4-2.3,3.5c-9.1,13.1-23.2,23.6-39.7,29.5
		c-4.9,1.7-9.9,3-14.8,4v6c0.2,0,0.5-0.1,0.7-0.1C778.2,1085.9,799.4,1077,814.3,1062.8z M843.4,852.8h-43c-25.8,0-43,13.4-43,33.5
		v172c2.2-0.6,4.4-1.3,6.5-2.1c12.8-4.6,23-11.4,30.5-20.1c8.6-9.9,13.7-21.6,14.9-33.7l3.3-33.2c-1.6-1.2-3.3-2.3-5-3.3
		c-3.4,5.1-9.2,8.4-15.7,8.4c-1.1,0-2.1-0.1-3.2-0.3c-10.3-1.8-17.2-11.5-15.4-21.8c1.5-8.9,9.1-15.4,18.1-15.6c1-0.2,2-0.2,3.1-0.1
		c6.9,0.6,13.6,2.4,19.8,5.2v-44.6h29.1c20.5,0,37.7,13.4,37.7,29.4v144c0,16-17.2,29.4-37.7,29.4h-29.1v-6.6
		c-14.7,9.4-31.1,15.6-46.3,18.8c-3.4,0.7-6.9,1.3-10.4,1.8c1.7,18.3,18.4,30.4,42.8,30.4h43c52.2,0,94.5-33,94.5-73.8v-144
		C937.9,885.9,895.6,852.8,843.4,852.8z"/>
	<path d="M336.6,709.9c-0.6,0-1.5,0.3-2.2,0.6c-8.9,4.3-18.8,8-28.9,9.8c0-0.6,0-1.2,0-1.5l0.3-3.4c0-0.6,0-0.9,0-1.5
		c0-37.8-20-54.1-37.5-54.1c-16.9,0-26.4,12.9-26.4,28.9l0.3,1.8c0,0.3,0,0.6,0,0.9c-8.4,12.3-12.6,24.4-13.9,35.5
		c-36.2,32.6-56,81.4-58.9,81.4c-0.3,0-0.3-0.6-0.3-1.2v-0.9c0-1.2,13.5-103.9,43.7-195c17.8,0,35.7,0,53.5-0.6
		c3.1,0,4.6-2.5,4.6-4.6c0-2.5-1.8-4.9-4.9-4.9c-16.6,0-33.5,0.3-50.4,0.6v-1.2c0-7.4-6.8-14.5-14.5-14.5c-6.1,0-12.6,4.3-16.6,16.3
		c-12,0.3-22.1,0.3-30.7,0.3c-35.1,0-43.7-1.2-55.3-1.5H98c-3.1,0-4.6,2.5-4.6,4.9c0,2.8,1.8,5.5,5.2,5.8c3.7,0.3,7.7,0.3,12,0.3
		c15.1,0,33.8-0.9,61.5-0.9h9.2c-8.9,27.7-36.3,121.5-36.3,176.5c0,11.4,1.5,40.9,18.4,40.9c20.4,0,32.1-62.8,64.3-93.7
		c0,0.1,0,0.1,0,0.2c0,26.8,16.9,46.1,35.7,46.1c14.5,0,29.8-12,38.7-41.5c6.1-20.9-7.4-3.1,35.7-21.8c1.8-0.9,2.8-2.2,2.8-3.7
		C340.6,712,339,709.9,336.6,709.9z M264.9,764.3c-4.6,0-8-4.3-8-15.1c0-6.8,1.2-16,4.6-28c8.3,4.9,18.4,8,30.7,8
		C287.4,749.2,273.9,764.3,264.9,764.3z M293.8,721.5H292c-10.1,0-19.4-2.2-27.7-8c5.8-12,8-3.7,12.9-17.2c0.6-1.2,0.9-2.8,0.9-4
		c0-7.4-7.7-13.8-16.3-13.8c-3.7,0-7.4,1.2-11.1,3.7c3.1-9.5,9.5-14.5,16.6-14.5c12.6,0,27.4,14.8,27.4,42.1
		C294.8,713.5,294.5,717.5,293.8,721.5z M983.9,708.9c-0.9,0-1.5,0.3-2.2,0.9c-9.2,8.6-16,12.3-20.9,12.3
		c-19.1,0-10.8-52.3-19.7-64.3c-2.5-3.4-5.2-4.9-8.3-4.9c-6.2,0-12.6,6.8-13.8,19.7c-13.5,19.7-19.4,27.1-36.6,57.2
		c9.8-31.4,15.7-40.9,15.7-48c0-1.8-0.6-3.4-1.2-5.2c-2.8-6.1-7.4-9.5-13.2-9.5c-2.2,0-4.3,0.3-6.8,1.5
		c-7.1,3.5-17.3,32.3-25.4,58.7c-16,22-35.5,52-42.5,52c-1.5,0-2.5-1.8-2.5-5.5c0-7.7,3.7-23.4,12.3-51.4
		c5.5-17.5,13.2-28.9,13.2-37.8c0-6.2-6.5-13.8-12.9-13.8c-14.8,0-25.8,34.1-26.1,34.7c-8.6,11.4-35.1,45.2-49.8,45.2h-0.3
		c-0.6-1.2-0.9-3.1-0.9-5.2c0-11.7,7.7-33.8,11.1-40.9c2.5-5.2,5.8-11.1,5.8-16.6c0-6.8-7.1-12.3-13.5-12.3
		c-12.3,0-23.1,19.3-27.2,40.2c-5.1,1.8-10.5,3.4-15.9,4.4c0-0.6,0-1.2,0-1.5l0.3-3.4c0-0.6,0-0.9,0-1.5c0-37.8-20-54.1-37.5-54.1
		c-16.9,0-26.4,12.9-26.4,28.9l0.3,1.8c0,0.3,0,0.6,0,0.9c-9.5,14-13.7,27.8-14.3,40.2c-5.1,4.7-10.7,8.8-16.7,12.4
		c9.5-31.7,29.2-96.9,29.2-127.3c0-10.5-2.2-16.9-7.7-16.9c-2.8,0-5.8,1.5-9.8,4.3c-14.8,9.2-5.2,42.4-68.3,123.6
		c-6.5,8.3-15.7,20.6-27.4,21.5c-1.5-1.5-2.5-4.9-2.5-8.9c0-22.8,20-76.9,20-110.4c0-15.7-4.9-30.1-23.1-30.1
		c-11.7,0-23.4,8.3-23.4,23.7c0,3.7,2.5,4.6,6.1,4.6c3.4,0,7.1-0.6,11.4-1.5c0.6,0,0.9,0.6,0.9,1.8c0,10.8-19.1,67-19.1,101.8
		c0,16.9,6.8,38.1,27.4,38.1c7.1,0,15.1-3.1,23.7-9.8c23.1-18.4,41.2-60.3,43.4-60c0,0.9-0.3,2.2-0.9,4.6
		c-1.5,6.2-15.1,58.4-20.9,61.2c-44.6,21.5-61.2,45.5-61.2,61.5c0,11.7,8.6,19.4,20.9,19.4c21.8,0,56-23.7,78.1-91
		c7-3.8,13.8-7.9,20-12.7c2.4,23.4,18.1,39.7,35.3,39.7c14.5,0,29.8-12,38.7-41.5c5.1-17.3-3.3-8.1,18-15c-0.3,2.9-0.4,5.7-0.4,8.5
		c0,13.8,4.9,35.4,22.8,35.4c6.1,0,13.2-2.8,20.9-9.8c21.5-19.4,26.4-28.6,26.8-28.6c0,0.3-4,7.7-4,21.5c0,14.5,4.9,43.4,23.4,43.4
		c4,0,8.3-1.5,12-4.3c9.5-7.2,16.8-17.9,23.6-29.3c-1.1,4.1-1.9,7.3-2.3,9c-0.3,1.5-0.6,2.8-0.6,4c0,8.9,7.7,14.1,15.1,14.1
		c5.8,0,12-3.4,14.1-11.1c2.8-9.5,45.8-88.9,51.4-88.9c1.2,0,0.9,4,1.5,7.4c3.7,19.4,18.1,35.1,35.4,35.1c9.5,0,20-4.9,29.8-16.9
		c0.6-0.6,0.6-1.5,0.6-2.2C986.6,710.5,985.4,708.9,983.9,708.9z M521.1,829.8h-0.3c-2.8,0-4.3-2.5-4.3-6.5
		c0-10.8,12-32.9,48.3-50.7C555.8,791.3,531.5,828.5,521.1,829.8z M661.6,764.3c-4.6,0-8-4.3-8-15.1c0-6.8,1.2-16,4.6-28
		c8.3,4.9,18.4,8,30.7,8C684.1,749.2,670.5,764.3,661.6,764.3z M690.5,721.5h-1.8c-10.1,0-19.4-2.2-27.7-8c5.8-12,8-3.7,12.9-17.2
		c0.6-1.2,0.9-2.8,0.9-4c0-7.4-7.7-13.8-16.3-13.8c-3.7,0-7.4,1.2-11.1,3.7c3.1-9.5,9.5-14.5,16.6-14.5c12.6,0,27.4,14.8,27.4,42.1
		C691.4,713.5,691.1,717.5,690.5,721.5z"/>
	<path d="M232.9,456.9l-0.4,0.4c10.3-11.1,15.8-25.7,15.8-41.1v-12.8c0-33.8-27.4-61.2-61.2-61.2h-25.7c-15.8,0-26.1,10.3-26.1,25.7
		v188.3c0,16.7,11.1,27.8,27.8,27.8H191c33.8,0,61.2-27.4,61.2-61.2v-21C252.2,484.7,245.3,468.4,232.9,456.9z M172.2,379h15
		c13.3,0,24.4,11.1,24.4,24.4v12.8c0,13.3-11.1,24.4-24.4,24.4h-15V379z M215.4,522.8c0,13.3-11.1,24.4-24.4,24.4h-18.8v-69.8H191
		c13.3,0,24.4,11.1,24.4,24.4V522.8z M319.4,379v61.6h15.8c9,0,15.4,6.4,15.4,15.4v5.6c0,9.4-6.4,15.8-15.4,15.8h-15.8v69.8h29.1
		c11.1,0,18.4,7.3,18.4,18.4c0,11.6-7.3,18.8-18.4,18.8h-33.4c-19.3,0-32.1-12.8-32.1-32.1V373.9c0-19.3,12.8-32.1,32.1-32.1h33.4
		c11.1,0,18.4,7.3,18.4,18.4c0,11.6-7.3,18.8-18.4,18.8H319.4z M570.2,566c5.6,11.1,1.3,18.4-11.1,18.4h-1.3
		c-12,0-23.1-6.8-28.7-17.1l-25.7-49.6V566c0,11.1-7.3,18.4-18.4,18.4c-11.1,0-18.4-7.3-18.4-18.4V360.2c0-11.1,7.3-18.4,18.4-18.4
		c11.1,0,18.4,7.3,18.4,18.4v47.1l24.4-47.9c5.6-10.7,16.7-17.5,28.7-17.5h0.9c12.4,0,16.7,7.3,11.1,18.4l-51.8,102.7L570.2,566z
		 M647.2,360.2V566c0,11.1-7.3,18.4-18.4,18.4c-11.1,0-18.4-7.3-18.4-18.4V360.2c0-11.1,7.3-18.4,18.4-18.4
		C639.9,341.8,647.2,349,647.2,360.2z M796.6,360.2V569c0,9.4-6,15.4-15.4,15.4c-9.4,0-17.5-5.6-21-14.1L714.4,456v110
		c0,11.1-7.3,18.4-18.4,18.4c-11.1,0-18.4-7.3-18.4-18.4V357.2c0-9.4,6-15.4,15.4-15.4c9.4,0,17.5,5.6,21,14.1l45.8,114.3v-110
		c0-11.1,7.3-18.4,18.4-18.4C789.3,341.8,796.6,349,796.6,360.2z M883.4,342.6h-27.8c-16.7,0-27.8,11.1-27.8,27.8v186.2
		c0,16.7,11.1,27.8,27.8,27.8h27.8c33.8,0,61.2-27.4,61.2-61.2V403.8C944.6,370,917.3,342.6,883.4,342.6z M907.8,523.2
		c0,13.3-11.1,24.4-24.4,24.4h-18.8V379.4h18.8c13.3,0,24.4,11.1,24.4,24.4V523.2z"/>
	<path d="M849.4,1038.2c-10.8,36.9-47,59.5-82.8,67.1c-43.1,9.1-88.2-3.4-126.4-23.5c-42-22.1-77.6-53.7-113-84.9
		c-34.5-30.4-69.8-61.1-111.8-80.9c-39.3-18.5-86-28.3-128.3-14.1c-32.7,11-60.5,38.3-71.3,71.2c-5.2,16-6,33.6-0.8,49.6
		c5.8,18,18.2,33.1,33.8,43.6c30.9,20.8,75.4,21.9,104.2-3.5c13.2-11.7,20.5-28.3,19.3-46c-0.8-10.9-4.6-21.8-11.5-30.1
		c-2.3,8.6-10.8,14.3-19.8,12.8c-9.5-1.6-15.9-10.7-14.3-20.2c1.6-9.5,10.7-15.9,20.2-14.3c1.8,0.3,3.4,0.9,4.9,1.7
		c0.4,0.1,0.8,0.3,1.2,0.5c7.5,4,13.8,9.5,18.7,16.5c9.8,14.1,13.2,32.4,10.1,49.1c-3.4,18.5-15.1,34.3-30.7,44.5
		c-33.5,22.1-77.9,18.7-110.1-3.8c-30.9-21.6-46.3-59.1-37.3-96c8.6-35.3,35.1-65.3,67.7-80.8c39.7-18.8,86.9-13.9,127,0.6
		c44.4,16.1,82.2,45.1,117.7,75.7c36.6,31.6,71.8,65.6,113.5,90.6c38.6,23.1,84.2,39.6,129.7,32.2c35.5-5.8,75-28.9,81.6-67.3
		c4.8-28.3-9.5-62.5-37.1-72.4c0,0.3,0,0.7-0.1,1c-1.1,6.5-7.3,10.8-13.7,9.7c-6.5-1.1-10.8-7.3-9.7-13.7c1-5.9,6.1-9.9,11.9-9.8
		c0.6-0.1,1.1-0.2,1.8-0.1c8,0.8,15.8,3.2,22.8,7.3C845.4,967.8,858.6,1006.6,849.4,1038.2z M248.2,963.3
		c6.7-10.6,15.9-19.8,27.4-26.7c-13.2,2.8-25.3,11-34.1,21.9c-8.8,10.9-14.3,24.8-14.8,39.2c-0.2,7.1,0.6,14.3,2.7,21.1
		c2.2,6.8,5.2,13.4,9.6,19c8.5,11.3,21.5,19.1,35,20.4c-12.2-5.5-21.9-14.4-28.2-25c-6.2-10.6-9.1-23-8.6-35.1
		C237.8,986,241.5,973.9,248.2,963.3z M747.9,1077.7c7.5-0.8,14.9-2.5,22.1-5c14.3-5.1,27.6-14.3,36.3-26.9
		c8.7-12.4,13.1-28.2,10.1-42.6c-1.4,14.5-7.7,27.4-16.6,37.6c-8.9,10.3-20.7,17.5-33.4,22.1c-12.8,4.7-26.6,6.5-40.5,6.6
		c-14,0-28.2-1.8-42.6-3.8c13.2,6.2,27.4,10.4,42.2,11.9C732.8,1078.4,740.3,1078.3,747.9,1077.7z M540.6,1131.1
		c29-6.3,47.4-34.9,41.1-63.8C552.7,1073.6,534.3,1102.1,540.6,1131.1z M601.8,1146.2c20.4-10.3,28.7-35.2,18.4-55.6
		C599.8,1100.9,591.5,1125.8,601.8,1146.2z M469,1093L469,1093c35,6.1,68.4-17.3,74.5-52.4C508.5,1034.6,475.1,1058,469,1093z
		 M659,1154.2c14.1-10.9,16.7-31.3,5.8-45.4C650.7,1119.7,648.1,1140.1,659,1154.2z M697.7,1125.1c-0.6,0.3-1.1,0.6-1.5,1.1
		c-9,9.4,0.5,22.8,12.4,17.5c0.6-0.3,1.1-0.6,1.5-1.1C719,1133.2,709.5,1119.7,697.7,1125.1z M742.1,1128.4
		c-0.4,0.2-0.8,0.4-1.1,0.8c-5.9,6.2,0.4,15.2,8.2,11.7c0.4-0.2,0.8-0.4,1.1-0.8C756.2,1133.8,749.9,1124.9,742.1,1128.4z
		 M507.8,1028c0.5-0.2,1-0.6,1.4-1c8.1-8.4-0.5-20.5-11.1-15.7c-0.5,0.2-1,0.6-1.4,1C488.6,1020.7,497.2,1032.8,507.8,1028z"/>
	<path d="M803.9,284.7c-16.3-18.9-38.9-33.9-63.4-39.5c-6.8-13.2-14.4-25.4-22.7-36.6c33.1,14.7,70.2,17.8,107.1,9.1
		c2.7-0.6,4.8-4.6,2.9-7.1c-32.6-42.5-89.2-59.6-139.3-38.7c-1.4,0.6-2.2,1.5-2.7,2.7c-36.8-29.9-83.4-40.6-139.2-19.6
		c-39.7,14.9-72.6,43.6-102.5,72.8c-20.7,20.2-40.7,41.8-65.7,56.8c-20.1,12.1-48.3,20-72.2,15c-17.7-3.7-28.3-18.2-32.1-34.5
		c31.3-6.2,56.5-26.6,49.6-65.2c-1.2-6.8-11.7-5-11.8,1.6c0,0.1,0,0.1,0,0.2c-27.4-9.3-58.6,7.9-64.2,38.8c-0.9,5.2-1.1,10.2-0.6,15
		c-55.1-7.5-115.9-64-50.8-107.7c2.7-1.8,1.1-7.1-2.4-5.7c-59.7,24.4-36,93.2,11.6,115.6c12.6,6,28.4,9.3,44.3,9.6
		c9.4,27.3,39.8,46.5,68,48.6c60,4.5,102.9-45.8,141.9-83c37.8-36,82.5-71.1,137.1-74.4c9.5-0.6,18.3,0.1,26.6,1.5
		c-0.3,0.9-0.4,1.9-0.1,3.1c0.1,0.5,0.3,1.1,0.4,1.6c-12.5,18.8-17.1,41.3-13.6,64.1c2.5,16.2,16.8,59,38.7,58.2
		c7.9-0.3,10.7-7.3,13.6-13.3c8.3-16.9,12.8-39.4,12.1-58.3c-0.7-17.1-7-33.6-18.8-44.9c30.3,15.7,52.1,44.8,71,76.2
		c-1.3,2.6-0.7,6,3.1,7.1c0.4,0.1,0.9,0.3,1.3,0.4c0,0,0.1,0.1,0.1,0.1c-6.9,25,8.7,49.7,28,65c12.4,9.8,26.8,16.9,41.3,22.9
		c7.8,3.2,17.9,7.3,24.9,0C839,328.1,813,295.3,803.9,284.7z M311.2,211.3c-3.1,26.6-18.8,39.8-38.7,43.7
		C270.6,229.6,284.1,204.5,311.2,211.3z M632.7,257.9c-16.2-25.1-16.9-55-6.2-81.6c6.7,29.9,8.4,60,13.3,89.9
		C637.7,264.7,635.4,262,632.7,257.9z M662.9,219.9c-0.1,9.4-1.7,24.4-6.2,33.6c-2.6,5.3-5,9.5-7.5,12c2.7-30.9-4.4-64.7-12.4-94.4
		C654.6,180.8,663.1,199.5,662.9,219.9z M692.4,180.4c38.7-14.4,80.8-7.6,111.2,18.5c-36.1-7.1-73.7-13.4-110.1-17.4
		C693.1,181.2,692.8,180.8,692.4,180.4z M701.5,189.3c34.8,11.2,74.9,17.7,110.7,18.9c0.3,0,0.5-0.1,0.7-0.1c0.6,0.7,1.3,1.3,1.9,2
		c-38,7.3-75.1,1.4-108.6-15.8C704.6,192.5,703,190.9,701.5,189.3z M779.1,277.4c12.2,9.7,27.7,25.4,33.4,41.3
		c-22-18.6-42.8-37.7-63.1-58.1C759.9,264.8,769.9,270,779.1,277.4z M795.5,326.7c-8.3-3.9-16.5-8.1-24-13.3
		c-19.2-13.2-30.4-31.6-32.3-54.1c19.8,27.5,46.3,53.1,74.6,71.5C811.4,335.2,802.4,330,795.5,326.7z"/>
</g>
</svg>
