<?xml version="1.0" encoding="utf-8"?>
<!-- Generator: Adobe Illustrator 25.0.0, SVG Export Plug-In . SVG Version: 6.00 Build 0)  -->
<svg version="1.1" id="Layer_1" xmlns="http://www.w3.org/2000/svg" xmlns:xlink="http://www.w3.org/1999/xlink" x="0px" y="0px"
	 viewBox="0 0 512 512" style="enable-background:new 0 0 512 512;" xml:space="preserve">
<g>
	<g>
		<g>
			<g id="XMLID_1_">
				<path d="M402,161.6c1.8,2.6,2.8,5.7,2.8,8.9c0,7.4-5.1,13.8-12.4,15.4c-2.7,0.6-4.4,3.2-3.8,5.9c0,0.1,0,0.1,0.1,0.2
					c1.3,7.8,0.1,15.8-3.4,22.9c-2.8,5.8-9,11.4-17.5,16.2c-2.9,1.7-7.7,5.2-10.4,11.8h-9.1c-17.5-16.4-35.5-23.4-44.8-26.2
					c-3.7-1-6.2-1.5-6.3-1.5c-31.7-5.6-34.3-30.1-34.5-34.2c0,0,0,0,0,0c0-0.3,0-0.7,0-1.1c-0.1-0.1-0.9-6.7,2.2-13.3
					c1.1-2.4,0.1-5.3-2.4-6.5c-2.5-1.1-5.3-0.1-6.5,2.3c-2.3,4.8-3.1,9.6-3.2,13.2h-29.8c-14.1,0-25.6-11.4-25.6-25.6
					c0-6.5,2.5-12.7,6.8-17.4c1.4,3.7,3.8,8,7.9,11.3c3.5,2.9,7.6,4.5,12.4,5.2c-1.5,3.8-2.4,9.1-1.5,15.8c0.3,2.4,2.4,4.2,4.8,4.2
					c0.2,0,0.4,0,0.7,0.1c2.7-0.4,4.6-2.8,4.2-5.5c-1.5-10.7,3.3-15.3,3.8-15.7c1.8-1.3,2.4-3.7,1.7-5.8c-0.8-2.1-3.1-3.3-5.3-3
					c-6.2,1-11.1,0-14.6-2.8c-4.6-3.8-5.9-10-6.2-12.2c0,0,0,0,0,0c0-0.1,0-0.2,0-0.3c0.1-8.8,7.4-16.1,16.3-16.1
					c1.8,0,3.4,0.2,4.9,0.7c1.8,0.5,3.7,0.1,5-1.2c0.9-1,1.4-2.2,1.4-3.5c0-0.3,0-0.7-0.1-1c0-7.6,6.2-13.8,13.8-13.8
					c3.1,0,6,1,8.4,2.9c1.3,1.1,3.1,1.3,4.7,0.7c1.6-0.6,2.7-2,3.1-3.7c1.2-6.5,6.9-11.1,13.5-11.1c4.6,0,8.9,2.2,11.4,5.9
					c0.9,1.2,2.3,2,3.8,2.1c1.6,0,3.1-0.6,4-1.8c2.2-2.7,5.5-4.3,9-4.3c3.5,0,6.9,1.7,9.1,4.4c0.6,3,2.1,14.5-12.2,20.7
					c-2.4,1.1-3.6,4-2.5,6.5c0.8,1.8,2.5,3,4.5,3c0.6,0,1.3-0.2,2-0.4c17.6-7.6,19.6-22.5,18-30.9c2.6-3.3,6.6-5.3,10.9-5.3
					c7.5,0,13.7,6.1,13.8,13.7c0.1,1.7,0.9,3.2,2.3,4.1c1.4,0.9,3.1,1,4.6,0.3c2.1-0.9,4.5-1.4,6.6-1.4c8.6,0,15.7,7.1,15.7,15.7
					c0,1.5-0.2,3-0.6,4.5c-6.7,1.6-12.1,4.1-16.8,7.4c-2.9-4.9-8.2-11.4-17.8-15.6c-2.5-1.1-5.4,0.1-6.5,2.5c-1,2.5,0.1,5.4,2.5,6.5
					c8.5,3.7,12.5,9.7,14.1,13.2c-10.8,7.6-27.1-1.6-27.2-1.7c-2.3-1.4-5.2-0.6-6.6,1.8c-1.4,2.4-0.6,5.3,1.8,6.7
					c0.6,0.3,10.6,6.1,22,6.1c6.3,0,13-1.8,18.6-7.4c0.6-0.4,1.1-0.9,1.5-1.5c4.6-4.5,10.6-7.4,18.9-9.1c0.2,0,0.4,0,0.6,0
					c0.1,0,0.3,0,0.4,0c8.7,0,15.7,7.1,15.7,15.7c0,4.5-2,8.8-5.4,11.9c-0.2,0.1-0.3,0.3-0.4,0.5c-1.6,1.3-8.3,6.3-18.8,6.8
					c0,0,0,0,0,0c-0.4,0-0.8,0-1.1,0c-3.5,0.1-7.4-0.4-11.7-1.7c-2.6-0.8-5.3,0.7-6.1,3.3c-0.8,2.6,0.7,5.3,3.3,6.1
					c3.4,1,6.6,1.6,9.6,1.9c-1.2,5.4-3.9,13.4-10.2,16.2c-2.4,1.1-3.6,4-2.5,6.5c0.8,1.8,2.5,3,4.5,3c0.7,0,1.4-0.1,2-0.4
					c11.2-5,15-17.8,16.2-25.3C392.2,167.1,398.3,164,402,161.6z M337.1,209.5c2.3-1.4,3-4.4,1.6-6.7c-0.1-0.1-3.4-5.7-3.9-12.5
					c-0.3-3.7,0.3-7.7,2.8-11.4c1.5-2.3,0.9-5.3-1.4-6.8c-2.3-1.5-5.3-0.9-6.8,1.4c-3.4,5.1-4.5,10.4-4.5,15.4
					c-2.5,2.2-8.9,6.8-18.6,4c-2.5-0.8-5.2,0.7-6,3.3c-0.8,2.5,0.7,5.2,3.3,6c3.1,1,6.1,1.3,8.8,1.3c5.9,0,10.7-1.8,14.2-3.9
					c1.5,4.8,3.5,8.1,3.7,8.4c0.9,1.5,2.4,2.3,4.1,2.3C335.2,210.2,336.1,209.9,337.1,209.5z M311,163.4c1.5-2.3,0.9-5.3-1.4-6.8
					c-4.3-2.8-8.7-3.9-12.9-3.9c-1.8-2.1-5.2-7.2-3-14.6c0.7-2.6-0.7-5.3-3.3-6.1c-2.6-0.7-5.3,0.7-6.1,3.3
					c-2.5,8.2-0.7,14.7,1.7,19.2c-3.7,1.3-6.1,2.8-6.4,2.9c-2.3,1.4-3,4.5-1.6,6.7c1,1.5,2.5,2.3,4.2,2.3c0.9,0,1.8-0.3,2.5-0.6
					c0.1-0.1,4.7-2.9,10.3-3.2c3-0.2,6.1,0.3,9.1,2.3C306.4,166.2,309.5,165.6,311,163.4z M282.7,118.8c0.5-2.6-1.2-5.2-3.8-5.8
					c-4.3-0.9-4.7-3.8-4.5-5.3v-0.1c0.3-2.7-1.7-5.1-4.3-5.4c-2.6-0.3-5.1,1.6-5.4,4.2c0,0.1,0,0.2,0,0.3c-0.4,3.1-1.5,5.3-3.4,6.7
					c-3.5,2.4-9.1,2-11,1.7c-2.6-0.5-5.2,1.1-5.8,3.8c-0.6,2.6,1.1,5.2,3.8,5.8c0.4,0.1,2.6,0.5,5.5,0.5c3.8,0,8.9-0.7,13.1-3.8
					c0.9-0.6,1.8-1.3,2.6-2.3c1.8,1.7,4.4,3,7.5,3.6C279.5,123.2,282.1,121.4,282.7,118.8z"/>
				<path d="M136.9,414.4l3.5,7.4c0,0.1,0,0.2-0.1,0.2l-26,12.2c-0.1,0-0.3,0-0.3-0.1L50.8,299.6c0-0.1,0-0.2,0.1-0.2L77,287.1
					c0.1,0,0.1,0,0.2,0.1l3.5,7.5h0l56,119.3c0,0,0,0.1,0.1,0.1C136.8,414.2,136.8,414.3,136.9,414.4z"/>
				<path d="M126.7,296.1l38.5,82l6.6,14c0,0.1,0,0.2-0.1,0.3l-28,13.2l-52-110.6l28-13.1c0.1,0,0.2,0,0.3,0.1L126.7,296.1z"/>
				<path d="M459.3,286.5c2.4,5.1,2.5,10.6,0.5,15.9c-2,5.2-5.9,9.4-11.1,11.6l-114.6,49.5c-17.4,7.6-37,8.6-55,3l-25.3-8
					c-19.5-6-40.5-5.2-59.2,2.3l-22.3,8.9l-34.9-74.3c67.1-54.8,152.3-31,186.2-18c6.9,2.7,11.1,9.6,10.4,16.9
					c-0.4,0.8-0.6,1.8-0.5,2.7c-1,3.7-3.3,6.9-6.6,9.2c-3.8,2.5-8.3,3.4-12.8,2.4l-51.2-11.2c-2.7-0.5-5.2,1.1-5.9,3.8
					c-0.5,2.7,1.1,5.2,3.8,5.9l51.2,11.2c1.8,0.4,3.8,0.6,5.6,0.6c5.1,0,10.2-1.5,14.7-4.5c5-3.4,8.6-8.3,10.4-14l92.5-25.3
					C444.9,272.4,455.1,277.1,459.3,286.5z"/>
			</g>
		</g>
	</g>
</g>
</svg>
