<?xml version="1.0" encoding="utf-8"?>
<!-- Generator: Adobe Illustrator 25.4.1, SVG Export Plug-In . SVG Version: 6.00 Build 0)  -->
<svg version="1.1" xmlns="http://www.w3.org/2000/svg" xmlns:xlink="http://www.w3.org/1999/xlink" x="0px" y="0px"
	 viewBox="0 0 64 64" enable-background="new 0 0 64 64" xml:space="preserve">
<g id="text" display="none">
</g>
<g id="tasks" display="none">
</g>
<g id="guide" display="none">
</g>
<g id="stroke" display="none">
	
		<circle display="inline" fill="none" stroke="#000000" stroke-width="2" stroke-linecap="round" stroke-linejoin="round" stroke-miterlimit="10" cx="32" cy="18.526" r="13.913"/>
	
		<path display="inline" fill="#A7A9AC" stroke="#000000" stroke-width="2" stroke-linecap="round" stroke-linejoin="round" stroke-miterlimit="10" d="
		M46.604,47.141h-6.229v-3.608l4.874-0.035c4.051-0.029,6.216-4.784,3.578-7.859l-4.942-5.761c-1.009-1.176-2.311-2.064-3.774-2.575
		l-4.094-1.428c2.597-1.422,4.359-4.18,4.359-7.349c0-4.625-3.75-8.375-8.375-8.375s-8.375,3.75-8.375,8.375
		c0,3.17,1.762,5.927,4.359,7.349l-4.094,1.428c-1.463,0.51-2.765,1.398-3.774,2.575l-4.942,5.761
		c-2.638,3.075-0.473,7.83,3.578,7.859l4.874,0.035v3.608h-6.229c-3.381,0-6.122,2.741-6.122,6.122v0
		c0,3.977,3.733,6.898,7.594,5.942L32,55.951l13.132,3.254c3.86,0.956,7.594-1.965,7.594-5.942v0
		C52.726,49.881,49.985,47.141,46.604,47.141z"/>
	
		<line display="inline" fill="none" stroke="#000000" stroke-width="2" stroke-linecap="round" stroke-linejoin="round" stroke-miterlimit="10" x1="24.953" y1="54.205" x2="32" y2="55.951"/>
	
		<path display="inline" fill="none" stroke="#000000" stroke-width="2" stroke-linecap="round" stroke-linejoin="round" stroke-miterlimit="10" d="
		M21.018,37.359h6.03l1.227-2.346c0.457-0.875,1.363-1.423,2.35-1.423H32v7.036c0,1.605-1.301,2.906-2.906,2.906h-5.469"/>
	
		<line display="inline" fill="none" stroke="#000000" stroke-width="2" stroke-linecap="round" stroke-linejoin="round" stroke-miterlimit="10" x1="23.625" y1="37.359" x2="23.625" y2="34.112"/>
	
		<path display="inline" fill="none" stroke="#000000" stroke-width="2" stroke-linecap="round" stroke-linejoin="round" stroke-miterlimit="10" d="
		M42.982,37.359h-6.03l-1.227-2.346c-0.457-0.875-1.363-1.423-2.35-1.423H32v7.036c0,1.605,1.301,2.906,2.906,2.906h5.469"/>
	
		<line display="inline" fill="none" stroke="#000000" stroke-width="2" stroke-linecap="round" stroke-linejoin="round" stroke-miterlimit="10" x1="40.375" y1="37.359" x2="40.375" y2="34.112"/>
	
		<line display="inline" fill="none" stroke="#000000" stroke-width="2" stroke-linecap="round" stroke-linejoin="round" stroke-miterlimit="10" x1="23.625" y1="47.141" x2="35.263" y2="47.141"/>
</g>
<g id="stroke_cut" display="none">
	<path display="inline" fill="none" stroke="#000000" stroke-width="2" stroke-linejoin="round" stroke-miterlimit="10" d="
		M41.98,28.22c2.43-2.5,3.93-5.92,3.93-9.69c0-7.69-6.23-13.92-13.91-13.92s-13.91,6.23-13.91,13.92c0,3.77,1.5,7.19,3.93,9.69"/>
	
		<path display="inline" fill="none" stroke="#000000" stroke-width="2" stroke-linecap="round" stroke-linejoin="round" stroke-miterlimit="10" d="
		M46.604,47.141h-6.229v-3.608l4.874-0.035c4.051-0.029,6.216-4.784,3.578-7.859l-4.942-5.761c-1.009-1.176-2.311-2.064-3.774-2.575
		l-4.094-1.428c2.597-1.422,4.359-4.18,4.359-7.349c0-4.625-3.75-8.375-8.375-8.375s-8.375,3.75-8.375,8.375
		c0,3.17,1.762,5.927,4.359,7.349l-4.094,1.428c-1.463,0.51-2.765,1.398-3.774,2.575l-4.942,5.761
		c-2.638,3.075-0.473,7.83,3.578,7.859l4.874,0.035v3.608h-6.229c-3.381,0-6.122,2.741-6.122,6.122v0
		c0,3.977,3.733,6.898,7.594,5.942L32,55.951l13.132,3.254c3.86,0.956,7.594-1.965,7.594-5.942v0
		C52.726,49.881,49.985,47.141,46.604,47.141z"/>
	
		<line display="inline" fill="none" stroke="#000000" stroke-width="2" stroke-linecap="round" stroke-linejoin="round" stroke-miterlimit="10" x1="24.953" y1="54.205" x2="32" y2="55.951"/>
	
		<path display="inline" fill="none" stroke="#000000" stroke-width="2" stroke-linecap="round" stroke-linejoin="round" stroke-miterlimit="10" d="
		M21.018,37.359h6.03l1.227-2.346c0.457-0.875,1.363-1.423,2.35-1.423H32v7.036c0,1.605-1.301,2.906-2.906,2.906h-5.469"/>
	
		<line display="inline" fill="none" stroke="#000000" stroke-width="2" stroke-linecap="round" stroke-linejoin="round" stroke-miterlimit="10" x1="23.625" y1="37.359" x2="23.625" y2="34.112"/>
	
		<path display="inline" fill="none" stroke="#000000" stroke-width="2" stroke-linecap="round" stroke-linejoin="round" stroke-miterlimit="10" d="
		M42.982,37.359h-6.03l-1.227-2.346c-0.457-0.875-1.363-1.423-2.35-1.423H32v7.036c0,1.605,1.301,2.906,2.906,2.906h5.469"/>
	
		<line display="inline" fill="none" stroke="#000000" stroke-width="2" stroke-linecap="round" stroke-linejoin="round" stroke-miterlimit="10" x1="40.375" y1="37.359" x2="40.375" y2="34.112"/>
	
		<line display="inline" fill="none" stroke="#000000" stroke-width="2" stroke-linecap="round" stroke-linejoin="round" stroke-miterlimit="10" x1="23.625" y1="47.141" x2="35.263" y2="47.141"/>
</g>
<g id="flat" display="none">
	<circle display="inline" fill="#ABE8E9" cx="32" cy="18.526" r="13.913"/>
	<path display="inline" fill="#44CCDF" d="M46.604,47.141h-6.229v-3.608l4.874-0.035c4.051-0.029,6.216-4.784,3.578-7.859
		l-4.942-5.761c-1.009-1.176-2.311-2.064-3.774-2.575l-4.094-1.428c2.597-1.422,4.359-4.18,4.359-7.349
		c0-4.625-3.75-8.375-8.375-8.375s-8.375,3.75-8.375,8.375c0,3.17,1.762,5.927,4.359,7.349l-4.094,1.428
		c-1.463,0.51-2.765,1.398-3.774,2.575l-4.942,5.761c-2.638,3.075-0.473,7.83,3.578,7.859l4.874,0.035v3.608h-6.229
		c-3.381,0-6.122,2.741-6.122,6.122v0c0,3.977,3.733,6.898,7.594,5.942L32,55.951l13.132,3.254c3.86,0.956,7.594-1.965,7.594-5.942
		v0C52.726,49.881,49.985,47.141,46.604,47.141z"/>
	<g display="inline">
		<path fill="#00A9C5" d="M40.982,36.359h-3.424l-0.947-1.809c-0.632-1.209-1.872-1.96-3.236-1.96H32h-1.375
			c-1.364,0-2.604,0.751-3.236,1.959l-0.947,1.81h-3.424c-0.552,0-1,0.447-1,1s0.448,1,1,1h4.03c0.372,0,0.713-0.207,0.886-0.536
			l1.228-2.347c0.286-0.546,0.847-0.886,1.463-0.886H31v6.036c0,1.051-0.855,1.905-1.906,1.905h-2.469c-0.552,0-1,0.447-1,1
			s0.448,1,1,1h2.469c1.159,0,2.19-0.517,2.906-1.321c0.716,0.804,1.747,1.321,2.906,1.321h2.469c0.552,0,1-0.447,1-1s-0.448-1-1-1
			h-2.469c-1.051,0-1.906-0.854-1.906-1.905v-6.036h0.375c0.617,0,1.178,0.34,1.463,0.887l1.228,2.346
			c0.173,0.329,0.514,0.536,0.886,0.536h4.03c0.552,0,1-0.447,1-1S41.535,36.359,40.982,36.359z"/>
	</g>
</g>
<g id="flat2" display="none">
	<circle display="inline" fill="#ABE8E9" cx="32" cy="18.526" r="13.913"/>
	<path display="inline" fill="#44CCDF" d="M46.604,47.141h-6.229v-3.608l4.874-0.035c4.051-0.029,6.216-4.784,3.578-7.859
		l-4.942-5.761c-1.009-1.176-2.311-2.064-3.774-2.575l-4.094-1.428c2.597-1.422,4.359-4.18,4.359-7.349
		c0-4.625-3.75-8.375-8.375-8.375s-8.375,3.75-8.375,8.375c0,3.17,1.762,5.927,4.359,7.349l-4.094,1.428
		c-1.463,0.51-2.765,1.398-3.774,2.575l-4.942,5.761c-2.638,3.075-0.473,7.83,3.578,7.859l4.874,0.035v3.608h-6.229
		c-3.381,0-6.122,2.741-6.122,6.122v0c0,3.977,3.733,6.898,7.594,5.942L32,55.951l13.132,3.254c3.86,0.956,7.594-1.965,7.594-5.942
		v0C52.726,49.881,49.985,47.141,46.604,47.141z"/>
</g>
<g id="outline" display="none">
	<path display="inline" d="M46.604,46.141h-5.229v-1.615l3.881-0.027c2.268-0.017,4.261-1.309,5.2-3.373
		c0.94-2.064,0.606-4.416-0.871-6.138l-4.942-5.761c-0.364-0.424-0.773-0.801-1.201-1.154c2.237-2.675,3.467-6.017,3.467-9.542
		c0-8.227-6.688-14.92-14.91-14.92s-14.91,6.693-14.91,14.92c0,3.525,1.23,6.867,3.467,9.542c-0.428,0.354-0.837,0.731-1.201,1.154
		l-4.942,5.761c-1.477,1.722-1.811,4.073-0.871,6.138c0.939,2.064,2.932,3.356,5.201,3.373l3.88,0.027v1.615h-5.229
		c-3.927,0-7.122,3.195-7.122,7.122c0,2.205,0.996,4.25,2.733,5.608c1.271,0.995,2.803,1.516,4.372,1.516
		c0.575,0,1.155-0.069,1.729-0.212L32,56.981l12.892,3.193c2.142,0.532,4.365,0.057,6.101-1.304
		c1.737-1.358,2.733-3.403,2.733-5.608C53.726,49.336,50.531,46.141,46.604,46.141z M19.09,18.53c0-7.124,5.792-12.92,12.91-12.92
		s12.91,5.796,12.91,12.92c0,3.121-1.117,6.077-3.14,8.418c-0.429-0.226-0.87-0.428-1.33-0.589l-2.256-0.787
		c2.004-1.76,3.191-4.315,3.191-7.046c0-5.169-4.206-9.375-9.375-9.375s-9.375,4.206-9.375,9.375c0,2.729,1.187,5.286,3.192,7.046
		l-2.256,0.787c-0.46,0.16-0.901,0.363-1.33,0.589C20.207,24.607,19.09,21.652,19.09,18.53z M18.758,42.498
		c-1.503-0.011-2.772-0.834-3.395-2.202c-0.623-1.367-0.41-2.865,0.568-4.006l4.942-5.761c0.894-1.042,2.051-1.83,3.345-2.281
		l4.094-1.428c0.373-0.13,0.635-0.468,0.667-0.861c0.033-0.395-0.169-0.771-0.516-0.96c-2.368-1.298-3.839-3.777-3.839-6.473
		c0-4.066,3.309-7.375,7.375-7.375c4.066,0,7.375,3.309,7.375,7.375c0,2.695-1.471,5.176-3.839,6.473
		c-0.347,0.189-0.549,0.565-0.516,0.96c0.033,0.394,0.294,0.731,0.667,0.861l4.094,1.428c1.294,0.451,2.451,1.24,3.344,2.281
		l4.942,5.761c0.979,1.141,1.191,2.639,0.568,4.006c-0.623,1.368-1.892,2.191-3.395,2.202l-10.336,0.034
		c-1.051,0-1.906-0.854-1.906-1.905v-6.036h0.375c0.617,0,1.178,0.34,1.463,0.887l1.228,2.346c0.173,0.329,0.514,0.536,0.886,0.536
		h4.03c0.552,0,1-0.447,1-1s-0.448-1-1-1h-3.424l-0.947-1.809c-0.632-1.209-1.872-1.96-3.236-1.96H32h-1.375
		c-1.364,0-2.604,0.751-3.236,1.959l-0.947,1.81h-3.424c-0.552,0-1,0.447-1,1s0.448,1,1,1h4.03c0.372,0,0.713-0.207,0.886-0.536
		l1.228-2.347c0.286-0.546,0.847-0.886,1.463-0.886H31v6.036c0,1.051-0.855,1.905-1.906,1.905L18.758,42.498z M49.76,57.296
		c-1.249,0.979-2.847,1.32-4.388,0.938l-13.128-3.252c-0.002,0-0.003-0.002-0.004-0.002l-7.047-1.745
		c-0.535-0.129-1.078,0.194-1.211,0.73s0.194,1.078,0.73,1.211l3.13,0.775l-9.215,2.283c-1.539,0.384-3.138,0.041-4.387-0.938
		c-1.25-0.978-1.966-2.447-1.966-4.033c0-2.824,2.297-5.122,5.122-5.122h6.229h6.397c0.552,0,1-0.447,1-1s-0.448-1-1-1h-5.397
		v-1.608h4.469c1.159,0,2.19-0.517,2.906-1.321c0.716,0.804,1.747,1.321,2.906,1.321h4.469v2.608c0,0.553,0.448,1,1,1h6.229
		c2.824,0,5.122,2.298,5.122,5.122C51.726,54.849,51.01,56.318,49.76,57.296z"/>
</g>
<g id="solid_stroke" display="none">
	
		<path display="inline" stroke="#000000" stroke-width="2" stroke-linecap="round" stroke-linejoin="round" stroke-miterlimit="10" d="
		M41.98,28.22c2.43-2.5,3.93-5.92,3.93-9.69c0-7.69-6.23-13.92-13.91-13.92s-13.91,6.23-13.91,13.92c0,3.77,1.5,7.19,3.93,9.69"/>
	
		<path display="inline" fill="#FFFFFF" stroke="#000000" stroke-width="2" stroke-linecap="round" stroke-linejoin="round" stroke-miterlimit="10" d="
		M46.604,47.141h-6.229v-3.608l4.874-0.035c4.051-0.029,6.216-4.784,3.578-7.859l-4.942-5.761c-1.009-1.176-2.311-2.064-3.774-2.575
		l-4.094-1.428c2.597-1.422,4.359-4.18,4.359-7.349c0-4.625-3.75-8.375-8.375-8.375s-8.375,3.75-8.375,8.375
		c0,3.17,1.762,5.927,4.359,7.349l-4.094,1.428c-1.463,0.51-2.765,1.398-3.774,2.575l-4.942,5.761
		c-2.638,3.075-0.473,7.83,3.578,7.859l4.874,0.035v3.608h-6.229c-3.381,0-6.122,2.741-6.122,6.122v0
		c0,3.977,3.733,6.898,7.594,5.942L32,55.951l13.132,3.254c3.86,0.956,7.594-1.965,7.594-5.942v0
		C52.726,49.881,49.985,47.141,46.604,47.141z"/>
	
		<line display="inline" fill="none" stroke="#000000" stroke-width="2" stroke-linecap="round" stroke-linejoin="round" stroke-miterlimit="10" x1="24.953" y1="54.205" x2="32" y2="55.951"/>
	
		<path display="inline" fill="none" stroke="#000000" stroke-width="2" stroke-linecap="round" stroke-linejoin="round" stroke-miterlimit="10" d="
		M21.018,37.359h6.03l1.227-2.346c0.457-0.875,1.363-1.423,2.35-1.423H32v7.036c0,1.605-1.301,2.906-2.906,2.906h-5.469"/>
	
		<line display="inline" fill="none" stroke="#000000" stroke-width="2" stroke-linecap="round" stroke-linejoin="round" stroke-miterlimit="10" x1="23.625" y1="37.359" x2="23.625" y2="34.112"/>
	
		<path display="inline" fill="none" stroke="#000000" stroke-width="2" stroke-linecap="round" stroke-linejoin="round" stroke-miterlimit="10" d="
		M42.982,37.359h-6.03l-1.227-2.346c-0.457-0.875-1.363-1.423-2.35-1.423H32v7.036c0,1.605,1.301,2.906,2.906,2.906h5.469"/>
	
		<line display="inline" fill="none" stroke="#000000" stroke-width="2" stroke-linecap="round" stroke-linejoin="round" stroke-miterlimit="10" x1="40.375" y1="37.359" x2="40.375" y2="34.112"/>
	
		<line display="inline" fill="none" stroke="#000000" stroke-width="2" stroke-linecap="round" stroke-linejoin="round" stroke-miterlimit="10" x1="23.625" y1="47.141" x2="35.263" y2="47.141"/>
</g>
<g id="solid">
	<path d="M46.604,46.141h-5.229v-1.615l3.881-0.027c2.268-0.017,4.261-1.309,5.2-3.373c0.94-2.064,0.606-4.416-0.871-6.138
		l-4.942-5.761c-0.365-0.426-0.777-0.804-1.207-1.159c2.238-2.674,3.473-6.013,3.473-9.537c0-8.227-6.688-14.92-14.91-14.92
		s-14.91,6.693-14.91,14.92c0,3.525,1.236,6.863,3.473,9.537c-0.43,0.355-0.842,0.733-1.207,1.159l-4.942,5.761
		c-1.477,1.722-1.811,4.073-0.871,6.138c0.939,2.064,2.932,3.356,5.201,3.373l3.88,0.027v1.615h-5.229
		c-3.927,0-7.122,3.195-7.122,7.122c0,2.205,0.996,4.25,2.733,5.608c1.271,0.995,2.803,1.516,4.372,1.516
		c0.575,0,1.155-0.069,1.729-0.212L32,56.981l12.892,3.193c2.142,0.532,4.365,0.057,6.101-1.304
		c1.737-1.358,2.733-3.403,2.733-5.608C53.726,49.336,50.531,46.141,46.604,46.141z M18.758,42.498
		c-1.503-0.011-2.772-0.834-3.395-2.202c-0.623-1.367-0.41-2.865,0.568-4.006l4.942-5.761c0.894-1.042,2.051-1.83,3.345-2.281
		l4.094-1.428c0.373-0.13,0.635-0.468,0.667-0.861c0.033-0.395-0.169-0.771-0.516-0.96c-2.368-1.298-3.839-3.777-3.839-6.473
		c0-4.066,3.309-7.375,7.375-7.375c4.066,0,7.375,3.309,7.375,7.375c0,2.695-1.471,5.176-3.839,6.473
		c-0.347,0.189-0.549,0.565-0.516,0.96c0.033,0.394,0.294,0.731,0.667,0.861l4.094,1.428c1.294,0.451,2.451,1.24,3.344,2.281
		l4.942,5.761c0.979,1.141,1.191,2.639,0.568,4.006c-0.623,1.368-1.892,2.191-3.395,2.202l-4.874,0.034h-5.462
		c-1.051,0-1.906-0.854-1.906-1.905v-6.036h0.375c0.617,0,1.178,0.34,1.463,0.887l1.228,2.346c0.173,0.329,0.514,0.536,0.886,0.536
		h4.03c0.552,0,1-0.447,1-1s-0.448-1-1-1h-3.424l-0.947-1.809c-0.632-1.209-1.872-1.96-3.236-1.96H32h-1.375
		c-1.364,0-2.604,0.751-3.236,1.959l-0.947,1.81h-3.424c-0.552,0-1,0.447-1,1s0.448,1,1,1h4.03c0.372,0,0.713-0.207,0.886-0.536
		l1.228-2.347c0.286-0.546,0.847-0.886,1.463-0.886H31v6.036c0,1.051-0.855,1.905-1.906,1.905h-5.462L18.758,42.498z M49.76,57.296
		c-1.249,0.979-2.847,1.32-4.388,0.938l-13.128-3.252c-0.002,0-0.003-0.002-0.004-0.002l-7.047-1.745
		c-0.535-0.129-1.078,0.194-1.211,0.73s0.194,1.078,0.73,1.211l3.13,0.775l-9.215,2.283c-1.539,0.384-3.138,0.041-4.387-0.938
		c-1.25-0.978-1.966-2.447-1.966-4.033c0-2.824,2.297-5.122,5.122-5.122H30c0.552,0,1-0.447,1-1s-0.448-1-1-1h-5.375v-1.608h4.469
		c1.159,0,2.19-0.517,2.906-1.321c0.716,0.804,1.747,1.321,2.906,1.321h4.469v2.608c0,0.553,0.448,1,1,1h6.229
		c2.824,0,5.122,2.298,5.122,5.122C51.726,54.849,51.01,56.318,49.76,57.296z"/>
</g>
<g id="Filled_outline" display="none">
	<circle display="inline" fill="#ABE8E9" cx="32" cy="18.526" r="13.913"/>
	<path display="inline" fill="#44CCDF" d="M46.604,47.141h-6.229v-3.608l4.874-0.035c4.051-0.029,6.216-4.784,3.578-7.859
		l-4.942-5.761c-1.009-1.176-2.311-2.064-3.774-2.575l-4.094-1.428c2.597-1.422,4.359-4.18,4.359-7.349
		c0-4.625-3.75-8.375-8.375-8.375s-8.375,3.75-8.375,8.375c0,3.17,1.762,5.927,4.359,7.349l-4.094,1.428
		c-1.463,0.51-2.765,1.398-3.774,2.575l-4.942,5.761c-2.638,3.075-0.473,7.83,3.578,7.859l4.874,0.035v3.608h-6.229
		c-3.381,0-6.122,2.741-6.122,6.122v0c0,3.977,3.733,6.898,7.594,5.942L32,55.951l13.132,3.254c3.86,0.956,7.594-1.965,7.594-5.942
		v0C52.726,49.881,49.985,47.141,46.604,47.141z"/>
	<path display="inline" d="M46.604,46.141h-5.229v-1.615l3.881-0.027c2.268-0.017,4.261-1.309,5.2-3.373
		c0.94-2.064,0.606-4.416-0.871-6.138l-4.942-5.761c-0.364-0.424-0.773-0.801-1.201-1.154c2.237-2.675,3.467-6.017,3.467-9.542
		c0-8.227-6.688-14.92-14.91-14.92s-14.91,6.693-14.91,14.92c0,3.525,1.23,6.867,3.467,9.542c-0.428,0.354-0.837,0.731-1.201,1.154
		l-4.942,5.761c-1.477,1.722-1.811,4.073-0.871,6.138c0.939,2.064,2.932,3.356,5.201,3.373l3.88,0.027v1.615h-5.229
		c-3.927,0-7.122,3.195-7.122,7.122c0,2.205,0.996,4.25,2.733,5.608c1.271,0.995,2.803,1.516,4.372,1.516
		c0.575,0,1.155-0.069,1.729-0.212L32,56.981l12.892,3.193c2.142,0.532,4.365,0.057,6.101-1.304
		c1.737-1.358,2.733-3.403,2.733-5.608C53.726,49.336,50.531,46.141,46.604,46.141z M19.09,18.53c0-7.124,5.792-12.92,12.91-12.92
		s12.91,5.796,12.91,12.92c0,3.121-1.117,6.077-3.14,8.418c-0.429-0.226-0.87-0.428-1.33-0.589l-2.256-0.787
		c2.004-1.76,3.191-4.315,3.191-7.046c0-5.169-4.206-9.375-9.375-9.375s-9.375,4.206-9.375,9.375c0,2.729,1.187,5.286,3.192,7.046
		l-2.256,0.787c-0.46,0.16-0.901,0.363-1.33,0.589C20.207,24.607,19.09,21.652,19.09,18.53z M18.758,42.498
		c-1.503-0.011-2.772-0.834-3.395-2.202c-0.623-1.367-0.41-2.865,0.568-4.006l4.942-5.761c0.894-1.042,2.051-1.83,3.345-2.281
		l4.094-1.428c0.373-0.13,0.635-0.468,0.667-0.861c0.033-0.395-0.169-0.771-0.516-0.96c-2.368-1.298-3.839-3.777-3.839-6.473
		c0-4.066,3.309-7.375,7.375-7.375c4.066,0,7.375,3.309,7.375,7.375c0,2.695-1.471,5.176-3.839,6.473
		c-0.347,0.189-0.549,0.565-0.516,0.96c0.033,0.394,0.294,0.731,0.667,0.861l4.094,1.428c1.294,0.451,2.451,1.24,3.344,2.281
		l4.942,5.761c0.979,1.141,1.191,2.639,0.568,4.006c-0.623,1.368-1.892,2.191-3.395,2.202l-10.336,0.034
		c-1.051,0-1.906-0.854-1.906-1.905v-6.036h0.375c0.617,0,1.178,0.34,1.463,0.887l1.228,2.346c0.173,0.329,0.514,0.536,0.886,0.536
		h4.03c0.552,0,1-0.447,1-1s-0.448-1-1-1h-3.424l-0.947-1.809c-0.632-1.209-1.872-1.96-3.236-1.96H32h-1.375
		c-1.364,0-2.604,0.751-3.236,1.959l-0.947,1.81h-3.424c-0.552,0-1,0.447-1,1s0.448,1,1,1h4.03c0.372,0,0.713-0.207,0.886-0.536
		l1.228-2.347c0.286-0.546,0.847-0.886,1.463-0.886H31v6.036c0,1.051-0.855,1.905-1.906,1.905L18.758,42.498z M49.76,57.296
		c-1.249,0.979-2.847,1.32-4.388,0.938l-13.128-3.252c-0.002,0-0.003-0.002-0.004-0.002l-7.047-1.745
		c-0.535-0.129-1.078,0.194-1.211,0.73s0.194,1.078,0.73,1.211l3.13,0.775l-9.215,2.283c-1.539,0.384-3.138,0.041-4.387-0.938
		c-1.25-0.978-1.966-2.447-1.966-4.033c0-2.824,2.297-5.122,5.122-5.122h6.229h6.397c0.552,0,1-0.447,1-1s-0.448-1-1-1h-5.397
		v-1.608h4.469c1.159,0,2.19-0.517,2.906-1.321c0.716,0.804,1.747,1.321,2.906,1.321h4.469v2.608c0,0.553,0.448,1,1,1h6.229
		c2.824,0,5.122,2.298,5.122,5.122C51.726,54.849,51.01,56.318,49.76,57.296z"/>
</g>
</svg>
