<?xml version="1.0" encoding="utf-8"?>
<!-- Generator: Adobe Illustrator 25.4.1, SVG Export Plug-In . SVG Version: 6.00 Build 0)  -->
<svg version="1.1" xmlns="http://www.w3.org/2000/svg" xmlns:xlink="http://www.w3.org/1999/xlink" x="0px" y="0px"
	 viewBox="0 0 64 64" enable-background="new 0 0 64 64" xml:space="preserve">
<g id="text" display="none">
</g>
<g id="tasks" display="none">
</g>
<g id="guide" display="none">
</g>
<g id="stroke" display="none">
	
		<path display="inline" fill="#A7A9AC" stroke="#000000" stroke-width="2" stroke-linecap="round" stroke-linejoin="round" stroke-miterlimit="10" d="
		M28.158,59.452l-0.89-4.285c-0.244-1.175-1.28-2.018-2.48-2.018h-5.517c-3.01,0-5.585-2.162-6.106-5.127l-1.282-7.301L8.4,39.102
		c-1.154-0.537-1.565-1.971-0.871-3.038l4.353-6.69v-3.287c0-11.896,9.643-21.539,21.539-21.539h1.476
		c9.921,0,18.604,6.665,21.168,16.249l0,0c1.547,5.78,0.662,11.942-2.449,17.054l-4.146,6.813c-1.502,2.468-2.01,5.414-1.422,8.242
		l1.36,6.546H28.158z"/>
	
		<path display="inline" fill="#A7A9AC" stroke="#000000" stroke-width="2" stroke-linecap="round" stroke-linejoin="round" stroke-miterlimit="10" d="
		M42.138,13.535c-1.991-1.645-4.958-1.349-6.784,0.477l-1.064,1.064l-1.064-1.064c-1.826-1.826-4.792-2.122-6.784-0.477
		c-2.284,1.887-2.404,5.276-0.36,7.321l6.513,6.513c0.936,0.936,2.454,0.936,3.39,0l6.513-6.513
		C44.542,18.811,44.422,15.421,42.138,13.535z"/>
	
		<path display="inline" fill="none" stroke="#000000" stroke-width="2" stroke-linecap="round" stroke-linejoin="round" stroke-miterlimit="10" d="
		M21.988,29.355c-0.75,0.584-1.752,0.939-2.85,0.939c-1.098,0-2.1-0.355-2.85-0.939"/>
</g>
<g id="stroke_cut" display="none">
	
		<path display="inline" fill="none" stroke="#000000" stroke-width="2" stroke-linecap="round" stroke-linejoin="round" stroke-miterlimit="10" d="
		M28.158,59.452l-0.89-4.285c-0.244-1.175-1.28-2.018-2.48-2.018h-5.517c-3.01,0-5.585-2.162-6.106-5.127l-1.282-7.301L8.4,39.102
		c-1.154-0.537-1.565-1.971-0.871-3.038l4.353-6.69v-3.287c0-11.896,9.643-21.539,21.539-21.539h1.476
		c9.921,0,18.604,6.665,21.168,16.249l0,0c1.547,5.78,0.662,11.942-2.449,17.054l-4.146,6.813c-1.502,2.468-2.01,5.414-1.422,8.242
		l1.36,6.546H28.158z"/>
	
		<path display="inline" fill="none" stroke="#000000" stroke-width="2" stroke-linecap="round" stroke-linejoin="round" stroke-miterlimit="10" d="
		M42.138,13.535c-1.991-1.645-4.958-1.349-6.784,0.477l-1.064,1.064l-1.064-1.064c-1.826-1.826-4.792-2.122-6.784-0.477
		c-2.284,1.887-2.404,5.276-0.36,7.321l6.513,6.513c0.936,0.936,2.454,0.936,3.39,0l6.513-6.513
		C44.542,18.811,44.422,15.421,42.138,13.535z"/>
	
		<path display="inline" fill="none" stroke="#000000" stroke-width="2" stroke-linecap="round" stroke-linejoin="round" stroke-miterlimit="10" d="
		M21.988,29.355c-0.75,0.584-1.752,0.939-2.85,0.939c-1.098,0-2.1-0.355-2.85-0.939"/>
</g>
<g id="flat" display="none">
	<path display="inline" fill="#FFC588" d="M28.158,59.452l-0.89-4.285c-0.244-1.175-1.28-2.018-2.48-2.018h-5.517
		c-3.01,0-5.585-2.162-6.106-5.127l-1.282-7.301L8.4,39.102c-1.154-0.537-1.565-1.971-0.871-3.038l4.353-6.69v-3.287
		c0-11.896,9.643-21.539,21.539-21.539h1.476c9.921,0,18.604,6.665,21.168,16.249l0,0c1.547,5.78,0.662,11.942-2.449,17.054
		l-4.146,6.813c-1.502,2.468-2.01,5.414-1.422,8.242l1.36,6.546H28.158z"/>
	<path display="inline" fill="#FB5058" d="M42.138,13.535c-1.991-1.645-4.958-1.349-6.784,0.477l-1.064,1.064l-1.064-1.064
		c-1.826-1.826-4.792-2.122-6.784-0.477c-2.284,1.887-2.404,5.276-0.36,7.321l6.513,6.513c0.936,0.936,2.454,0.936,3.39,0
		l6.513-6.513C44.542,18.811,44.422,15.421,42.138,13.535z"/>
	<g display="inline">
		<path fill="#FA9F4D" d="M19.138,31.294c-1.282,0-2.512-0.409-3.465-1.15c-0.436-0.339-0.514-0.968-0.175-1.403
			c0.34-0.436,0.968-0.514,1.403-0.175c1.207,0.939,3.265,0.94,4.472,0c0.435-0.339,1.063-0.262,1.403,0.175
			c0.339,0.436,0.261,1.064-0.175,1.403C21.649,30.886,20.419,31.294,19.138,31.294z"/>
	</g>
</g>
<g id="flat2" display="none">
	<path display="inline" fill="#FFC588" d="M28.158,59.452l-0.89-4.285c-0.244-1.175-1.28-2.018-2.48-2.018h-5.517
		c-3.01,0-5.585-2.162-6.106-5.127l-1.282-7.301L8.4,39.102c-1.154-0.537-1.565-1.971-0.871-3.038l4.353-6.69v-3.287
		c0-11.896,9.643-21.539,21.539-21.539h1.476c9.921,0,18.604,6.665,21.168,16.249l0,0c1.547,5.78,0.662,11.942-2.449,17.054
		l-4.146,6.813c-1.502,2.468-2.01,5.414-1.422,8.242l1.36,6.546H28.158z"/>
	<path display="inline" fill="#FB5058" d="M42.138,13.535c-1.991-1.645-4.958-1.349-6.784,0.477l-1.064,1.064l-1.064-1.064
		c-1.826-1.826-4.792-2.122-6.784-0.477c-2.284,1.887-2.404,5.276-0.36,7.321l6.513,6.513c0.936,0.936,2.454,0.936,3.39,0
		l6.513-6.513C44.542,18.811,44.422,15.421,42.138,13.535z"/>
</g>
<g id="outline" display="none">
	<path display="inline" d="M49.409,60.452h-21.25c-0.474,0-0.883-0.333-0.979-0.796l-0.891-4.286
		c-0.147-0.708-0.778-1.221-1.501-1.221h-5.517c-3.502,0-6.484-2.504-7.091-5.953l-1.192-6.788l-3.01-1.399
		c-0.813-0.378-1.421-1.089-1.668-1.951s-0.108-1.787,0.381-2.539l4.191-6.441v-2.99c0-12.428,10.111-22.539,22.539-22.539h1.476
		c10.355,0,19.457,6.987,22.134,16.991c1.609,6.014,0.676,12.513-2.56,17.832l-4.146,6.813c-1.375,2.259-1.835,4.929-1.298,7.519
		l1.36,6.546c0.062,0.295-0.013,0.601-0.203,0.834S49.709,60.452,49.409,60.452z M28.972,58.452H48.18l-1.11-5.343
		c-0.642-3.088-0.092-6.272,1.547-8.966l4.146-6.813c2.954-4.854,3.806-10.786,2.337-16.275
		c-2.443-9.13-10.751-15.507-20.202-15.507h-1.476c-11.325,0-20.539,9.214-20.539,20.539v3.287c0,0.194-0.056,0.383-0.162,0.545
		l-4.354,6.69c-0.175,0.27-0.223,0.587-0.135,0.896c0.089,0.309,0.298,0.554,0.589,0.689l3.482,1.62
		c0.296,0.138,0.506,0.412,0.563,0.734l1.282,7.301c0.438,2.491,2.592,4.299,5.121,4.299h5.517c1.666,0,3.12,1.184,3.459,2.814
		L28.972,58.452z M34.29,29.068c-0.87,0-1.74-0.331-2.402-0.993l-6.513-6.513c-1.182-1.182-1.814-2.817-1.734-4.487
		c0.079-1.669,0.868-3.24,2.165-4.311c2.33-1.924,5.9-1.686,8.128,0.541l0.356,0.356l0.357-0.356
		c2.228-2.229,5.798-2.465,8.127-0.541l0,0c1.296,1.07,2.085,2.642,2.165,4.311c0.079,1.67-0.553,3.306-1.735,4.488l-6.513,6.513
		C36.03,28.737,35.16,29.068,34.29,29.068z M29.5,13.458c-0.873,0-1.731,0.279-2.421,0.848c-0.875,0.723-1.387,1.74-1.44,2.864
		c-0.053,1.109,0.367,2.194,1.151,2.979l6.513,6.513c0.545,0.545,1.431,0.545,1.976,0l6.513-6.513
		c0.784-0.784,1.204-1.87,1.151-2.979c-0.053-1.124-0.565-2.141-1.44-2.864l0,0c-1.543-1.275-3.934-1.094-5.44,0.413l-1.064,1.064
		c-0.188,0.188-0.442,0.293-0.707,0.293l0,0c-0.265,0-0.52-0.105-0.707-0.293l-1.063-1.064C31.686,13.885,30.582,13.458,29.5,13.458
		z M22.602,30.144c0.436-0.339,0.514-0.968,0.175-1.403c-0.34-0.437-0.968-0.514-1.403-0.175c-1.208,0.94-3.266,0.939-4.472,0
		c-0.435-0.339-1.063-0.261-1.403,0.175c-0.339,0.436-0.261,1.064,0.175,1.403c0.953,0.742,2.183,1.15,3.465,1.15
		C20.419,31.294,21.649,30.886,22.602,30.144z"/>
</g>
<g id="solid_stroke" display="none">
	
		<path display="inline" stroke="#000000" stroke-width="2" stroke-linecap="round" stroke-linejoin="round" stroke-miterlimit="10" d="
		M28.158,59.452l-0.89-4.285c-0.244-1.175-1.28-2.018-2.48-2.018h-5.517c-3.01,0-5.585-2.162-6.106-5.127l-1.282-7.301L8.4,39.102
		c-1.154-0.537-1.565-1.971-0.871-3.038l4.353-6.69v-3.287c0-11.896,9.643-21.539,21.539-21.539h1.476
		c9.921,0,18.604,6.665,21.168,16.249l0,0c1.547,5.78,0.662,11.942-2.449,17.054l-4.146,6.813c-1.502,2.468-2.01,5.414-1.422,8.242
		l1.36,6.546H28.158z"/>
	<path display="inline" fill="#FFFFFF" d="M42.138,13.535c-1.991-1.645-4.958-1.349-6.784,0.477l-1.064,1.064l-1.064-1.064
		c-1.826-1.826-4.792-2.122-6.784-0.477c-2.284,1.887-2.404,5.276-0.36,7.321l6.513,6.513c0.936,0.936,2.454,0.936,3.39,0
		l6.513-6.513C44.542,18.811,44.422,15.421,42.138,13.535z"/>
	
		<path display="inline" fill="none" stroke="#FFFFFF" stroke-width="2" stroke-linecap="round" stroke-linejoin="round" stroke-miterlimit="10" d="
		M21.988,29.355c-0.75,0.584-1.752,0.939-2.85,0.939c-1.098,0-2.1-0.355-2.85-0.939"/>
</g>
<g id="solid">
	<path d="M54.471,38.371c3.236-5.319,4.169-11.818,2.56-17.832C54.354,10.535,45.253,3.548,34.897,3.548h-1.476
		c-12.428,0-22.539,10.111-22.539,22.539v2.99l-4.191,6.441c-0.489,0.751-0.628,1.677-0.381,2.539s0.855,1.573,1.668,1.951
		l3.01,1.399l1.192,6.788c0.606,3.449,3.588,5.953,7.091,5.953h5.517c0.723,0,1.354,0.514,1.501,1.221l0.891,4.286
		c0.096,0.464,0.505,0.796,0.979,0.796h21.25c0.301,0,0.586-0.136,0.776-0.369s0.265-0.54,0.203-0.834l-1.36-6.546
		c-0.538-2.59-0.077-5.26,1.298-7.519L54.471,38.371z M22.602,30.144c-0.953,0.742-2.183,1.15-3.464,1.15
		c-1.282,0-2.512-0.409-3.465-1.15c-0.436-0.339-0.514-0.968-0.175-1.403c0.34-0.436,0.968-0.514,1.403-0.175
		c1.207,0.939,3.265,0.94,4.472,0c0.435-0.339,1.063-0.262,1.403,0.175C23.116,29.176,23.038,29.805,22.602,30.144z M42.498,20.855
		l-6.513,6.513c-0.936,0.936-2.453,0.936-3.39,0l-6.513-6.513c-2.044-2.044-1.925-5.434,0.36-7.321
		c1.991-1.645,4.958-1.349,6.784,0.477l1.064,1.064l1.064-1.064c1.826-1.826,4.792-2.122,6.784-0.477
		C44.422,15.421,44.542,18.811,42.498,20.855z"/>
</g>
<g id="Filled_outline" display="none">
	<path display="inline" fill="#FFC588" d="M28.158,59.452l-0.89-4.285c-0.244-1.175-1.28-2.018-2.48-2.018h-5.517
		c-3.01,0-5.585-2.162-6.106-5.127l-1.282-7.301L8.4,39.102c-1.154-0.537-1.565-1.971-0.871-3.038l4.353-6.69v-3.287
		c0-11.896,9.643-21.539,21.539-21.539h1.476c9.921,0,18.604,6.665,21.168,16.249l0,0c1.547,5.78,0.662,11.942-2.449,17.054
		l-4.146,6.813c-1.502,2.468-2.01,5.414-1.422,8.242l1.36,6.546H28.158z"/>
	<path display="inline" fill="#FB5058" d="M42.138,13.535c-1.991-1.645-4.958-1.349-6.784,0.477l-1.064,1.064l-1.064-1.064
		c-1.826-1.826-4.792-2.122-6.784-0.477c-2.284,1.887-2.404,5.276-0.36,7.321l6.513,6.513c0.936,0.936,2.454,0.936,3.39,0
		l6.513-6.513C44.542,18.811,44.422,15.421,42.138,13.535z"/>
	<path display="inline" d="M49.409,60.452h-21.25c-0.474,0-0.883-0.333-0.979-0.796l-0.891-4.286
		c-0.147-0.708-0.778-1.221-1.501-1.221h-5.517c-3.502,0-6.484-2.504-7.091-5.953l-1.192-6.788l-3.01-1.399
		c-0.813-0.378-1.421-1.089-1.668-1.951s-0.108-1.787,0.381-2.539l4.191-6.441v-2.99c0-12.428,10.111-22.539,22.539-22.539h1.476
		c10.355,0,19.457,6.987,22.134,16.991c1.609,6.014,0.676,12.513-2.56,17.832l-4.146,6.813c-1.375,2.259-1.835,4.929-1.298,7.519
		l1.36,6.546c0.062,0.295-0.013,0.601-0.203,0.834S49.709,60.452,49.409,60.452z M28.972,58.452H48.18l-1.11-5.343
		c-0.642-3.088-0.092-6.272,1.547-8.966l4.146-6.813c2.954-4.854,3.806-10.786,2.337-16.275
		c-2.443-9.13-10.751-15.507-20.202-15.507h-1.476c-11.325,0-20.539,9.214-20.539,20.539v3.287c0,0.194-0.056,0.383-0.162,0.545
		l-4.354,6.69c-0.175,0.27-0.223,0.587-0.135,0.896c0.089,0.309,0.298,0.554,0.589,0.689l3.482,1.62
		c0.296,0.138,0.506,0.412,0.563,0.734l1.282,7.301c0.438,2.491,2.592,4.299,5.121,4.299h5.517c1.666,0,3.12,1.184,3.459,2.814
		L28.972,58.452z M34.29,29.068c-0.87,0-1.74-0.331-2.402-0.993l-6.513-6.513c-1.182-1.182-1.814-2.817-1.734-4.487
		c0.079-1.669,0.868-3.24,2.165-4.311c2.33-1.924,5.9-1.686,8.128,0.541l0.356,0.356l0.357-0.356
		c2.228-2.229,5.798-2.465,8.127-0.541l0,0c1.296,1.07,2.085,2.642,2.165,4.311c0.079,1.67-0.553,3.306-1.735,4.488l-6.513,6.513
		C36.03,28.737,35.16,29.068,34.29,29.068z M29.5,13.458c-0.873,0-1.731,0.279-2.421,0.848c-0.875,0.723-1.387,1.74-1.44,2.864
		c-0.053,1.109,0.367,2.194,1.151,2.979l6.513,6.513c0.545,0.545,1.431,0.545,1.976,0l6.513-6.513
		c0.784-0.784,1.204-1.87,1.151-2.979c-0.053-1.124-0.565-2.141-1.44-2.864l0,0c-1.543-1.275-3.934-1.094-5.44,0.413l-1.064,1.064
		c-0.188,0.188-0.442,0.293-0.707,0.293l0,0c-0.265,0-0.52-0.105-0.707-0.293l-1.063-1.064C31.686,13.885,30.582,13.458,29.5,13.458
		z M22.602,30.144c0.436-0.339,0.514-0.968,0.175-1.403c-0.34-0.437-0.968-0.514-1.403-0.175c-1.208,0.94-3.266,0.939-4.472,0
		c-0.435-0.339-1.063-0.261-1.403,0.175c-0.339,0.436-0.261,1.064,0.175,1.403c0.953,0.742,2.183,1.15,3.465,1.15
		C20.419,31.294,21.649,30.886,22.602,30.144z"/>
</g>
</svg>
