<?xml version="1.0" encoding="utf-8"?>
<!-- Generator: Adobe Illustrator 18.0.0, SVG Export Plug-In . SVG Version: 6.00 Build 0)  -->
<!DOCTYPE svg PUBLIC "-//W3C//DTD SVG 1.0//EN" "http://www.w3.org/TR/2001/REC-SVG-20010904/DTD/svg10.dtd">
<svg version="1.0" id="Layer_1" xmlns="http://www.w3.org/2000/svg" xmlns:xlink="http://www.w3.org/1999/xlink" x="0px" y="0px"
	 viewBox="0 0 1080 1296" enable-background="new 0 0 1080 1296" xml:space="preserve">
<g>
	<g>
		<path d="M197.1,630.6c-4.4-0.2-8.9-0.2-13.3-0.5c-18.3-1.4-36.6-2.9-55-2.3c-11.8,0.4-23.6,0-35.3,1.9c-4.6,0.7-9,1.8-13.3,3.4
			c-2,0.7-3.1,2-3.1,4c0,1.9,1.4,3,3.3,3.6c1.2,0.4,2.5,0.7,3.5,1c4.4,0.7,8.6,1.3,12.8,1.4c15.4,0.4,30.8-1.1,46.1-2.2
			c18.3-1.3,36.2-5.7,54.4-7.4c1-0.1,2.2-0.3,2.2-1.5C199.5,630.6,198.2,630.6,197.1,630.6z"/>
		<path d="M85.9,508.7c12.2,11.7,27.2,19.5,43.6,25.3c4.6,1.6,9.7,2.3,14.1,4.2c11,4.8,21.8,10,32.7,15.1c6.2,2.9,12.4,5.8,18.6,8.8
			c1,0.5,2.1,0.9,2.9-0.3c0.8-1.1,0.4-2-0.7-2.8c-0.5-0.3-0.9-0.6-1.4-0.9c-4.6-2.8-9.1-5.7-13.8-8.3c-15.5-8.4-29.6-18.8-46.5-25.2
			c-13.2-4.9-24.7-12.5-36.1-20.2c-4.8-3.2-10-6-16.3-7.8c-0.8-0.1-2.1,0-2.9,1.1c-1.1,1.4-1,2.8-0.1,4.2
			C81.8,504.5,83.8,506.6,85.9,508.7z"/>
		<path d="M183.7,709.3c-14.9,6.1-30.2,11.2-44.3,18.7c-10.4,5.5-19.7,12-26.3,21.3c-1.2,1.7-1.8,3.3-0.3,5c1.6,1.8,3.6,1.8,5.7,1.1
			c4.6-1.5,9-3.4,13.1-5.8c18.7-10.9,36.7-22.6,54.5-34.6c0.9-0.6,1.8-1.2,1.9-2c0.4-1.6,0.1-2.7-1-3.5
			C186.1,708.7,184.9,708.8,183.7,709.3z"/>
		<path d="M195.3,598.1c-4.4-2.1-8.8-4.1-13.2-6.2c-1.8-0.9-3.7-1.5-5.8-1.4c-2.8,0.1-4.1,2-2.9,4.3c0.9,1.7,2.4,2.9,4.2,3.9
			c4.3,2.3,8.9,4,13.7,5.3c0.4,0.1,0.9,0.2,1.3,0.4c2.2,0.8,4,0.5,5-1.7C198.5,600.7,197.8,599.3,195.3,598.1z"/>
		<path d="M175,677.2c2.3-1,3.3-3,2.5-4.9c-0.9-2-2.5-3-5-2.7c-1.8,0.2-3.6,0.4-5.5,0.5c-3.1,0.3-4.8,1.5-5,3.7
			c-0.2,2.2,1.3,3.7,5.4,4.5C169.4,678.7,172.3,678.4,175,677.2z"/>
	</g>
	<g>
		<path d="M568.6,937.2c-3.2,0-5.8,0.8-7.7,2.4c-1.9,1.6-3.7,3.5-5.4,5.7c-1.4,1.8-2.7,3.7-3.9,5.5c-1.2,1.8-2.4,3.7-3.7,5.5
			c-1.9,2.8-4.4,5.9-7.3,9.3c-3,3.5-6.2,6.7-9.9,9.8c-3.6,3.1-7.4,5.6-11.4,7.7c-4,2.1-7.9,3.1-11.8,3.1c-6.8,0-12.7-1.9-17.6-5.7
			c-4.9-3.8-9-8.7-12.4-14.8c-3.3-6.1-6-12.9-8-20.4c-2-7.6-3.5-15.1-4.6-22.7c-1.1-7.6-1.8-14.7-2.1-21.4
			c-0.3-6.7-0.5-12.2-0.5-16.4c0-8.3,0.4-17.6,1.3-28c0.8-10.4,2.1-20.9,3.9-31.5c1.7-10.6,4-20.9,6.8-30.9c2.8-10,6.1-18.7,10-26.2
			c1.2-2.3,2.4-4.4,3.8-6.4c1.4-2,2.8-3.9,4.3-5.9c0.1-0.1,0.2-0.3,0.2-0.7c0-0.6-0.3-1.1-0.9-1.5c-0.6-0.4-1.3-0.7-2-1
			c-0.8-0.2-1.5-0.4-2.3-0.5c-0.8-0.1-1.4-0.2-1.7-0.2c-3.3,0-6.4,0.7-9.1,2.1c-2.3,1.2-4.8,3.1-7.3,5.8c-2.6,2.7-5.2,5.9-7.8,9.7
			c-2.6,3.7-5.3,7.9-7.9,12.4c-2.6,4.5-5.3,9.1-7.8,13.8c-2.5,4.7-4.8,9.5-7.1,14.2c-2.3,4.7-4.5,9.2-6.5,13.5
			c-2,4.3-3.8,8.2-5.4,11.8c-1.6,3.6-2.9,6.6-4,9c-3.7,8.6-7.5,17.3-11.2,25.9c-3.7,8.6-7.8,17.2-12.2,25.6c-0.5,1.2-1.4,3-2.8,5.4
			c-1.4,2.5-2.8,5-4.4,7.5c-1.6,2.5-3.3,4.8-5.1,6.7c-1.8,1.9-3.4,2.9-4.8,2.9c-0.8,0-1.4-0.3-2-0.8c-0.6-0.5-1.1-1.1-1.4-1.6
			c-1.8-2.8-3.4-5.6-4.9-8.6c-1.5-2.9-2.9-5.9-4.3-8.9c-1.4-3-2.7-6-4-9.1c-1.2-3.1-2.5-6.1-3.8-9.1c-4.4-10.6-8.7-21.2-12.9-31.6
			c-4.2-10.5-8.7-21-13.6-31.5c-1.8-3.9-4.1-8.5-6.8-13.8c-2.7-5.3-5.7-10.6-9-15.9c-3.3-5.3-6.8-10.3-10.4-14.9
			c-3.7-4.6-7.4-8.2-11.3-10.7c-1.8-1.1-4-2.4-6.6-3.7c-2.6-1.3-5-2-7.2-2c-0.5,0-1.6,0.1-3.3,0.4c-1.7,0.3-3.4,0.7-5.2,1.2
			c-1.8,0.5-3.4,1-4.7,1.6c-1.4,0.5-2,1.1-2,1.6c0,0.7,0.6,1.2,1.7,1.4c0.3,0.1,0.5,0.2,0.8,0.2c0.3,0,0.5,0.1,0.8,0.2
			c0.3,0,0.6,0.1,1.2,0.3c4.1,2.7,7.6,5.6,10.5,8.8c2.9,3.2,5.6,6.9,8,10.9c3.3,5.6,6.4,12.3,9.1,20c2.7,7.7,5,15.6,6.8,23.9
			c1.8,8.2,3.2,16.4,4.2,24.5s1.5,15.3,1.5,21.8c0,8.4-0.7,17.7-2,27.8c-1.4,10.1-3.6,20.3-6.7,30.5c-3.1,10.2-7.1,20.1-11.9,29.7
			c-4.8,9.6-10.8,18-17.9,25.4c-7.1,7.4-15.3,13.3-24.6,17.7c-9.3,4.4-20,6.7-32,6.7c-13.8,0-26.6-1.7-38.6-5
			c-11.9-3.3-22.8-8-32.6-13.9c-9.8-5.9-18.5-13-26.1-21.3c-7.6-8.2-14-17.3-19.1-27.2c-5.2-9.9-9.1-20.3-11.8-31.4
			c-2.7-11.1-4.1-22.4-4.1-34.1c0-17.1,3.4-33.4,10.2-49.1c4.1-9.3,9.6-18.4,16.3-27.3c6.8-8.9,14.6-16.8,23.5-23.7
			c8.9-6.9,18.7-12.5,29.4-16.7c10.7-4.2,22-6.3,34-6.3c13.3,0,25.2,2.6,35.8,7.8c10.6,5.2,20.2,11.9,29,20.2l1,0.9
			c0.5,0.2,0.9,0.3,1.2,0.3c0.9,0,1.4-0.5,1.5-1.6c0.1-1,0.2-1.8,0.2-2.4v-2.1c-0.3-0.9-0.5-1.6-0.8-1.9c-1.4-1.7-3.1-3.4-5.1-5
			c-2-1.6-3.9-3.2-5.7-4.7c-8.1-6.3-17.1-11.4-27-15c-9.9-3.7-20.3-5.5-31.2-5.5c-12.8,0-24.9,2.3-36.4,6.8
			c-11.5,4.6-22.2,10.5-31.9,18c-9.7,7.4-18.4,15.9-25.9,25.4c-7.5,9.5-13.6,19.2-18.1,29.1c-3.5,7.7-6.2,15.8-8.1,24.1
			c-1.9,8.4-2.9,16.7-2.9,25c0,13.5,1.5,26.7,4.5,39.7c3,13,7.7,25.2,14.1,36.8c6.4,11.5,14.6,22,24.5,31.5
			c10,9.5,21.9,17.4,35.8,23.9c10,4.6,20.5,8,31.5,10.2c10.9,2.2,22,3.3,33.2,3.3c13.8,0,26.3-1.9,37.5-5.8
			c11.2-3.9,21.2-9.1,30.1-15.7c8.8-6.6,16.5-14.4,23-23.3c6.5-8.9,11.9-18.5,16.1-28.7c4.2-10.2,7.4-20.8,9.5-31.7
			c2.1-10.9,3.1-21.8,3.1-32.5c0-10.1-0.4-20.3-1.2-30.4c2.2,4,4.1,8.2,5.7,12.5c1.6,4.3,3.3,8.5,4.9,12.8c0.6,1.8,1.5,4.2,2.5,6.9
			c1,2.8,2.2,5.8,3.5,9.1c1.3,3.3,2.7,6.7,4.3,10.3c1.5,3.6,3.2,7.1,5,10.5c1.8,3.5,3.7,6.7,5.7,9.9c2,3.1,4.1,5.9,6.3,8.3
			c2.2,2.4,4.5,4.3,6.9,5.7c2.4,1.4,4.8,2.1,7.2,2.1c3.6,0,7.2-1.2,10.7-3.5c3.5-2.4,7-5.5,10.3-9.5c3.3-4,6.6-8.6,9.8-13.8
			c3.2-5.2,6.2-10.7,9-16.4c2.8-5.8,5.5-11.6,8-17.5c2.5-5.9,4.8-11.5,7-16.9c2.1-5.4,4-10.2,5.7-14.6c1.7-4.4,3.1-7.9,4.3-10.5
			c-0.6,8.8-1.3,17.5-1.8,26.1c-0.6,8.6-0.9,17.4-0.9,26.1c0,6.8,0.3,14.2,0.8,22.3c0.5,8.1,1.5,16.1,3.1,24.2
			c1.5,8.1,3.8,15.9,6.9,23.4c3,7.5,7.1,14.2,12.1,20.1c5,5.8,11.2,10.5,18.6,14c7.3,3.5,16.1,5.3,26.3,5.3c7.5,0,14.3-1.3,20.4-3.9
			c6.1-2.6,11.6-6,16.5-10.1c4.9-4.2,9.3-8.9,13.2-14.1c3.9-5.2,7.4-10.6,10.5-16c1.2-1.8,1.7-3.8,1.7-5.9c0-3-1.2-5.6-3.5-7.8
			C574.8,938.3,572,937.2,568.6,937.2z"/>
		<path d="M945.5,826.9c-0.6-1.3-1.4-1.9-2.3-1.9c-0.4,0-0.7,0.2-1.1,0.7c-0.3,0.5-0.6,1-0.9,1.6c-0.3,0.6-0.5,1.3-0.7,1.9
			c-0.2,0.6-0.4,1.1-0.5,1.4c-0.9,3.3-2.1,7.2-3.5,11.5c-1.4,4.3-2.9,8.7-4.5,13.1c-1.6,4.4-3.3,8.7-5.1,12.8
			c-1.8,4.1-3.7,7.5-5.6,10.3c-1.5-2.1-3.3-3.8-5.3-5.1c-2-1.4-4.1-2.5-6.3-3.6c-2.2-1-4.4-2-6.7-2.8c-2.3-0.8-4.5-1.7-6.7-2.6
			c-2.1-0.9-4.1-1.9-6-3c-1.9-1.1-3.6-2.4-4.9-4.1c-1.4-1.6-2.4-3.5-3.3-5.7c-0.8-2.2-1.3-4.8-1.3-7.9c0-4.3,0.4-8.7,1.3-13.4
			c0.8-4.7,2.1-9.3,3.9-13.7c1.7-4.4,4-8.6,6.7-12.5c2.7-3.9,5.9-7,9.5-9.5c0.8,2.6,1.9,5.2,3.5,7.7c1.5,2.6,3.6,4.6,6.2,6
			c1,0.5,2.4,1.1,4.1,1.6c1.7,0.6,3,0.9,4.1,0.9c1,0,1.5-0.4,1.5-1.2c0-3-0.2-5.9-0.5-8.8c-0.3-2.9-0.5-5.8-0.5-8.8
			c0-2.7,0.2-5.2,0.7-7.3c0.5-2.2,1.4-4.6,2.8-7.2v-0.6c0-0.9-0.7-1.9-2.1-3c-1.4-1.1-3.1-2.1-5-3.1c-1.9-1-3.8-1.8-5.7-2.4
			c-1.9-0.6-3.2-1-4-1c-1.2,0-2.1,0.6-2.8,1.7c-0.7,1.2-1.2,2.3-1.4,3.3c-2.8,0.6-5.5,1.7-8,3.2c-2.5,1.5-4.9,3.2-7.1,5.1
			c-3.9,3.6-7.2,7.7-10,12.2c-2.8,4.5-5.2,9.3-7,14.3c-1.8,5-3.2,10.2-4.1,15.6c-0.9,5.3-1.4,10.6-1.4,15.7c0,2.1,0.2,4,0.5,5.8
			c-0.1,0.3-0.2,0.6-0.3,0.9c-0.1,0.6-0.3,1.1-0.4,1.4c-0.4,1.3-1.1,3.3-2.1,6.2c-1,2.8-2.3,5.9-3.7,9.3s-3,6.8-4.7,10.3
			c-1.7,3.5-3.5,6.8-5.3,9.8c-1.8,3-3.6,5.4-5.3,7.2c-1.7,1.9-3.3,2.8-4.7,2.8c-1.3,0-2.3-0.6-3-1.8c-0.7-1.2-1.3-2.7-1.6-4.4
			c-0.4-1.7-0.6-3.3-0.8-5c-0.1-1.7-0.2-3-0.2-3.9c0-6.2,0.5-12.2,1.5-18.1c1-5.9,2.1-11.8,3.3-17.9c0.6-3,1.3-5.9,1.8-8.9
			c0.6-3,1.1-5.9,1.4-8.9c0.5-3,0.9-6,1.2-9c0.3-3,0.4-6,0.4-9c0-2.1-0.2-4.2-0.5-6.4c-0.3-2.2-1.1-4.2-2.2-6c-1-1.5-2.3-3-3.9-4.3
			c-1.5-1.3-3.4-1.9-5.4-1.9c-2.5,0-4.8,0.9-7.2,2.6c-2.3,1.7-4.6,3.7-6.8,5.9c-0.6,0.6-1.2,1.2-1.6,1.6c-0.5,0.5-1,0.9-1.6,1.4
			c-1,1-2.4,2.2-4.2,3.5c-1.8,1.3-3.5,1.9-5,1.9h-0.4c0.1-1,0.2-2.4,0.2-4.1c0-1.7-0.1-3.4-0.2-5.1c-0.1-1.7-0.4-3.4-0.8-4.9
			c-0.4-1.5-1-2.7-1.7-3.5c-1.3-1.3-3-1.9-5-1.9c-1.7,0-3.3,0.4-4.8,1.3c-1.5,0.8-2.9,1.9-4.2,3.2c-1.2,1.3-2.2,2.7-2.9,4.4
			c-0.7,1.6-1.1,3.2-1.1,4.7s0.5,3.1,1.4,4.5c0.9,1.5,2,2.8,3.3,4c1.3,1.2,2.7,2.2,4.2,3.1c1.5,0.9,3,1.6,4.3,2.1
			c-1.3,5.8-2.6,11.5-3.9,17.2c-1.3,5.7-2.8,11.4-4.6,17.2c0,0,0,0,0,0c-0.1,0.2-0.1,0.5-0.2,0.6c-0.9,3.2-2.4,7.3-4.3,12.4
			c-2,5-4.4,9.9-7.2,14.6c-2.8,4.7-5.9,8.8-9.5,12.2c-3.5,3.4-7.4,5.1-11.5,5.1c-5,0-9.3-0.9-12.8-2.7c-3.5-1.8-6.3-4.2-8.4-7.2
			s-3.6-6.5-4.5-10.5c-0.9-4-1.4-8.2-1.4-12.8c0-3.3,0.2-6.8,0.6-10.2c2.6,0,5.2-0.2,7.9-0.6c4.2-0.6,8.6-2.3,13.1-4.8
			c4.5-2.6,8.6-5.7,12.3-9.5c3.7-3.7,6.7-7.9,9.1-12.4c2.4-4.5,3.6-9,3.6-13.5c0-3.7-0.9-6.8-2.6-9.2c-1.7-2.4-4-4.2-6.7-5.6
			c-2.7-1.4-5.7-2.3-8.9-2.8c-3.2-0.5-6.3-0.8-9.3-0.8c-5.2,0-9.9,1.4-14.2,4.2c-4.3,2.8-8.1,6.4-11.4,10.6
			c-1.2,1.5-2.2,3.1-3.2,4.7h-27.9c0.2-0.3,0.4-0.6,0.4-0.9c0-0.3-0.2-0.6-0.7-0.7c-0.5-0.1-0.8-0.2-1.1-0.2h-12
			c1.6-8.8,3.6-17.3,6.1-25.6c2.6-8.8,5.9-17.6,9.8-26.4c0.1-0.1,0.2-0.3,0.2-0.4c0-0.1,0.1-0.3,0.2-0.4c0.1-0.3,0.2-0.6,0.2-1
			c0-1.4-0.8-2.1-2.5-2.1c-1.8,0-3.1,0.9-4,2.7c-0.8,1.8-1.6,3.8-2.2,6c-0.1,0.6-0.3,1.2-0.4,1.6c-0.1,0.5-0.3,1-0.4,1.6
			c-0.3,0.5-0.4,1-0.5,1.4c-0.1,0.5-0.2,0.9-0.5,1.3c-0.9,1.8-2.1,2.7-3.5,2.7c-0.4,0-1-0.1-1.7-0.4c-0.5-0.3-1-0.6-1.4-1
			c-0.6-0.3-1.2-0.5-1.6-0.8c-0.5-0.3-1-0.4-1.6-0.4c-1.3,0-2.6,0.9-4,2.6c-1.4,1.7-2.6,4-3.9,6.8c-1.2,2.8-2.4,5.8-3.5,9.2
			s-2.1,6.6-3,9.8c-0.9,3.2-1.6,6-2.2,8.6c-0.4,1.6-0.7,2.9-0.9,4.1H621c1.7-8.5,3.8-16.7,6.5-24.6c2.6-8,5.9-15.9,9.8-23.8
			c0.1-0.1,0.2-0.2,0.2-0.3c0-0.1,0.1-0.2,0.2-0.3c0.1-0.2,0.2-0.5,0.2-0.9c0-1.3-0.8-1.9-2.5-1.9c-1.8,0-3.1,0.8-4,2.4
			c-0.8,1.6-1.6,3.4-2.2,5.4c-0.1,0.6-0.3,1.1-0.4,1.5c-0.1,0.4-0.3,0.9-0.4,1.5c-0.3,0.5-0.4,0.9-0.5,1.3c-0.1,0.4-0.2,0.8-0.5,1.1
			c-0.9,1.6-2.1,2.4-3.5,2.4c-0.4,0-1-0.1-1.7-0.4c-0.5-0.2-1-0.5-1.4-0.9c-0.6-0.2-1.2-0.5-1.6-0.7c-0.5-0.2-1-0.3-1.6-0.3
			c-1.3,0-2.6,0.8-4,2.3c-1.4,1.6-2.6,3.6-3.9,6.1c-1.2,2.5-2.4,5.3-3.5,8.3c-1.1,3-2.1,6-3,8.8c-0.9,2.8-1.6,5.4-2.2,7.8
			c-0.6,2.3-1,4.1-1.3,5.2h-57.2c-0.6,0-1.7,0.5-3.1,1.5c-1.4,1-2.9,2.1-4.3,3.3c-1.5,1.2-2.8,2.4-4,3.7c-1.2,1.2-1.7,2.1-1.7,2.7
			v0.3l0.6,0.5l0.4,0.4c0.3,0.1,0.8,0.2,1.5,0.2h54.8c-0.4,0.6-0.7,1.2-0.7,1.6v0.4l0.6,0.6l0.4,0.4c0.3,0.1,0.8,0.2,1.5,0.2h8.2
			c-1.3,7.7-2.3,15.3-3.1,23c-0.6,6.2-0.9,12.5-1.1,18.8c-0.3,0.5-0.5,1-0.9,1.8c-0.5,1.2-1,2.5-1.5,4.1c-0.6,1.5-1.2,3.2-1.8,4.9
			c-0.6,1.7-1.4,3.4-2.1,5.2c-0.8,1.7-1.6,3.3-2.5,4.9c-0.9,1.6-1.8,3-2.8,4.1c-1,1.2-2,2.1-3,2.8c-1,0.7-2.1,1.1-3.1,1.1
			c-1.7,0-3.1-0.6-4.3-1.8c-1.2-1.2-2.1-2.8-2.9-4.7c-0.8-1.9-1.4-4-1.8-6.2c-0.5-2.3-0.8-4.5-1-6.6c-0.2-2.1-0.3-4.1-0.4-5.9
			c-0.1-1.8-0.1-3.1-0.1-3.9c0-6.5,0.3-13,0.9-19.7c0.6-6.6,1.8-13.1,3.8-19.4c-2.1-0.3-4.1-0.4-6.2-0.4c-3.1,0-6.1,0.3-9,1
			c-2.9,0.7-5.4,1.8-7.6,3.5c-3.3-1-6.7-1.8-10.1-2.4c-3.4-0.6-6.9-0.9-10.5-0.9c-7.7,0-14.2,1.4-19.3,4.2
			c-5.2,2.8-9.3,6.3-12.4,10.5c-3.1,4.2-5.3,8.8-6.6,13.7c-1.3,5-1.9,9.5-1.9,13.7c0,2.3,0.3,5.3,1,9.1c0.6,3.8,1.8,7.5,3.6,11.2
			c1.7,3.6,4.1,6.8,7,9.4c2.9,2.6,6.7,3.9,11.3,3.9c7.5,0,13.5-1.2,18-3.5c4.5-2.3,8-5.3,10.5-8.8c2.5-3.5,4.3-7.5,5.3-11.8
			c1-4.3,1.8-8.4,2.3-12.4c0,1.5,0,3.2-0.1,5.1c-0.1,1.9,0,3.8,0.1,5.9c0.1,2.7,0.5,5.6,1.1,8.7c0.6,3.1,1.7,5.9,3.3,8.5
			c1.6,2.6,4,4.8,7.1,6.5c3.1,1.7,7.2,2.6,12.4,2.6c3.9,0,7.2-0.8,10-2.4c2.8-1.6,5.1-3.6,7.1-6c1.9-2.4,3.5-4.9,4.8-7.5
			c1.1-2.3,2-4.3,2.7-6.1c0,0.8,0,1.4,0.1,2.2c0.2,4.3,0.6,8.9,1.2,13.7c0.6,4.8,1.5,9.6,2.8,14.5c1.3,4.8,3,9.1,5.1,13
			c2.1,3.8,4.8,7,8,9.4c3.2,2.4,7.1,3.7,11.6,3.7c2.6,0,5-0.5,7.1-1.6s4.3-2.5,6.2-4.3s3.7-3.9,5.3-6.4c1.6-2.4,3.1-5,4.5-7.7
			c1.4-2.7,2.7-5.4,3.8-8.3c0.7-1.7,1.2-3.3,1.8-5c0.1,1.4,0.2,2.7,0.3,4.2c0.6,5.3,1.5,10.7,2.8,16c1.3,5.3,3,10.1,5.1,14.4
			c2.1,4.3,4.8,7.7,8,10.4c3.2,2.7,7.1,4.1,11.6,4.1c2.6,0,5-0.6,7.1-1.7c2.2-1.2,4.3-2.7,6.2-4.7c1.9-2,3.7-4.3,5.3-7.1
			c1.6-2.7,3.1-5.5,4.5-8.5c1.4-3,2.7-6,3.8-9.2c1.1-3.2,2.1-6.2,3-9.2c0.9-3,1.7-5.8,2.5-8.4c0.8-2.6,1.4-4.9,1.9-6.9
			c-0.3-0.6-0.7-1.6-1.4-2.9c-0.6-1.3-1.4-1.9-2.3-1.9c-0.3,0-0.7,0.3-1.3,1c-0.6,0.6-0.9,1.2-0.9,1.5c-0.1,0.3-0.2,0.5-0.2,0.6
			s-0.1,0.3-0.2,0.6c-0.9,2.3-2,5.8-3.4,10.4c-1.4,4.6-3.1,9.3-5.1,14.1c-1.9,4.6-4.1,8.7-6.6,12.2c-2.4,3.5-5.2,5.2-8.1,5.2
			c-1.5,0-2.9-1.4-4.1-4.1c-1.2-2.7-2.2-6.2-3-10.3c-0.8-4.2-1.5-8.8-1.9-13.8c-0.5-5-0.8-9.9-1.2-14.6c-0.3-4.7-0.5-8.9-0.6-12.6
			c-0.1-3.7-0.1-6.3-0.1-7.8c0-8.8,0.3-17.5,0.8-26.2c0.5-8.7,1.4-17.4,2.5-26h36.6c-1.3,3.2-2.5,6.3-3.3,9.2
			c-2.3,7.9-3.5,16-3.5,24.3c0,6.4,0.8,12.4,2.3,18c1.5,5.5,4,10.3,7.2,14.4c3.3,4.1,7.4,7.2,12.5,9.6c5,2.3,11,3.5,18,3.5
			c7.6,0,14.1-1.7,19.5-5.1c5.4-3.4,10.1-7.8,14-13.1c3.9-5.3,7.2-11.3,9.9-17.8c2.3-5.7,4.2-11.1,5.9-16.4c0.3-0.7,0.6-1.5,1-2.5
			c1.2-3.4,2.3-7.3,3.3-11.8c1-4.4,2-8.7,2.8-12.9c0.8-4.1,1.4-7,1.6-8.5c2.6,0,4.9-0.6,7.1-1.9c2.1-1.3,4.1-2.7,5.9-4.2
			c0.9-0.6,1.7-1.3,2.4-2c0.7-0.7,1.4-1.4,2-2c1.5-1.3,2.6-1.9,3.3-1.9c0.5,0,1,0.3,1.5,0.8c-2.7,12.4-5.2,25-7.3,37.8
			c-2.2,12.8-3.3,25.6-3.3,38.4c0,2.6,0.1,5.4,0.4,8.4c0.3,3,0.9,5.7,1.9,8c0.6,1.5,1.5,3.1,2.4,4.6c1,1.5,2.1,3,3.3,4.3
			c1.2,1.3,2.6,2.3,4.2,3.2c1.6,0.8,3.3,1.3,5.1,1.3c3.3,0,6.5-1.2,9.6-3.5c3-2.3,5.9-5.3,8.6-8.9c2.7-3.6,5.2-7.7,7.5-12.3
			c2.3-4.6,4.4-9.1,6.2-13.7c1.8-4.6,3.4-8.9,4.7-12.9c0.2-0.5,0.3-0.9,0.5-1.4c1.1,2,2.3,3.9,3.8,5.6c2.3,2.5,4.8,4.6,7.7,6.4
			c2.9,1.7,5.9,3.3,9,4.7c3.1,1.3,6.1,2.5,9,3.5c2.9,1,5.5,2.2,7.8,3.5c2.2,1.3,4,2.7,5.4,4.3c1.4,1.5,2.1,3.5,2.1,5.8
			c0,1.8-0.7,4.3-2.2,7.4c-1.5,3.2-3.3,6.2-5.6,9.3c-2.3,3-4.6,5.7-7.1,7.9c-2.5,2.3-4.6,3.4-6.6,3.4c-1.5,0-2.6-0.6-3.1-1.9
			c-0.5-1.3-0.8-2.6-0.8-3.9c0-1.7,0.3-3.5,0.8-5.4s1.2-3.8,1.9-5.7c0.8-1.9,1.6-3.7,2.5-5.5c0.9-1.8,1.7-3.4,2.5-4.8
			c-0.8-1-1.7-2.1-2.7-3.2c-1-1.1-2.2-2.1-3.5-3.1c-1.3-1-2.6-1.8-4-2.4c-1.4-0.6-2.7-1-4-1c-2.3,0-4.3,1-5.9,3
			c-1.6,2-2.9,4.4-4,7.2c-1,2.8-1.8,5.6-2.3,8.5c-0.5,2.9-0.8,5.2-0.8,6.9c0,3.1,0.5,6.1,1.5,8.9c1,2.8,2.5,5.3,4.4,7.3
			c1.9,2.1,4.2,3.7,6.9,4.9c2.6,1.2,5.6,1.8,8.8,1.8c4.4,0,8.7-1.9,12.9-5.8c4.2-3.9,8.1-8.8,11.9-14.9c3.7-6.1,7.2-12.8,10.5-20.3
			c3.3-7.5,6.3-14.8,9-22c2.7-7.2,5-13.9,7-20.2c1.9-6.2,3.4-11.1,4.4-14.6C946.6,829.2,946.1,828.2,945.5,826.9z M541.4,838.7
			c-0.3,2.3-0.5,4.9-0.8,7.8c-0.3,3-0.5,6.1-0.9,9.4c-0.3,3.3-0.8,6.6-1.4,9.9c-0.5,3.2-1.2,6.4-2,9.5c-0.8,3.1-1.9,5.7-3.2,8
			c-1.3,2.3-2.8,4.1-4.6,5.5c-1.8,1.4-4,2.1-6.6,2.1c-2.7,0-4.9-1.1-6.6-3.2c-1.7-2.1-3-4.6-3.9-7.4c-0.9-2.8-1.5-5.6-1.7-8.4
			c-0.3-2.8-0.4-4.9-0.4-6.2c0-1.5,0.1-3.4,0.4-5.8c0.3-2.4,0.7-4.8,1.3-7.4c0.6-2.6,1.4-5.2,2.4-7.8c1-2.6,2.4-5,4.1-7
			c1.7-2.1,3.7-3.7,6-5.1c2.3-1.3,5-2,8.1-2c2.1,0,4,0.3,5.8,0.9c1.8,0.6,3.5,1.2,5.2,1.9C542,834.7,541.6,836.4,541.4,838.7z
			 M745.7,801.1c2.5-3.7,5.1-5.6,7.8-5.6c3,0,5.4,0.7,7.3,2c1.9,1.4,2.9,3.6,2.9,6.9c0,3.7-1.1,7.6-3.2,11.6
			c-2.1,4-4.8,7.7-8.1,11.2c-3.3,3.5-6.9,6.5-10.8,9c-3.9,2.5-7.6,4.2-11.1,4.9c0.5-2.7,1.5-6.6,2.9-11.7c0.8-2.9,1.8-5.8,2.8-8.7
			c0.3-0.2,0.6-0.4,1-0.6c1.5-1.1,3.2-2.4,4.8-3.9c1.7-1.5,3.1-2.9,4.4-4.3c1.2-1.4,1.8-2.4,1.8-3.1c0-0.4-0.2-0.6-0.7-0.8
			s-0.8-0.2-1.1-0.2h-4.8C743.1,805.4,744.4,803.1,745.7,801.1z M646.2,894.2c-1.4,4.2-3.1,8.4-5.1,12.7c-1.9,4.2-4.1,7.8-6.6,11
			c-2.4,3.1-5.2,4.7-8.1,4.7c-1.5,0-2.9-1.2-4.1-3.7c-1.2-2.4-2.2-5.5-3-9.3c-0.8-3.8-1.5-7.9-1.9-12.4c-0.5-4.5-0.8-8.9-1.2-13.1
			c-0.3-4.2-0.5-8-0.6-11.3c-0.1-3.3-0.1-5.7-0.1-7.1c0-7.9,0.3-15.8,0.8-23.6c0.4-6.8,1.2-13.6,2.1-20.3h35.4
			c-1.5,9.7-2.7,19.3-3.6,29c-0.8,9.7-1.3,19.4-1.3,29.2c0,1.8,0,3.9,0.1,6.1C648.3,888,647.4,890.6,646.2,894.2z M797.4,803.4
			c-1.4-0.5-2.8-1.3-4.1-2.3c-1.3-1-1.9-2.4-1.9-4.1c0-1.4,0.5-2.7,1.4-3.8c1-1.1,2.2-1.6,3.6-1.6c0.1,0,0.2,0.1,0.2,0.2l0.2,0.2
			v0.2c0.1,0.8,0.3,1.5,0.4,2.3c0.1,0.8,0.2,1.5,0.2,2.3V803.4z"/>
	</g>
	<path d="M943.8,464.4c-0.6-1.3-1.4-1.9-2.3-1.9c-0.3,0-0.7,0.3-1.3,1c-0.6,0.6-0.9,1.2-0.9,1.5c-0.1,0.3-0.2,0.5-0.2,0.6
		s-0.1,0.3-0.2,0.6c-0.9,2.6-2.2,6.5-3.9,11.7c-1.7,5.2-3.6,10.5-5.8,15.9c-1.2,2.7-2.4,5.3-3.6,7.6c-1.2,2.4-2.5,4.5-3.9,6.4
		c-1.4,1.9-2.8,3.3-4.2,4.4c-1.5,1.1-3,1.6-4.5,1.6c-2.3,0-4.4-1.2-6.2-3.5c-1.8-2.3-3.4-5.3-4.7-9c-1.4-3.7-2.5-7.7-3.5-12.2
		c-1-4.4-1.7-8.8-2.3-13c-0.6-4.3-1-8.1-1.3-11.7c-0.3-3.5-0.4-6.2-0.4-7.8c0-2.2,0-4.4,0-6.6c0-2.2,0.1-4.4,0.2-6.6
		c13.9-9.7,24.4-21.2,31.6-34.5c7.1-13.3,10.7-28.5,10.7-45.5c0-4.1-0.3-8.2-1-12.2c-0.6-4-1.8-7.9-3.5-11.6
		c-0.6-1.5-1.4-3.3-2.4-5.1c-1-1.9-2.1-3.6-3.3-5.1c-1.2-1.5-2.6-2.9-4.3-4c-1.6-1.1-3.4-1.6-5.3-1.6c-2.7,0-5.3,1-7.9,3
		c-2.6,2-5,4.4-7.2,7.2c-2.3,2.8-4.2,5.8-6,8.9c-1.7,3.1-3.1,5.7-4.2,7.9c-0.9-0.1-1.4-0.7-1.4-1.7c0-1.3,0.5-2.9,1.5-4.7
		c1-1.9,2.3-3.9,3.7-6.1c1.4-2.1,2.8-4,4.3-5.9c1.4-1.9,2.6-3.4,3.5-4.5v-0.6l-0.4,0.4h-0.2c-5,3.7-9.3,8.7-12.9,15
		c-3.5,6.2-6.5,13.2-9,20.9c-2.5,7.7-4.4,15.8-5.9,24.3c-1.5,8.6-2.6,17-3.4,25.4c-0.8,8.4-1.3,16.4-1.5,24
		c-0.3,7.6-0.4,14.4-0.4,20.3c0,2.6,0.3,5.2,0.4,7.7c0,0.1-0.1,0.1-0.1,0.2c0,0.1-0.1,0.3-0.2,0.6c-0.4,0.9-0.8,2.2-1.3,4
		c-0.5,1.7-1,3.7-1.5,6c-0.6,2.3-1.2,4.6-1.8,7.1c-0.6,2.5-1.4,5.1-2.1,7.6c-0.8,2.5-1.6,4.8-2.5,7.1c-0.9,2.3-1.8,4.4-2.8,6.1
		c-1,1.7-2,3.1-3,4.2c-1,1-2.1,1.5-3.1,1.5c-1.7,0-3.1-0.9-4.3-2.7c-1.2-1.8-2.1-4.1-2.9-6.9c-0.8-2.8-1.4-5.8-1.8-9.2
		c-0.5-3.3-0.8-6.6-1-9.8c-0.2-3.2-0.3-6.1-0.4-8.7s-0.1-4.5-0.1-5.7c0-9.5,0.3-19.2,0.9-28.9s1.8-19.2,3.8-28.5
		c-2.1-0.4-4.1-0.6-6.2-0.6c-3.1,0-6.1,0.5-9,1.4c-2.9,1-5.4,2.7-7.6,5.1c-3.3-1.4-6.7-2.6-10.1-3.5c-3.4-0.9-6.9-1.4-10.5-1.4
		c-7.7,0-14.2,2.1-19.3,6.2c-5.2,4.1-9.3,9.3-12.4,15.5c-3.1,6.2-5.3,12.9-6.6,20.2c-1,5.6-1.5,10.8-1.7,15.7
		c-0.8,2.2-1.6,4.8-2.6,8.3c-1.4,4.6-3.1,9.3-5.1,14.1c-1.9,4.6-4.1,8.7-6.6,12.2c-2.4,3.5-5.2,5.2-8.1,5.2c-1.5,0-2.9-1.4-4.1-4.1
		c-1.2-2.7-2.2-6.2-3-10.3c-0.8-4.2-1.5-8.8-1.9-13.8c-0.5-5-0.8-9.9-1.2-14.6c-0.3-4.7-0.5-8.9-0.6-12.6c-0.1-3.7-0.1-6.3-0.1-7.8
		c0-8.8,0.3-17.5,0.8-26.2c0.5-8.7,1.4-17.4,2.5-26h58.6c0.6,0,1.7-0.5,3.3-1.6c1.5-1.1,3.2-2.4,4.8-3.9c1.7-1.5,3.1-2.9,4.4-4.3
		c1.2-1.4,1.8-2.4,1.8-3.1c0-0.4-0.2-0.6-0.7-0.8c-0.5-0.1-0.8-0.2-1.1-0.2h-69c1.7-9.4,3.8-18.5,6.5-27.3
		c2.6-8.8,5.9-17.6,9.8-26.4c0.1-0.1,0.2-0.3,0.2-0.4c0-0.1,0.1-0.3,0.2-0.4c0.1-0.3,0.2-0.6,0.2-1c0-1.4-0.8-2.1-2.5-2.1
		c-1.8,0-3.1,0.9-4,2.7c-0.8,1.8-1.6,3.8-2.2,6c-0.1,0.6-0.3,1.2-0.4,1.6c-0.1,0.5-0.3,1-0.4,1.6c-0.3,0.5-0.4,1-0.5,1.4
		c-0.1,0.5-0.2,0.9-0.5,1.3c-0.9,1.8-2.1,2.7-3.5,2.7c-0.4,0-1-0.1-1.7-0.4c-0.5-0.3-1-0.6-1.4-1c-0.6-0.3-1.2-0.5-1.6-0.8
		c-0.5-0.3-1-0.4-1.6-0.4c-1.3,0-2.6,0.9-4,2.6c-1.4,1.7-2.6,4-3.9,6.8c-1.2,2.8-2.4,5.8-3.5,9.2c-1.1,3.3-2.1,6.6-3,9.8
		c-0.9,3.2-1.6,6-2.2,8.6c-0.6,2.6-1,4.5-1.3,5.8h-57.2c-0.6,0-1.7,0.5-3.1,1.6c-1.4,1.1-2.9,2.3-4.3,3.7c-1.5,1.4-2.8,2.7-4,4.1
		c-1.2,1.4-1.7,2.4-1.7,3v0.4l0.6,0.6l0.4,0.4c0.3,0.1,0.8,0.2,1.5,0.2h65.3c-1.5,9.7-2.7,19.3-3.6,29c-0.8,9.7-1.3,19.4-1.3,29.2
		c0,3.2,0.1,7.2,0.3,12c0,1.1,0.2,2.5,0.3,3.6c0,0.1-0.1,0.2-0.1,0.2c-0.2,0.6-0.4,1.1-0.5,1.4c-0.4,1.2-1.1,3.1-2.1,5.8
		c-1,2.7-2.2,5.8-3.6,9.2s-2.9,6.9-4.5,10.5c-1.7,3.6-3.3,6.9-4.9,10c-1.6,3-3.2,5.5-4.6,7.4c-1.5,1.9-2.7,2.9-3.8,2.9
		c-0.6,0-1.1-0.5-1.4-1.5c-0.3-1-0.6-2.3-0.9-3.7c-0.1-1.4-0.2-2.7-0.2-4c0-1.2,0-2.1,0-2.6c0-10.8,0.5-21.5,1.5-32.1
		c1-10.6,1.5-21.3,1.5-32.1c0-1.5,0-4-0.1-7.4c-0.1-3.4-0.4-6.9-1-10.3c-0.6-3.5-1.5-6.5-2.8-9.1c-1.3-2.6-3.1-3.9-5.4-3.9
		c-3.9,0-7.5,1.4-11,4.2c-3.5,2.8-6.8,6.5-9.9,11c-3.1,4.5-5.9,9.6-8.5,15.3c-2.6,5.7-4.8,11.3-6.8,16.8c-1.9,5.5-3.5,10.8-4.8,15.7
		c-1.3,4.9-2.3,8.9-2.9,12c-0.6-4.6-1.3-9.3-1.8-14c-0.6-4.7-0.9-9.4-0.9-14.2c0-3.3,0.2-6.7,0.6-10c0.4-3.3,0.9-6.6,1.5-10
		c0.6-3.3,1.4-6.6,2.2-9.9c0.8-3.2,1.6-6.5,2.4-9.9c0.1-0.3,0.2-0.5,0.2-0.8c0-0.3,0.1-0.5,0.2-0.8c0.1-0.4,0.2-1,0.2-1.7
		c0-0.5-0.1-1-0.3-1.5c-0.2-0.5-0.6-0.8-1.3-0.8c-0.6,0-1.4,0.3-2.2,0.9c-0.8,0.6-1.7,1.3-2.5,2c-0.8,0.8-1.6,1.6-2.2,2.4
		c-0.6,0.8-1.2,1.5-1.5,2c-5.4,8.4-9.5,17.6-12.2,27.5c-2.1,7.8-3.4,15.5-3.8,23.3c-0.2,0.5-0.3,0.9-0.4,1.2c0,0.1-0.1,0.2-0.1,0.3
		c-3.2,0-5.7,0.8-7.6,2.4c-1.9,1.6-3.7,3.5-5.4,5.7c-1.4,1.9-2.7,3.7-3.9,5.6c-1.2,1.9-2.4,3.7-3.7,5.6c-1.9,2.8-4.4,5.9-7.3,9.4
		c-3,3.5-6.2,6.7-9.9,9.8c-1.6,1.3-3.2,2.5-4.8,3.7c-0.8-0.3-1.8-0.5-2.5-0.9c-3.5-1.8-6.3-4.2-8.4-7.2c-2.1-3-3.6-6.5-4.5-10.5
		c-0.9-4-1.4-8.2-1.4-12.8c0-3.3,0.2-6.8,0.6-10.2c2.6,0,5.2-0.2,7.9-0.6c4.2-0.6,8.6-2.3,13.1-4.8c4.5-2.6,8.6-5.7,12.3-9.5
		c3.7-3.7,6.7-7.9,9.1-12.4c2.4-4.5,3.6-9,3.6-13.5c0-3.7-0.9-6.8-2.6-9.2c-1.7-2.4-4-4.2-6.7-5.6c-2.7-1.4-5.7-2.3-8.9-2.8
		c-3.2-0.5-6.3-0.8-9.3-0.8c-5.2,0-9.9,1.4-14.2,4.2c-4.3,2.8-8.1,6.4-11.4,10.6c-3.3,4.2-6.1,8.9-8.4,13.8c-2.3,5-4.1,9.6-5.4,14
		c-2.3,7.9-3.5,16-3.5,24.3c0,6.4,0.8,12.4,2.3,18c1.5,5.5,4,10.3,7.2,14.4c2.8,3.5,6.4,6.2,10.5,8.4c-5.9-0.4-11.1-2.2-15.4-5.6
		c-4.9-3.8-9-8.8-12.4-14.8s-6-12.9-8-20.5c-2-7.6-3.5-15.2-4.6-22.7c-1.1-7.6-1.8-14.7-2.1-21.4c-0.3-6.7-0.5-12.2-0.5-16.5
		c0-8.3,0.4-17.7,1.3-28.1c0.8-10.4,2.1-21,3.9-31.6c1.7-10.6,4-21,6.8-31c2.8-10,6.1-18.8,10-26.3c1.2-2.3,2.4-4.5,3.8-6.4
		c1.4-2,2.8-3.9,4.3-5.9c0.1-0.1,0.2-0.3,0.2-0.7c0-0.6-0.3-1.1-0.9-1.5c-0.6-0.4-1.3-0.7-2-1c-0.8-0.2-1.5-0.4-2.3-0.5
		c-0.8-0.1-1.4-0.2-1.7-0.2c-3.3,0-6.4,0.7-9.1,2.1c-2.3,1.2-4.8,3.1-7.3,5.8c-2.6,2.7-5.2,6-7.8,9.7c-2.6,3.8-5.3,7.9-7.9,12.4
		c-2.6,4.5-5.3,9.1-7.8,13.9c-2.5,4.7-4.8,9.5-7.1,14.2c-2.3,4.7-4.5,9.3-6.5,13.5c-2,4.3-3.8,8.2-5.4,11.8c-1.6,3.6-2.9,6.6-4,9
		c-3.7,8.7-7.5,17.4-11.2,26c-3.7,8.7-7.8,17.2-12.2,25.7c-0.5,1.2-1.4,3-2.8,5.5c-1.4,2.5-2.8,5-4.4,7.6c-1.6,2.5-3.3,4.8-5.1,6.7
		c-1.8,1.9-3.4,2.9-4.8,2.9c-0.8,0-1.4-0.3-2-0.8c-0.6-0.5-1.1-1.1-1.4-1.6c-1.8-2.8-3.4-5.6-4.9-8.6c-1.5-3-2.9-5.9-4.3-8.9
		c-1.4-3-2.7-6-4-9.1c-1.2-3.1-2.5-6.1-3.8-9.1c-4.4-10.6-8.7-21.2-12.9-31.8c-4.2-10.5-8.7-21.1-13.6-31.6
		c-1.8-3.9-4.1-8.6-6.8-13.9c-2.7-5.3-5.7-10.6-9-16c-3.3-5.3-6.8-10.3-10.4-14.9c-3.7-4.6-7.4-8.2-11.3-10.8
		c-1.8-1.2-4-2.4-6.6-3.7c-2.6-1.3-5-2-7.2-2c-0.5,0-1.6,0.1-3.3,0.4c-1.7,0.3-3.4,0.7-5.2,1.2c-1.8,0.5-3.4,1-4.7,1.6s-2,1.1-2,1.7
		c0,0.7,0.6,1.2,1.7,1.4c0.3,0.1,0.5,0.2,0.8,0.2c0.3,0,0.5,0.1,0.8,0.2c0.3,0,0.6,0.1,1.2,0.3c4.1,2.7,7.6,5.6,10.5,8.9
		c2.9,3.2,5.6,6.9,8,10.9c3.3,5.7,6.4,12.4,9.1,20.1c2.7,7.7,5,15.7,6.8,24c1.8,8.3,3.2,16.5,4.2,24.6c1,8.1,1.5,15.4,1.5,21.9
		c0,8.5-0.7,17.8-2,28c-1.4,10.2-3.6,20.4-6.7,30.6c-3.1,10.2-7.1,20.2-11.9,29.8s-10.8,18.1-17.9,25.5s-15.3,13.3-24.6,17.8
		c-9.3,4.5-20,6.7-32,6.7c-13.8,0-26.6-1.7-38.6-5c-11.9-3.4-22.8-8-32.6-14c-9.8-6-18.5-13.1-26.1-21.4c-7.6-8.3-14-17.4-19.1-27.3
		c-5.2-9.9-9.1-20.4-11.8-31.5c-2.7-11.1-4.1-22.5-4.1-34.2c0-17.1,3.4-33.6,10.2-49.3c4.1-9.4,9.6-18.5,16.3-27.4
		c6.8-8.9,14.6-16.8,23.5-23.8c8.9-6.9,18.7-12.5,29.4-16.8c10.7-4.2,22-6.3,34-6.3c13.3,0,25.2,2.6,35.8,7.8
		c10.6,5.2,20.2,12,29,20.3l1,0.9c0.5,0.2,0.9,0.3,1.2,0.3c0.9,0,1.4-0.5,1.5-1.6c0.1-1,0.2-1.9,0.2-2.4v-2.1
		c-0.3-0.9-0.5-1.6-0.8-1.9c-1.4-1.7-3.1-3.4-5.1-5c-2-1.6-3.9-3.2-5.7-4.7c-8.1-6.4-17.1-11.4-27-15.1c-9.9-3.7-20.3-5.6-31.2-5.6
		c-12.8,0-24.9,2.3-36.4,6.9c-11.5,4.6-22.2,10.6-31.9,18.1s-18.4,16-25.9,25.5c-7.5,9.6-13.6,19.3-18.1,29.3
		c-3.5,7.8-6.2,15.8-8.1,24.2c-1.9,8.4-2.9,16.8-2.9,25.1c0,13.5,1.5,26.8,4.5,39.9c3,13,7.7,25.3,14.1,36.9
		c6.4,11.6,14.6,22.1,24.5,31.6c10,9.5,21.9,17.5,35.8,24c10,4.6,20.5,8,31.5,10.2c10.9,2.2,22,3.3,33.2,3.3
		c13.8,0,26.3-1.9,37.5-5.8c11.2-3.9,21.2-9.1,30.1-15.8c8.8-6.7,16.5-14.5,23-23.4c6.5-9,11.9-18.6,16.1-28.8
		c4.2-10.2,7.4-20.9,9.5-31.9c2.1-11,3.1-21.9,3.1-32.6c0-10.2-0.4-20.4-1.2-30.6c2.2,4.1,4.1,8.2,5.7,12.5
		c1.6,4.3,3.3,8.6,4.9,12.9c0.6,1.9,1.5,4.2,2.5,6.9c1,2.8,2.2,5.8,3.5,9.1c1.3,3.3,2.7,6.7,4.3,10.3s3.2,7.1,5,10.6
		c1.8,3.5,3.7,6.8,5.7,9.9c2,3.1,4.1,5.9,6.3,8.3c2.2,2.4,4.5,4.3,6.9,5.7c2.4,1.4,4.8,2.1,7.2,2.1c3.6,0,7.2-1.2,10.7-3.6
		c3.5-2.4,7-5.6,10.3-9.6c3.3-4,6.6-8.6,9.8-13.8c3.2-5.2,6.2-10.7,9-16.5c2.8-5.8,5.5-11.6,8-17.5c2.5-5.9,4.8-11.5,7-16.9
		c2.1-5.4,4-10.3,5.7-14.7c1.7-4.4,3.1-7.9,4.3-10.6c-0.6,8.8-1.3,17.5-1.8,26.2c-0.6,8.7-0.9,17.4-0.9,26.2
		c0,6.8,0.3,14.3,0.8,22.4c0.5,8.1,1.5,16.2,3.1,24.3c1.5,8.1,3.8,15.9,6.9,23.5c3,7.6,7.1,14.3,12.1,20.1
		c5,5.8,11.2,10.5,18.6,14.1c7.3,3.5,16.1,5.3,26.3,5.3c7.5,0,14.3-1.3,20.4-3.9c6.1-2.6,11.6-6,16.5-10.2
		c4.9-4.2,9.3-8.9,13.2-14.2c0.9-1.2,1.7-2.5,2.6-3.7c0.6,4.1,1.2,8.2,2,12.3c0.1,0.6,0.3,1.5,0.5,2.7c0.2,1.2,0.4,2.5,0.7,3.9
		c0.3,1.3,0.5,2.5,0.8,3.6c0.3,1.1,0.5,1.9,0.8,2.4c0.3,0.6,0.6,1,1.2,1c0.1,0.1,0.4,0.2,0.8,0.2h0.8c0.9,0,2.4-0.3,4.4-0.8
		c2.1-0.5,4.2-1.2,6.3-1.9c2.1-0.8,4-1.7,5.6-2.7c1.6-1,2.4-2.1,2.4-3.3c0-1.3-0.2-2.5-0.5-3.7c-0.3-1.2-0.6-2.3-0.9-3.5l-1.2-3.5
		c-0.1-0.6-0.2-1.3-0.3-1.8c-0.1-0.6-0.1-1.2-0.1-1.8c0-0.6,0-1.2,0.1-1.7c0.1-0.5,0.2-1.1,0.3-1.7c0.9-5,2.2-10.9,3.8-17.8
		c1.6-6.8,3.5-13.8,5.7-20.8c2.2-7,4.6-13.7,7.3-20c2.7-6.3,5.6-11.4,8.7-15.3c0.3-0.3,0.5-0.5,0.8-0.8c0.3-0.3,0.5-0.4,0.8-0.4
		s0.5,0.2,0.7,0.6c0.2,0.4,0.3,0.7,0.3,1c0,4.1-0.3,8.1-0.8,12.1c-0.5,3.9-1,8-1.5,12.1c-0.9,6.7-1.6,13.4-2.1,20.1
		c-0.5,6.7-0.8,13.5-0.8,20.3c0,4.6,0.2,9.3,0.6,13.9c0.4,4.6,1.3,9.2,2.7,13.7c0.5,1.5,1.2,3.4,2,5.6c0.8,2.2,1.9,4.3,3.1,6.3
		c1.2,2,2.6,3.7,4.2,5s3.4,2,5.5,2c2.8,0,5.7-1.4,8.5-4.1c2.8-2.7,5.5-6.2,8.1-10.3c2.6-4.2,5-8.9,7.2-14.1
		c2.3-5.2,4.3-10.3,6.2-15.4c1.1-3.1,2.2-6,3.1-8.8c0.6,3.9,1.3,7.8,2.2,11.8c1.3,5.3,3,10.1,5.1,14.4c2.1,4.3,4.8,7.7,8,10.4
		c3.2,2.7,7.1,4.1,11.6,4.1c2.6,0,5-0.6,7.1-1.7c2.2-1.2,4.3-2.7,6.2-4.7c1.9-2,3.7-4.3,5.3-7.1c1.6-2.7,3.1-5.5,4.5-8.5
		c1.4-3,2.7-6,3.8-9.2c0.5-1.5,1-3,1.5-4.4c0.7,5.2,1.8,10.3,3.4,15.3c1.7,5.3,4.1,10,7,13.8c2.9,3.9,6.7,5.8,11.3,5.8
		c7.5,0,13.5-1.7,18-5.1c4.5-3.4,8-7.7,10.5-12.9c2.5-5.2,4.3-11,5.3-17.3c1-6.3,1.8-12.4,2.3-18.2c0,2.2,0,4.7-0.1,7.4
		c-0.1,2.8,0,5.6,0.1,8.6c0.1,4,0.5,8.2,1.1,12.8c0.6,4.5,1.7,8.7,3.3,12.6c1.6,3.9,4,7.1,7.1,9.6c3.1,2.5,7.2,3.8,12.4,3.8
		c3.9,0,7.2-1.2,10-3.6c2.8-2.4,5.1-5.3,7.1-8.8c1.9-3.5,3.5-7.1,4.8-11c1.3-3.9,2.3-7.3,3.1-10.2c0.8-2.9,1.6-5.8,2.3-8.8
		c0.8,3.6,2,8.1,3.7,13.4c1.7,5.4,4,10.6,6.7,15.6c2.7,5,5.9,9.2,9.6,12.8c3.7,3.5,7.8,5.3,12.5,5.3c3.5,0,6.8-1.1,10-3.4
		c3.2-2.3,6.1-5.2,8.7-8.7c2.6-3.5,5.1-7.5,7.4-12c2.3-4.4,4.3-8.9,6.1-13.4c1.7-4.5,3.3-8.8,4.6-12.9c1.4-4.1,2.4-7.5,3.2-10.2
		C944.9,466.7,944.4,465.7,943.8,464.4z M896.6,415.3c0.7-8,1.8-16.1,3.2-24.3c1.4-8.2,3.3-16.1,5.7-23.5c2.4-7.4,5.4-13.3,9-17.7
		c1-1.3,2.3-2.5,3.7-3.8c1.4-1.2,3-1.8,4.8-1.8c1.9,0,3.4,0.7,4.5,2.2c1.1,1.5,2,3.3,2.6,5.4c0.6,2.1,1.1,4.3,1.3,6.4
		c0.2,2.1,0.3,3.9,0.3,5.3c0,15.5-2.9,29.1-8.7,41.1c-5.8,11.9-15.1,22.3-27.8,31.2C895.4,430.1,895.8,423.3,896.6,415.3z
		 M553.5,451c1.4-5.1,3.2-10.1,5.3-15.2c2.1-5,4.4-9.4,7-13.1c2.5-3.7,5.1-5.6,7.8-5.6c3,0,5.4,0.7,7.3,2c1.9,1.4,2.9,3.6,2.9,6.9
		c0,3.7-1.1,7.6-3.2,11.6c-2.1,4-4.8,7.7-8.1,11.2c-3.3,3.5-6.9,6.5-10.8,9c-3.9,2.5-7.6,4.2-11.1,4.9
		C551.1,460,552,456.1,553.5,451z M818.8,431c-0.3,3.3-0.5,7.1-0.8,11.4c-0.3,4.4-0.5,9-0.9,13.8c-0.3,4.8-0.8,9.7-1.4,14.6
		c-0.5,4.8-1.2,9.4-2,13.9c-0.8,4.5-1.9,8.4-3.2,11.8c-1.3,3.3-2.8,6.1-4.6,8.1c-1.8,2.1-4,3.1-6.6,3.1c-2.7,0-4.9-1.5-6.6-4.6
		c-1.7-3.1-3-6.7-3.9-10.8c-0.9-4.1-1.5-8.2-1.7-12.4c-0.3-4.1-0.4-7.1-0.4-9.1c0-2.2,0.1-5,0.4-8.5c0.3-3.5,0.7-7.1,1.3-10.9
		c0.6-3.8,1.4-7.6,2.4-11.5c1-3.9,2.4-7.3,4.1-10.3c1.7-3,3.7-5.5,6-7.4c2.3-1.9,5-2.9,8.1-2.9c2.1,0,4,0.4,5.8,1.3s3.5,1.8,5.2,2.8
		C819.4,425,819,427.6,818.8,431z"/>
	<g>
		<g>
			<path d="M355.3,664.8c0,21.5,2.6,45.2,7.4,66.1c0,0.4,0.2,0.8,0.2,1.2c0,2.8-2.6,5.4-5.4,5.4c-0.4,0-0.8-0.2-1.2-0.2
				c-5-1.2-11.4-2-16.9-2c-4.4,0.2-10,1.2-15.3,2h-1c-3,0-5.2-2.4-5.2-5.2c0-1,0.2-1.8,0.6-2.6c8.4-15.7,15.5-40,15.5-64.7
				c0-2.4-2-4.6-4.6-4.6h-60.1c-2.4,0-4.4,2.2-4.4,4.6c0,24.7,6.8,49,15.3,64.7c0.4,0.8,0.8,1.8,0.8,2.6c0,2.8-2.2,5.2-5.2,5.2h-1
				c-5.2-0.8-11-1.8-15.5-2c-5.4,0-11.8,0.8-16.9,2c-0.4,0-0.8,0.2-1.2,0.2c-2.8,0-5.2-2.4-5.2-5.2c0-0.4,0-1,0.2-1.4
				c4.8-20.9,7.2-44.6,7.2-66.1v-30.5c0-21.5-2.4-45-7.4-66.1c-0.2-0.4-0.2-0.8-0.2-1.2c0-2.8,2.6-5.2,5.4-5.2h0.8
				c5.4,1,12.3,1.6,17.7,1.6c4.4,0,10.4-0.8,15.9-1.6h0.8c3,0,5.2,2.6,5.2,5.4c0,0.8-0.2,1.6-0.6,2.4c-9.6,18.1-16.1,42.6-16.1,64.7
				c0,2.6,2,4.6,4.4,4.6h60.1c2.6,0,4.6-2,4.6-4.6c0-22.1-6.6-46.6-16.3-64.7c-0.4-0.8-0.6-1.6-0.6-2.4c0-2.8,2.4-5.4,5.4-5.4h0.8
				c5.2,0.8,11.2,1.6,15.7,1.6c5.6,0,12.3-0.6,17.7-1.6h0.8c3,0,5.4,2.2,5.4,5c0,0.4,0,1-0.2,1.4c-4.8,21.1-7.4,44.6-7.4,66.1V664.8
				z"/>
			<path d="M487,700.7c-0.2,3-0.4,7-0.4,11v4c0,5.6,0.4,10.8,1.2,15.5v0.6c0,3-2.4,5.4-5.2,5.4h-0.8c-14.9-2-31.5-3.4-50-3.4
				c-18.9,0-36,1.4-50.8,3.4h-0.8c-3,0-5.2-2.6-5.2-5.4v-1c2.2-9.2,3.8-19.3,4.8-28.1c1.8-12.3,2.6-24.5,2.6-37v-30.5
				c0-12.3-0.8-26.1-2.4-38.4l-0.2-0.2c-0.8-6-1.8-12.1-2.8-17.9c-0.8-3.6-1.6-7.2-2.4-10.4c0-0.4-0.2-0.8-0.2-1.2
				c0-3,2.4-5.4,5.2-5.4h0.6c15.5,1.6,32.3,2.4,50.6,2.4c17.3,0,33.3-1,48-2.4h0.6c2.8,0,5,2.2,5,5.2v1c-0.6,4.2-1,8.8-1.2,14.1v3.2
				c0,4.6,0.2,10,0.6,13.9v0.8c0,2.8-2.4,5.2-5.2,5.2c-0.8,0-1.8-0.4-2.6-0.8c-8.4-4.8-17.9-8.2-30.5-9.2c-3.4-0.2-6.6-0.4-9.8-0.4
				c-8,0-15.5,0.8-21.5,2c-4.8,0.8-8.4,4.6-8.8,9.4c-1.2,10.6-1.6,16.1-1.6,24.9v1c0,3.6,2.8,6.6,6.4,6.8c1.6,0,3.2,0.2,4.8,0.2
				c1.8,0,3.6-0.2,5.6-0.2c5.8,0,12.1-0.6,18.3-2.4c2-0.6,4.8-1.6,7.8-3.2c0.8-0.4,1.8-0.6,2.6-0.6c2.8,0,5.2,2.2,5.2,5.2v0.6
				c-0.2,2.6-0.2,9.6-0.4,12.5c0,3,0.2,8.2,0.4,11v0.2c0,3.2-2.6,5.4-5.6,5.4c-0.8,0-1.8-0.2-2.8-0.8c-7.8-5.4-15.1-6.6-25.3-6.6
				c-4.2,0-7.6,0-10.8,0.2c-3.4,0.2-6.2,3.2-6.2,6.8v1c0,10.6,0.6,16.9,1.8,27.3c0.4,3.2,2.8,6,6,6.8c8,2,16.9,4,28.5,4
				c19.3,0,31.1-5.4,38.8-10.4c1-0.6,2-1,3-1c2.8,0,5.2,2.2,5.2,5.2V700.7z"/>
			<path d="M625.8,730.8c0.2,0.4,0.2,1,0.2,1.4c0,2.8-2.4,5.2-5.4,5.2c-0.4,0-0.8-0.2-1.2-0.2c-4.8-1-11-2-16.9-2h-0.6
				c-4.8,0-9.8,1.2-14.3,2h-1c-3,0-5.4-2.4-5.4-5.2c0-1,0.4-2,0.8-2.8c7-11.8,13.5-26.3,13.9-37.4v-0.4c0-4-3.2-7.4-7.4-7.4h-51.6
				c-4.4,0-7.6,3.4-7.6,7.6v0.8c0.2,3,5,19.1,14.7,37c0.4,0.8,0.6,1.6,0.6,2.6c0,2.8-2.2,5.2-5.2,5.2h-1c-5.4-0.8-11.7-1.8-16.1-2
				h-0.8c-5,0-11,1-15.9,2c-0.4,0-0.8,0.2-1.2,0.2c-2.8,0-5.2-2.4-5.2-5.2c0-0.4,0-1,0.2-1.4c4.8-20.9,7.2-42.2,7.2-63.7v-47.6
				c0-36.2,25.3-57.8,56-57.8c30.1,0,56,24.1,56,55.8v49.6c0,12.3,0.8,24.5,2.4,36.6C622.2,713,623.8,721.8,625.8,730.8z M528,634.4
				v18.3c0,5.4,4.4,9.8,10,9.8h49.2c5.4,0,9.8-4.4,9.8-9.8v-18.3c0-19.1-15.5-37.2-34.5-37.2C543.5,597.3,528,615.2,528,634.4z"/>
			<path d="M741.1,709.8c0,7.4,0.8,14.9,2,22.3c0,3-2.4,5.4-5.2,5.4c-16.1-1.4-31.9-2.2-48-2.2c-14.9,0-29.9,0.6-44.8,2l-2.6,0.2
				c-3-0.2-5.2-2.4-5.2-5.2c0-0.6,0-1.2,0.2-1.8c6.6-19.9,11.7-42,11.7-63.1v-34.9c0-22.1-3.4-38-11.9-63.7
				c-0.2-0.6-0.2-1.2-0.2-1.6c0-2.8,2.2-5.4,5-5.4c0.4,0,0.6,0.2,1,0.2c5.4,0.8,12,1.4,17.3,1.4c5,0,11-0.6,16.3-1.6h0.8
				c3,0,5.4,2.6,5.4,5.4c0,0.4,0,1-0.2,1.4c-9.4,30.3-12.3,54-12.3,63.9v55.6c0,7.6,6.2,13.7,13.7,13.7h3.4
				c23.1,0,47.6-19.5,47.6-19.5c1-0.6,1.8-0.8,2.8-0.8c2.8,0,5.2,2.2,5.2,5.2l-0.4,3.6C741.7,696.7,741.1,703.3,741.1,709.8z"/>
			<path d="M792.5,598.9c-1,1-1.6,2.4-1.6,4v64.3c0,10.4,1,21.1,3.2,32.1c2.2,11,4.8,21.5,8,30.9c0.2,0.6,0.2,1.2,0.2,1.8
				c0,1.2-0.4,2.4-1.2,3.4c-1,1.2-2.2,1.8-3.6,1.8c-0.6,0-1-0.2-1.4-0.2c-5.2-1-10.4-1.4-15.5-1.6c-5.6,0-11.2,0.6-16.7,1.8h-1
				c-1.6,0-3-0.6-4-1.8c-1-1-1.4-2.2-1.4-3.4c0-0.6,0-1.2,0.2-1.8c3.4-9.8,6.2-20.3,8.4-31.1c2.2-10.6,3.2-21.3,3.2-31.9v-63.1
				c0-1.8-0.6-3.4-2-4.8c-1.4-1.4-3-2-4.8-2h-1.2c-10.2,0-19.9,2.8-28.7,8.6c-1,0.6-2,1-3,1s-2-0.4-3.4-1.2c-1.4-0.6-2-2-2-4.2
				l0.4-3c0.4-4.6,0.6-9.2,0.6-13.9c0-5.8-0.4-11.8-1-17.7c0-1.4,0.6-2.8,1.6-3.8c1-1,2.4-1.6,3.8-1.6c18.3,1.4,41.8,2,70.1,2.2h6.4
				c25.7,0,47.8-0.8,66.7-2.2h0.2c1.4,0,2.8,0.4,3.8,1.4c1,1,1.4,2.4,1.4,4c-0.6,6-1,11.8-1,17.9c0,5.4,0.2,10.6,0.8,16.1l0.2,0.6
				c0,2.2-1,3.6-2.8,4.6c-0.8,0.6-1.8,0.8-2.6,0.8c-1,0-2-0.4-3-1c-9.8-4.4-21.5-7-34.9-7.8c-10-0.6-18.7-1-25.5-1
				c-2.4,0-4.4,0.2-6.4,0.2h-6.4C794.9,597.3,793.5,597.9,792.5,598.9z M941.5,730.6c0.2,0.4,0.2,1,0.2,1.4c0,1.4-0.4,2.6-1.4,3.6
				s-2.2,1.6-3.6,1.6c-0.4,0-1-0.2-1.4-0.2c-5.4-1.2-11.2-1.8-17.1-1.8c-3.8,0.2-8.2,0.6-13.1,1.6c-0.6,0.2-1.4,0.2-2.2,0.4h-0.4
				c-2.2,0-3.6-0.8-4.8-2.4c-0.6-0.8-1-1.8-1-2.8c0-0.8,0.2-1.8,0.8-2.8c4.2-7.6,7.8-15.1,10.8-22.1c3-7,4.4-14.5,4.4-22.7
				c0-1.4-0.4-2.4-1.2-3.4c-1-0.8-2-1.2-3.2-1.2h-60.1c-1.4,0-2.4,0.4-3.2,1.2c-1,1-1.4,2-1.4,3.4c0,8.4,1.2,15.7,3.8,21.7
				c2.4,6.2,5.4,12.5,9.2,18.9c0.8,1.4,1.6,2.8,2.4,4.2c0.4,1,0.6,1.8,0.6,2.6c0,1.2-0.4,2-1,3c-1.2,1.6-2.6,2.4-4.8,2.4h-0.4
				c-0.8-0.2-1.6-0.2-2.2-0.4c-4.8-1-9.2-1.4-13.1-1.6c-5.8,0-11.6,0.6-17.1,1.8c-0.4,0-1,0.2-1.4,0.2c-1.4,0-2.4-0.6-3.4-1.6
				c-1-1-1.6-2.2-1.6-3.6c0-0.4,0.2-1,0.2-1.4c2.4-9.8,4.2-18.5,5.4-25.7c1.2-7.2,1.8-16.3,1.8-26.9v-9.6c0-10.6-0.6-19.5-1.8-26.3
				c-1.2-6.8-3-13.5-5.6-20.1c-0.2-0.6-0.2-1-0.2-1.6c0-1.2,0.4-2.2,1.4-3.2c1.2-1.2,2.4-1.6,4-1.6h1c1,0.2,1.8,0.2,2.6,0.4
				c1.8,0.4,3.6,0.6,5.2,0.8c1.6,0.2,3.4,0.4,5.6,0.4c1.4,0,2.6,0,3.6-0.2c1-0.2,2-0.4,3-0.6c1.4-0.2,3-0.6,5-0.8h0.6
				c2,0,3.4,0.8,4.6,2.2c0.6,0.8,0.8,1.8,0.8,2.8c0,0.8-0.2,1.8-0.6,2.8c-4,7.8-6.4,13.9-7,18.1c-0.6,3.2-0.8,6-0.8,8.4v4
				c0,1.2,0.4,2.2,1.4,3c0.8,1,1.8,1.4,3.2,1.4h60.1c1.2,0,2.2-0.4,3.2-1.4c0.8-0.8,1.2-1.8,1.2-3c0-11-1.4-25.5-4.4-43.2
				c-3-17.5-6.8-31.3-11.7-41.4c-0.4-0.8-0.6-1.8-0.6-2.6c0-1,0.4-2,1-3c1-1.4,2.2-2,4-2h2.2c5.4,0.8,10.2,1.4,14.7,1.6
				c5.8-0.2,11.6-0.6,17.5-1.6h1c1.6,0,3,0.4,4,1.4c1,1,1.4,2.2,1.4,3.6c0,0.4,0,0.8-0.2,1.4c-5,22.3-7.4,44.4-7.4,66.1v30.5
				C934.3,686.3,936.7,708.2,941.5,730.6z"/>
		</g>
	</g>
	<g>
		<path d="M945.8,391c-0.7,2.7-1.3,5.4-2.1,8h53.7v563.7H589.1c-1.7,2.7-3.3,5.4-5.1,8h421.3V391H945.8z"/>
	</g>
</g>
</svg>
